G04*
G04 #@! TF.GenerationSoftware,Altium Limited,Altium Designer,21.0.9 (235)*
G04*
G04 Layer_Physical_Order=2*
G04 Layer_Color=16711680*
%FSTAX44Y44*%
%MOMM*%
G71*
G04*
G04 #@! TF.SameCoordinates,00477293-EDE4-4511-9B12-11A9C6AA5166*
G04*
G04*
G04 #@! TF.FilePolarity,Positive*
G04*
G01*
G75*
%ADD10C,3.0000*%
%ADD11C,1.0000*%
%ADD12C,2.0000*%
%ADD13C,1.5000*%
%ADD14C,1.2750*%
%ADD15R,1.2750X1.2750*%
%ADD16C,3.0000*%
%ADD17C,2.0320*%
%ADD18O,1.8000X2.5000*%
%ADD19O,2.5000X1.8000*%
G04:AMPARAMS|DCode=20|XSize=1.8mm|YSize=1.8mm|CornerRadius=0.225mm|HoleSize=0mm|Usage=FLASHONLY|Rotation=0.000|XOffset=0mm|YOffset=0mm|HoleType=Round|Shape=RoundedRectangle|*
%AMROUNDEDRECTD20*
21,1,1.8000,1.3500,0,0,0.0*
21,1,1.3500,1.8000,0,0,0.0*
1,1,0.4500,0.6750,-0.6750*
1,1,0.4500,-0.6750,-0.6750*
1,1,0.4500,-0.6750,0.6750*
1,1,0.4500,0.6750,0.6750*
%
%ADD20ROUNDEDRECTD20*%
%ADD21C,1.8000*%
G04:AMPARAMS|DCode=22|XSize=1.8mm|YSize=1.8mm|CornerRadius=0.225mm|HoleSize=0mm|Usage=FLASHONLY|Rotation=270.000|XOffset=0mm|YOffset=0mm|HoleType=Round|Shape=RoundedRectangle|*
%AMROUNDEDRECTD22*
21,1,1.8000,1.3500,0,0,270.0*
21,1,1.3500,1.8000,0,0,270.0*
1,1,0.4500,-0.6750,-0.6750*
1,1,0.4500,-0.6750,0.6750*
1,1,0.4500,0.6750,0.6750*
1,1,0.4500,0.6750,-0.6750*
%
%ADD22ROUNDEDRECTD22*%
%ADD23R,2.0320X2.0320*%
%ADD24O,2.7000X1.8000*%
%ADD25C,1.5000*%
G36*
X0060071Y0D02*
X0000127D01*
X00001173Y-00000097D01*
X0Y00000389D01*
Y0120269D01*
X0060071D01*
Y0D01*
D02*
G37*
%LPC*%
G36*
X0003753Y0119094D02*
X0003359D01*
X00029726Y01190171D01*
X00026086Y01188664D01*
X00022811Y01186475D01*
X00020025Y01183689D01*
X00017836Y01180414D01*
X00016329Y01176774D01*
X0001556Y0117291D01*
Y0116897D01*
X00016329Y01165106D01*
X00017836Y01161467D01*
X00020025Y01158191D01*
X00022811Y01155405D01*
X00026086Y01153216D01*
X00029726Y01151709D01*
X0003359Y0115094D01*
X0003753D01*
X00041394Y01151709D01*
X00045033Y01153216D01*
X00048309Y01155405D01*
X00051095Y01158191D01*
X00053284Y01161467D01*
X00054791Y01165106D01*
X0005556Y0116897D01*
Y0117291D01*
X00054791Y01176774D01*
X00053284Y01180414D01*
X00051095Y01183689D01*
X00048309Y01186475D01*
X00045033Y01188664D01*
X00041394Y01190171D01*
X0003753Y0119094D01*
D02*
G37*
G36*
X0056839Y0118967D02*
X0056445D01*
X00560586Y01188901D01*
X00556946Y01187394D01*
X00553671Y01185205D01*
X00550885Y01182419D01*
X00548696Y01179144D01*
X00547189Y01175504D01*
X0054642Y0117164D01*
Y011677D01*
X00547189Y01163836D01*
X00548696Y01160197D01*
X00550885Y01156921D01*
X00553671Y01154135D01*
X00556946Y01151946D01*
X00560586Y01150439D01*
X0056445Y0114967D01*
X0056839D01*
X00572254Y01150439D01*
X00575894Y01151946D01*
X00579169Y01154135D01*
X00581955Y01156921D01*
X00584144Y01160197D01*
X00585651Y01163836D01*
X0058642Y011677D01*
Y0117164D01*
X00585651Y01175504D01*
X00584144Y01179144D01*
X00581955Y01182419D01*
X00579169Y01185205D01*
X00575894Y01187394D01*
X00572254Y01188901D01*
X0056839Y0118967D01*
D02*
G37*
G36*
X0029941Y01140368D02*
X002667D01*
X00263437Y01139938D01*
X00260396Y01138679D01*
X00257785Y01136675D01*
X00220435Y01099325D01*
X00218431Y01096714D01*
X00217172Y01093673D01*
X00216742Y0109041D01*
Y01048751D01*
X00215569Y01048265D01*
X00191366Y01072468D01*
X0019113Y01074265D01*
X00189719Y0107767D01*
X00187475Y01080595D01*
X00184916Y01082558D01*
X00184814Y01082901D01*
Y01083719D01*
X00184916Y01084062D01*
X00187475Y01086025D01*
X00189719Y0108895D01*
X0019113Y01092355D01*
X00191611Y0109601D01*
X0019113Y01099665D01*
X00189719Y0110307D01*
X00187475Y01105995D01*
X00186563Y01106695D01*
Y01107424D01*
X00186563Y01107424D01*
X00186273Y01110365D01*
X00185415Y01113192D01*
X00184022Y01115798D01*
X00182148Y01118082D01*
X00169432Y01130798D01*
X00167148Y01132672D01*
X00164542Y01134065D01*
X00161715Y01134923D01*
X00158774Y01135213D01*
X00044736D01*
X00041795Y01134923D01*
X00038968Y01134065D01*
X00036362Y01132672D01*
X00034078Y01130798D01*
X00022362Y01119082D01*
X00020488Y01116798D01*
X00019095Y01114192D01*
X00018237Y01111365D01*
X00017947Y01108424D01*
Y00882273D01*
Y006985D01*
Y00627223D01*
Y0025019D01*
Y001905D01*
Y0016987D01*
X00018237Y00166929D01*
X00019095Y00164102D01*
X00020488Y00161496D01*
X00022362Y00159212D01*
X00055107Y00126467D01*
X00055925Y00123772D01*
X00056062Y00123516D01*
X0005621Y00122385D01*
X00057621Y0011898D01*
X00059865Y00116055D01*
X0006279Y00113811D01*
X00066195Y001124D01*
X0006985Y00111919D01*
X00073505Y001124D01*
X0007691Y00113811D01*
X00079835Y00116055D01*
X00080216Y00116552D01*
X00081722Y00116428D01*
X0008314Y00113775D01*
X00085639Y00110729D01*
X00087853Y00108516D01*
Y00082344D01*
X00088239Y00078423D01*
X00089383Y00074653D01*
X0009124Y00071178D01*
X00093739Y00068133D01*
X00111313Y0005056D01*
X00111313Y00050559D01*
X00114358Y0004806D01*
X00117833Y00046203D01*
X00121603Y00045059D01*
X00125524Y00044673D01*
X00125524Y00044673D01*
X0051435D01*
X00518271Y00045059D01*
X00522041Y00046203D01*
X00525515Y0004806D01*
X00528561Y00050559D01*
X00575551Y00097549D01*
X0057805Y00100595D01*
X00579907Y00104069D01*
X00581051Y00107839D01*
X00581437Y0011176D01*
Y00326928D01*
Y0054102D01*
X00581437Y0054102D01*
X00581437Y0054102D01*
Y0061722D01*
X00581124Y00620395D01*
X00581437Y0062357D01*
Y0066421D01*
Y0107823D01*
X00581437Y0107823D01*
X00581051Y01082151D01*
X00579907Y01085921D01*
X0057805Y01089395D01*
X00575551Y01092441D01*
X00533641Y01134351D01*
X00530595Y0113685D01*
X00527121Y01138707D01*
X00523351Y01139851D01*
X0051943Y01140237D01*
X0030353D01*
X0030353Y01140237D01*
X00301743Y01140061D01*
X0029941Y01140368D01*
D02*
G37*
G36*
X0056966Y0005556D02*
X0056572D01*
X00561856Y00054791D01*
X00558217Y00053284D01*
X00554941Y00051095D01*
X00552155Y00048309D01*
X00549966Y00045033D01*
X00548459Y00041394D01*
X0054769Y0003753D01*
Y0003359D01*
X00548459Y00029726D01*
X00549966Y00026086D01*
X00552155Y00022811D01*
X00554941Y00020025D01*
X00558217Y00017836D01*
X00561856Y00016329D01*
X0056572Y0001556D01*
X0056966D01*
X00573524Y00016329D01*
X00577164Y00017836D01*
X00580439Y00020025D01*
X00583225Y00022811D01*
X00585414Y00026086D01*
X00586921Y00029726D01*
X0058769Y0003359D01*
Y0003753D01*
X00586921Y00041394D01*
X00585414Y00045033D01*
X00583225Y00048309D01*
X00580439Y00051095D01*
X00577164Y00053284D01*
X00573524Y00054791D01*
X0056966Y0005556D01*
D02*
G37*
G36*
X0003753D02*
X0003359D01*
X00029726Y00054791D01*
X00026086Y00053284D01*
X00022811Y00051095D01*
X00020025Y00048309D01*
X00017836Y00045033D01*
X00016329Y00041394D01*
X0001556Y0003753D01*
Y0003359D01*
X00016329Y00029726D01*
X00017836Y00026086D01*
X00020025Y00022811D01*
X00022811Y00020025D01*
X00026086Y00017836D01*
X00029726Y00016329D01*
X0003359Y0001556D01*
X0003753D01*
X00041394Y00016329D01*
X00045033Y00017836D01*
X00048309Y00020025D01*
X00051095Y00022811D01*
X00053284Y00026086D01*
X00054791Y00029726D01*
X0005556Y0003359D01*
Y0003753D01*
X00054791Y00041394D01*
X00053284Y00045033D01*
X00051095Y00048309D01*
X00048309Y00051095D01*
X00045033Y00053284D01*
X00041394Y00054791D01*
X0003753Y0005556D01*
D02*
G37*
%LPD*%
G36*
X00459999Y01099102D02*
X00459963Y0109874D01*
X00460349Y01094819D01*
X00461493Y01091049D01*
X0046335Y01087575D01*
X00465849Y01084529D01*
X00468895Y0108203D01*
X00470164Y01081351D01*
X00470223Y0107988D01*
X00467977Y01078156D01*
X00440878D01*
X00438267Y01077813D01*
X00435835Y01076805D01*
X00433746Y01075202D01*
X00420893Y0106235D01*
X00419291Y01060261D01*
X00418786Y01059044D01*
X00417288Y01058746D01*
X00402899Y01073135D01*
X0040081Y01074738D01*
X00398378Y01075745D01*
X00396019Y01076056D01*
X00395188Y01077139D01*
X0039566Y0107861D01*
X00396001Y01078713D01*
X00399475Y0108057D01*
X00402521Y01083069D01*
X00419494Y01100043D01*
X00459146D01*
X00459999Y01099102D01*
D02*
G37*
G36*
X00256898Y01098437D02*
X00256763Y0109707D01*
X00257149Y01093149D01*
X00258293Y01089379D01*
X0026015Y01085905D01*
X00262649Y01082859D01*
X00265018Y01080916D01*
X0026504Y01079333D01*
X00263375Y01078055D01*
X00261131Y0107513D01*
X0025972Y01071725D01*
X00259484Y01069928D01*
X00243228Y01053672D01*
X00241958Y01053912D01*
Y01085188D01*
X0025575Y0109898D01*
X00256898Y01098437D01*
D02*
G37*
G36*
X00156417Y01101181D02*
Y0109701D01*
X00156453Y01096647D01*
X00156369Y0109601D01*
X0015685Y01092355D01*
X00158261Y0108895D01*
X00160505Y01086025D01*
X00163064Y01084062D01*
X00163166Y01083719D01*
Y01082901D01*
X00163064Y01082558D01*
X00160505Y01080595D01*
X00158261Y0107767D01*
X0015685Y01074265D01*
X00156369Y0107061D01*
X0015685Y01066955D01*
X00158261Y0106355D01*
X00160505Y01060625D01*
X00163064Y01058662D01*
X00163166Y01058319D01*
Y01057501D01*
X00163064Y01057158D01*
X00160505Y01055195D01*
X00158261Y0105227D01*
X0015685Y01048865D01*
X00156369Y0104521D01*
X0015685Y01041555D01*
X00158261Y0103815D01*
X00160505Y01035225D01*
X0016343Y01032981D01*
X00166835Y0103157D01*
X0017049Y01031089D01*
X0017749D01*
X00178662Y01031244D01*
X00186764Y01023142D01*
Y00964135D01*
X00186683Y00964102D01*
X00185494Y00963925D01*
X00183993Y00966525D01*
X00181665Y00968852D01*
X00178815Y00970498D01*
X00175636Y0097135D01*
X00172344D01*
X00169165Y00970498D01*
X00166315Y00968852D01*
X00163988Y00966525D01*
X00162342Y00963675D01*
X0016149Y00960496D01*
Y00957204D01*
X00162342Y00954025D01*
X00163988Y00951175D01*
X00164535Y00950627D01*
Y00936628D01*
X00164879Y00934018D01*
X00165887Y00931585D01*
X0016749Y00929496D01*
X0017906Y00917926D01*
X00178574Y00916752D01*
X0016978D01*
X00167887Y00916503D01*
X00166124Y00915773D01*
X00164609Y00914611D01*
X00163447Y00913096D01*
X00162717Y00911333D01*
X00162467Y0090944D01*
Y0089594D01*
X00162717Y00894047D01*
X00163447Y00892284D01*
X00164609Y00890769D01*
X00166124Y00889607D01*
X00167887Y00888877D01*
X0016978Y00888627D01*
X0018328D01*
X00185173Y00888877D01*
X00186936Y00889607D01*
X00188451Y00890769D01*
X00189613Y00892284D01*
X00189943Y00893082D01*
X00191441Y0089338D01*
X00193334Y00891487D01*
X00196526Y00889644D01*
X00200087Y0088869D01*
X00203773D01*
X00207334Y00889644D01*
X00210526Y00891487D01*
X00213133Y00894094D01*
X00213995Y00895587D01*
X00215265D01*
X00216127Y00894094D01*
X00218734Y00891487D01*
X00221926Y00889644D01*
X00225487Y0088869D01*
X00229173D01*
X00232734Y00889644D01*
X00235926Y00891487D01*
X00238533Y00894094D01*
X00239395Y00895587D01*
X00240665D01*
X00241527Y00894094D01*
X00244134Y00891487D01*
X00247326Y00889644D01*
X00250887Y0088869D01*
X00254573D01*
X00258134Y00889644D01*
X00261326Y00891487D01*
X00263933Y00894094D01*
X00264795Y00895587D01*
X00266065D01*
X00266927Y00894094D01*
X00269534Y00891487D01*
X00272726Y00889644D01*
X00276287Y0088869D01*
X00279973D01*
X00283534Y00889644D01*
X00286726Y00891487D01*
X00289333Y00894094D01*
X00291176Y00897286D01*
X0029213Y00900847D01*
Y00904533D01*
X00291176Y00908094D01*
X00290164Y00909847D01*
Y00912434D01*
X00289734Y00915697D01*
X00288475Y00918738D01*
X00286471Y00921349D01*
X00281004Y00926816D01*
X00281662Y00927954D01*
X00284104Y009273D01*
X00287396D01*
X00290575Y00928152D01*
X00293425Y00929798D01*
X00295753Y00932125D01*
X00297398Y00934975D01*
X0029825Y00938154D01*
Y00941446D01*
X00297398Y00944625D01*
X00295753Y00947475D01*
X00293425Y00949802D01*
X00290575Y00951448D01*
X00287558Y00952257D01*
X00260276Y00979538D01*
Y01042192D01*
X00272188Y01054104D01*
X0027336Y01053949D01*
X0028036D01*
X00284015Y0105443D01*
X0028742Y01055841D01*
X00290345Y01058085D01*
X00292589Y0106101D01*
X00294Y01064415D01*
X00294481Y0106807D01*
X00294Y01071725D01*
X00292589Y0107513D01*
X00290345Y01078055D01*
X0029003Y01078297D01*
X00290133Y01079563D01*
X00291625Y0108036D01*
X00294671Y01082859D01*
X00311854Y01100043D01*
X0036023D01*
X00361083Y01099102D01*
X00360903Y0109728D01*
X00361289Y01093359D01*
X00362433Y01089589D01*
X0036429Y01086115D01*
X00366789Y01083069D01*
X0036929Y01081018D01*
X00369376Y01079483D01*
X00367515Y01078055D01*
X00365271Y0107513D01*
X0036386Y01071725D01*
X00363379Y0106807D01*
X0036386Y01064415D01*
X00365271Y0106101D01*
X00367515Y01058085D01*
X0037044Y01055841D01*
X00373845Y0105443D01*
X003775Y01053949D01*
X003845D01*
X00388155Y0105443D01*
X0039156Y01055841D01*
X00391619Y01055886D01*
X00402664Y01044842D01*
Y01001128D01*
X00347198Y00945662D01*
X00345595Y00943573D01*
X00344587Y00941141D01*
X00344244Y0093853D01*
Y00912403D01*
X00343127Y00911286D01*
X00342265Y00909793D01*
X00340995D01*
X00340133Y00911286D01*
X00339016Y00912403D01*
Y0092973D01*
X00340578Y00932435D01*
X0034143Y00935614D01*
Y00938906D01*
X00340578Y00942085D01*
X00338932Y00944935D01*
X00336605Y00947262D01*
X00333755Y00948908D01*
X00330576Y0094976D01*
X00327284D01*
X00324105Y00948908D01*
X00321255Y00947262D01*
X00318927Y00944935D01*
X00317282Y00942085D01*
X0031643Y00938906D01*
Y00935614D01*
X00317282Y00932435D01*
X00318844Y0092973D01*
Y00912403D01*
X00317727Y00911286D01*
X00315884Y00908094D01*
X0031493Y00904533D01*
Y00900847D01*
X00315884Y00897286D01*
X00317727Y00894094D01*
X00320334Y00891487D01*
X00323526Y00889644D01*
X00327087Y0088869D01*
X00330773D01*
X00334334Y00889644D01*
X00337526Y00891487D01*
X00340133Y00894094D01*
X00340995Y00895587D01*
X00342265D01*
X00343127Y00894094D01*
X00345734Y00891487D01*
X00348926Y00889644D01*
X00352487Y0088869D01*
X00356173D01*
X00359734Y00889644D01*
X00362926Y00891487D01*
X00365533Y00894094D01*
X00366395Y00895587D01*
X00367665D01*
X00368527Y00894094D01*
X00371134Y00891487D01*
X00374326Y00889644D01*
X00377887Y0088869D01*
X00381573D01*
X00385134Y00889644D01*
X00388326Y00891487D01*
X00390933Y00894094D01*
X00391795Y00895587D01*
X00393065D01*
X00393927Y00894094D01*
X00396534Y00891487D01*
X00399726Y00889644D01*
X00403287Y0088869D01*
X00406973D01*
X00410534Y00889644D01*
X00413726Y00891487D01*
X00416253Y00894014D01*
X00436412D01*
X00439096Y00892464D01*
X00442657Y0089151D01*
X00446343D01*
X00449904Y00892464D01*
X00453096Y00894307D01*
X00455703Y00896914D01*
X00457546Y00900106D01*
X004585Y00903667D01*
Y00907353D01*
X00457546Y00910914D01*
X00455703Y00914106D01*
X00453096Y00916713D01*
X00449904Y00918556D01*
X00446343Y0091951D01*
X00442657D01*
X00439096Y00918556D01*
X00435904Y00916713D01*
X00433377Y00914186D01*
X00413218D01*
X00410534Y00915736D01*
X00406973Y0091669D01*
X00403287D01*
X00399726Y00915736D01*
X00396534Y00913893D01*
X00393927Y00911286D01*
X00393065Y00909793D01*
X00391795D01*
X00391086Y0091102D01*
Y00938162D01*
X00435158Y00982233D01*
X0043676Y00984322D01*
X00437768Y00986755D01*
X00438112Y00989365D01*
Y0105104D01*
X00445056Y01057984D01*
X00467977D01*
X0047077Y01055841D01*
X00474175Y0105443D01*
X0047783Y01053949D01*
X0048483D01*
X00488485Y0105443D01*
X0049189Y01055841D01*
X00494815Y01058085D01*
X00497059Y0106101D01*
X0049847Y01064415D01*
X00498951Y0106807D01*
X0049847Y01071725D01*
X00497059Y0107513D01*
X00494815Y01078055D01*
X00493535Y01079037D01*
X00493711Y01080502D01*
X00496569Y0108203D01*
X00499615Y01084529D01*
X00513117Y01098032D01*
X00541243Y01069906D01*
Y00706767D01*
X0054007Y00706281D01*
X00533641Y00712711D01*
X00530595Y0071521D01*
X00527121Y00717067D01*
X00523351Y00718211D01*
X0051943Y00718597D01*
X00515509Y00718211D01*
X00511739Y00717067D01*
X00508265Y0071521D01*
X00505219Y00712711D01*
X0050272Y00709665D01*
X00500863Y00706191D01*
X00499719Y00702421D01*
X00499333Y006985D01*
X00499719Y00694579D01*
X00500863Y00690809D01*
X0050272Y00687335D01*
X00505219Y00684289D01*
X00539509Y0065D01*
X00539509Y00649999D01*
X00541243Y00648577D01*
Y0062357D01*
X00541556Y00620395D01*
X00541243Y0061722D01*
Y00591197D01*
X0054007Y00590711D01*
X00534911Y00595871D01*
X00531865Y0059837D01*
X00528391Y00600227D01*
X00524621Y00601371D01*
X005207Y00601757D01*
X00516779Y00601371D01*
X00513009Y00600227D01*
X00509535Y0059837D01*
X00506489Y00595871D01*
X0050399Y00592825D01*
X00502133Y00589351D01*
X00500989Y00585581D01*
X00500603Y0058166D01*
X00500989Y00577739D01*
X00502133Y00573969D01*
X0050399Y00570495D01*
X00506489Y00567449D01*
X00541243Y00532696D01*
Y00335252D01*
X00471139Y00265149D01*
X0046864Y00262103D01*
X00466783Y00258629D01*
X00465639Y00254859D01*
X00465253Y00250938D01*
Y0023368D01*
X00465639Y00229759D01*
X00466783Y00225989D01*
X0046864Y00222515D01*
X00471139Y00219469D01*
X00474185Y0021697D01*
X00477659Y00215113D01*
X00481429Y00213969D01*
X0048535Y00213583D01*
X00489271Y00213969D01*
X00493041Y00215113D01*
X00496515Y0021697D01*
X00499561Y00219469D01*
X0050206Y00222515D01*
X00503917Y00225989D01*
X00505061Y00229759D01*
X00505447Y0023368D01*
Y00242614D01*
X0054007Y00277237D01*
X00541243Y00276751D01*
Y00120084D01*
X00506026Y00084867D01*
X00133848D01*
X00128047Y00090668D01*
Y00112116D01*
X00131261Y00115329D01*
X0013376Y00118375D01*
X00135617Y00121849D01*
X00136761Y00125619D01*
X00137147Y0012954D01*
X00136761Y00133461D01*
X00135617Y00137231D01*
X0013376Y00140705D01*
X00131261Y00143751D01*
X00128215Y0014625D01*
X00124741Y00148107D01*
X00120971Y00149251D01*
X0011705Y00149637D01*
X00113129Y00149251D01*
X00109359Y00148107D01*
X0010845Y00147621D01*
X00107541Y00148107D01*
X00103771Y00149251D01*
X0009985Y00149637D01*
X00095929Y00149251D01*
X00092159Y00148107D01*
X00088685Y0014625D01*
X00085639Y00143751D01*
X00083783Y00141488D01*
X00082985Y00141446D01*
X00082231Y00141599D01*
X00080508Y00143698D01*
X00048093Y00176113D01*
Y00184257D01*
X00081681Y00217845D01*
X00082054Y00218095D01*
X00084165Y00220206D01*
X00085825Y00222689D01*
X00086967Y00225448D01*
X0008755Y00228377D01*
Y00231363D01*
X00086967Y00234292D01*
X00085825Y00237051D01*
X00084165Y00239534D01*
X00082054Y00241646D01*
X00079571Y00243305D01*
X00076812Y00244447D01*
X00073883Y0024503D01*
X00070897D01*
X00067968Y00244447D01*
X00065209Y00243305D01*
X00062726Y00241646D01*
X00060615Y00239534D01*
X00060366Y00239161D01*
X00049266Y00228062D01*
X00048093Y00228548D01*
Y00243947D01*
X00091333Y00287187D01*
X001633D01*
X00166241Y00287477D01*
X00169068Y00288335D01*
X00171674Y00289728D01*
X00173958Y00291602D01*
X00174358Y00292002D01*
X00176232Y00294286D01*
X00177625Y00296892D01*
X00178483Y0029972D01*
X00178773Y0030266D01*
X00178483Y003056D01*
X00177625Y00308428D01*
X00176232Y00311034D01*
X00174358Y00313318D01*
X00172074Y00315192D01*
X00169468Y00316585D01*
X0016664Y00317443D01*
X001637Y00317733D01*
X0016076Y00317443D01*
X00160396Y00317333D01*
X0008509D01*
X00082149Y00317043D01*
X00079322Y00316185D01*
X00076716Y00314792D01*
X00074432Y00312918D01*
X00049266Y00287752D01*
X00048093Y00288238D01*
Y0062098D01*
X00080586Y00653474D01*
X00080586Y00653474D01*
X00105209Y00678096D01*
X0010567Y00678343D01*
X00107954Y00680217D01*
X00108457Y00680721D01*
X00111178Y00681546D01*
X00113784Y00682939D01*
X00116068Y00684813D01*
X00117942Y00687097D01*
X00119335Y00689703D01*
X00120193Y00692531D01*
X00120483Y00695471D01*
X00120193Y00698412D01*
X00119335Y00701239D01*
X00117942Y00703845D01*
X00116068Y00706129D01*
X00113784Y00708003D01*
X00111178Y00709396D01*
X0010835Y00710254D01*
X0010541Y00710544D01*
X00101892D01*
X00098952Y00710254D01*
X00096124Y00709396D01*
X00093518Y00708003D01*
X00091234Y00706129D01*
X00088759Y00703654D01*
X00088298Y00703407D01*
X00086014Y00701533D01*
X00059271Y0067479D01*
X00059271Y0067479D01*
X00049266Y00664785D01*
X00048093Y00665271D01*
Y00692257D01*
X00149088Y00793252D01*
X00150962Y00795536D01*
X00152355Y00798142D01*
X00153213Y00800969D01*
X00153503Y0080391D01*
X00153213Y00806851D01*
X00152355Y00809678D01*
X00150962Y00812284D01*
X00149088Y00814568D01*
X00146804Y00816442D01*
X00144198Y00817835D01*
X0014137Y00818693D01*
X0013843Y00818983D01*
X0013549Y00818693D01*
X00132662Y00817835D01*
X00130056Y00816442D01*
X00127772Y00814568D01*
X00049266Y00736062D01*
X00048093Y00736548D01*
Y0087603D01*
X000585Y00886437D01*
X0005977Y00886255D01*
Y0086114D01*
X00075826D01*
X00089388Y00847578D01*
X00091477Y00845975D01*
X0009391Y00844967D01*
X0009652Y00844624D01*
X00466977D01*
X00469403Y00842762D01*
X00469506Y00842419D01*
Y00841601D01*
X00469403Y00841258D01*
X00466977Y00839396D01*
X0045466D01*
X00452049Y00839053D01*
X00449617Y00838045D01*
X00447528Y00836442D01*
X00438628Y00827542D01*
X00437025Y00825453D01*
X00436017Y0082302D01*
X00435674Y0082041D01*
Y00814883D01*
X00433297Y00812506D01*
X00431454Y00809314D01*
X004305Y00805753D01*
Y00802067D01*
X00431454Y00798506D01*
X00433297Y00795314D01*
X00435904Y00792707D01*
X00439096Y00790864D01*
X00442657Y0078991D01*
X00446343D01*
X00449904Y00790864D01*
X00453096Y00792707D01*
X00455703Y00795314D01*
X00457546Y00798506D01*
X004585Y00802067D01*
Y00805753D01*
X00457546Y00809314D01*
X00455846Y00812258D01*
Y00816232D01*
X00458838Y00819224D01*
X00466977D01*
X0046977Y00817081D01*
X00473175Y0081567D01*
X0047683Y00815189D01*
X0048583D01*
X00489485Y0081567D01*
X0049289Y00817081D01*
X00495815Y00819325D01*
X00498059Y0082225D01*
X0049947Y00825655D01*
X00499951Y0082931D01*
X0049947Y00832965D01*
X00498059Y0083637D01*
X00495815Y00839295D01*
X00493256Y00841258D01*
X00493154Y00841601D01*
Y00842419D01*
X00493256Y00842762D01*
X00495815Y00844725D01*
X00498059Y0084765D01*
X0049947Y00851055D01*
X00499951Y0085471D01*
X0049947Y00858365D01*
X00498059Y0086177D01*
X00495815Y00864695D01*
X0049289Y00866939D01*
X00489485Y0086835D01*
X0048583Y00868831D01*
X0047683D01*
X00473175Y0086835D01*
X0046977Y00866939D01*
X00466977Y00864796D01*
X00169187D01*
X00148516Y00885467D01*
Y00895797D01*
X00149633Y00896914D01*
X00151476Y00900106D01*
X0015243Y00903667D01*
Y00907353D01*
X00151476Y00910914D01*
X00149633Y00914106D01*
X00147026Y00916713D01*
X00143834Y00918556D01*
X00140273Y0091951D01*
X00136587D01*
X00133026Y00918556D01*
X00129834Y00916713D01*
X00127227Y00914106D01*
X00125384Y00910914D01*
X0012443Y00907353D01*
Y00903667D01*
X00125384Y00900106D01*
X00127227Y00896914D01*
X00128344Y00895797D01*
Y00881289D01*
X00128687Y00878679D01*
X00129695Y00876246D01*
X00131298Y00874157D01*
X00139486Y0086597D01*
X00139Y00864796D01*
X00100698D01*
X0009009Y00875404D01*
Y0089146D01*
X00087848D01*
X00087169Y0089273D01*
X00088365Y00894519D01*
X00089507Y00897278D01*
X0009009Y00900207D01*
Y00903193D01*
X00089507Y00906122D01*
X00088365Y00908881D01*
X00086706Y00911364D01*
X00084594Y00913475D01*
X00082111Y00915135D01*
X00079352Y00916277D01*
X00076423Y0091686D01*
X00073437D01*
X0007269Y00916711D01*
X00052386D01*
X00049445Y00916422D01*
X00049113Y00916321D01*
X00048093Y00917077D01*
Y01102181D01*
X00050979Y01105067D01*
X00053447D01*
X00056087Y01102427D01*
Y0109447D01*
X00056123Y01094108D01*
X00056039Y0109347D01*
X0005652Y01089815D01*
X00057931Y0108641D01*
X00060175Y01083485D01*
X00062733Y01081522D01*
X00062836Y01081179D01*
Y01080361D01*
X00062733Y01080018D01*
X00060175Y01078055D01*
X00057931Y0107513D01*
X0005652Y01071725D01*
X00056039Y0106807D01*
X0005652Y01064415D01*
X00057931Y0106101D01*
X00060175Y01058085D01*
X000631Y01055841D01*
X00066505Y0105443D01*
X0007016Y01053949D01*
X0007716D01*
X00080815Y0105443D01*
X0008422Y01055841D01*
X00087013Y01057984D01*
X00092342D01*
X00108024Y01042302D01*
Y0096418D01*
X00107732Y00963675D01*
X0010688Y00960496D01*
Y00957204D01*
X00107732Y00954025D01*
X00109377Y00951175D01*
X00111705Y00948848D01*
X00114555Y00947202D01*
X00117734Y0094635D01*
X00121026D01*
X00124205Y00947202D01*
X00127055Y00948848D01*
X00129382Y00951175D01*
X00131028Y00954025D01*
X0013188Y00957204D01*
Y00960496D01*
X00131028Y00963675D01*
X00129382Y00966525D01*
X00128196Y00967711D01*
Y0104648D01*
X00127853Y0104909D01*
X00126845Y01051523D01*
X00125242Y01053612D01*
X00103652Y01075202D01*
X00101563Y01076805D01*
X0009913Y01077813D01*
X0009652Y01078156D01*
X00087013D01*
X00084586Y01080018D01*
X00084484Y01080361D01*
Y01081179D01*
X00084586Y01081522D01*
X00087145Y01083485D01*
X00089389Y0108641D01*
X000908Y01089815D01*
X00091281Y0109347D01*
X000908Y01097125D01*
X00089389Y0110053D01*
X00087145Y01103455D01*
X00086699Y01103797D01*
X0008713Y01105067D01*
X00152531D01*
X00156417Y01101181D01*
D02*
G37*
G36*
X00370914Y0093919D02*
Y00913673D01*
X00368527Y00911286D01*
X00367665Y00909793D01*
X00366395D01*
X00365533Y00911286D01*
X00364416Y00912403D01*
Y00934352D01*
X0036974Y00939676D01*
X00370914Y0093919D01*
D02*
G37*
%LPC*%
G36*
X004707Y00707389D02*
Y0069977D01*
X00478319D01*
X00477737Y00701941D01*
X00476564Y00703974D01*
X00474904Y00705634D01*
X00472871Y00706807D01*
X004707Y00707389D01*
D02*
G37*
G36*
X0046816D02*
X00465989Y00706807D01*
X00463956Y00705634D01*
X00462296Y00703974D01*
X00461123Y00701941D01*
X00460541Y0069977D01*
X0046816D01*
Y00707389D01*
D02*
G37*
G36*
X00478319Y0069723D02*
X004707D01*
Y00689611D01*
X00472871Y00690192D01*
X00474904Y00691366D01*
X00476564Y00693026D01*
X00477737Y00695059D01*
X00478319Y0069723D01*
D02*
G37*
G36*
X0046816D02*
X00460541D01*
X00461123Y00695059D01*
X00462296Y00693026D01*
X00463956Y00691366D01*
X00465989Y00690192D01*
X0046816Y00689611D01*
Y0069723D01*
D02*
G37*
G36*
X0047197Y00590549D02*
Y0058293D01*
X00479589D01*
X00479007Y00585101D01*
X00477834Y00587134D01*
X00476174Y00588794D01*
X00474141Y00589967D01*
X0047197Y00590549D01*
D02*
G37*
G36*
X00479589Y0058039D02*
X0047197D01*
Y00572771D01*
X00474141Y00573353D01*
X00476174Y00574526D01*
X00477834Y00576186D01*
X00479007Y00578219D01*
X00479589Y0058039D01*
D02*
G37*
G36*
X00107253Y00607871D02*
X00103567D01*
X00100006Y00606917D01*
X00096814Y00605074D01*
X00094207Y00602467D01*
X00092364Y00599275D01*
X0009141Y00595714D01*
Y00592028D01*
X00092364Y00588467D01*
X00094207Y00585275D01*
X00095324Y00584158D01*
Y00548193D01*
X00092937Y00545806D01*
X00091094Y00542614D01*
X0009014Y00539053D01*
Y00535367D01*
X00091094Y00531806D01*
X00092937Y00528614D01*
X00095544Y00526007D01*
X00098736Y00524164D01*
X00102297Y0052321D01*
X00105983D01*
X00109544Y00524164D01*
X00112736Y00526007D01*
X00115343Y00528614D01*
X00117186Y00531806D01*
X0011814Y00535367D01*
Y00539053D01*
X00117186Y00542614D01*
X00115496Y0054554D01*
Y00584158D01*
X00116613Y00585275D01*
X00118456Y00588467D01*
X0011941Y00592028D01*
Y00595714D01*
X00118456Y00599275D01*
X00116613Y00602467D01*
X00114006Y00605074D01*
X00110814Y00606917D01*
X00107253Y00607871D01*
D02*
G37*
G36*
X0018328Y00804003D02*
X0016978D01*
X00167887Y00803753D01*
X00166124Y00803023D01*
X00164609Y00801861D01*
X00163447Y00800346D01*
X00162717Y00798583D01*
X00162467Y0079669D01*
Y0078319D01*
X00162717Y00781297D01*
X00163447Y00779534D01*
X00164609Y00778019D01*
X00166124Y00776857D01*
X00167887Y00776127D01*
X0016978Y00775878D01*
X0018328D01*
X00185173Y00776127D01*
X00186936Y00776857D01*
X00188451Y00778019D01*
X00189613Y00779534D01*
X00189943Y00780332D01*
X00191441Y0078063D01*
X00193114Y00778957D01*
Y00437248D01*
X0017615Y00420284D01*
X00175134Y00421064D01*
X00176746Y00423856D01*
X001777Y00427417D01*
Y00431103D01*
X00176746Y00434664D01*
X00174903Y00437856D01*
X00172296Y00440463D01*
X00170803Y00441325D01*
Y00442595D01*
X00172296Y00443457D01*
X00174903Y00446064D01*
X00176746Y00449256D01*
X001777Y00452817D01*
Y00456503D01*
X00176746Y00460064D01*
X00174903Y00463256D01*
X00172296Y00465863D01*
X00170803Y00466725D01*
Y00467995D01*
X00172296Y00468857D01*
X00174903Y00471464D01*
X00176746Y00474656D01*
X001777Y00478217D01*
Y00481903D01*
X00176746Y00485464D01*
X00174903Y00488656D01*
X00172296Y00491263D01*
X00170803Y00492125D01*
Y00493395D01*
X00172296Y00494257D01*
X00174903Y00496864D01*
X00176746Y00500056D01*
X001777Y00503617D01*
Y00507303D01*
X00176746Y00510864D01*
X00174903Y00514056D01*
X00172296Y00516663D01*
X00170803Y00517525D01*
Y00518795D01*
X00172296Y00519657D01*
X00174903Y00522264D01*
X00176746Y00525456D01*
X001777Y00529017D01*
Y00532703D01*
X00176746Y00536264D01*
X00174903Y00539456D01*
X00172296Y00542063D01*
X00170803Y00542925D01*
Y00544195D01*
X00172296Y00545057D01*
X00174903Y00547664D01*
X00176746Y00550856D01*
X001777Y00554417D01*
Y00558103D01*
X00176746Y00561664D01*
X00174903Y00564856D01*
X00172296Y00567463D01*
X00170803Y00568325D01*
Y00569595D01*
X00172296Y00570457D01*
X00174903Y00573064D01*
X00176746Y00576256D01*
X001777Y00579817D01*
Y00583503D01*
X00176746Y00587064D01*
X00174903Y00590256D01*
X00172296Y00592863D01*
X00170803Y00593725D01*
Y00594995D01*
X00172296Y00595857D01*
X00174903Y00598464D01*
X00176746Y00601656D01*
X001777Y00605217D01*
Y00608903D01*
X00176746Y00612464D01*
X00174903Y00615656D01*
X00172296Y00618263D01*
X00170803Y00619125D01*
Y00620395D01*
X00172296Y00621257D01*
X00174903Y00623864D01*
X00176746Y00627056D01*
X001777Y00630617D01*
Y00634303D01*
X00176746Y00637864D01*
X00174903Y00641056D01*
X0017301Y00642949D01*
X00173308Y00644447D01*
X00174106Y00644777D01*
X00175621Y00645939D01*
X00176783Y00647454D01*
X00177513Y00649217D01*
X00177763Y0065111D01*
Y0066461D01*
X00177513Y00666503D01*
X00176783Y00668266D01*
X00175621Y00669781D01*
X00174106Y00670943D01*
X00172343Y00671673D01*
X0017045Y00671923D01*
X0015695D01*
X00155057Y00671673D01*
X00153294Y00670943D01*
X00151779Y00669781D01*
X00150617Y00668266D01*
X00149887Y00666503D01*
X00149637Y0066461D01*
Y0065111D01*
X00149887Y00649217D01*
X00150617Y00647454D01*
X00151779Y00645939D01*
X00153294Y00644777D01*
X00154092Y00644447D01*
X0015439Y00642949D01*
X00152497Y00641056D01*
X00150654Y00637864D01*
X001497Y00634303D01*
Y00630617D01*
X00150654Y00627056D01*
X00152497Y00623864D01*
X00155104Y00621257D01*
X00156597Y00620395D01*
Y00619125D01*
X00155104Y00618263D01*
X00152497Y00615656D01*
X00150654Y00612464D01*
X001497Y00608903D01*
Y00605217D01*
X00150654Y00601656D01*
X00152497Y00598464D01*
X00155104Y00595857D01*
X00156597Y00594995D01*
Y00593725D01*
X00155104Y00592863D01*
X00152497Y00590256D01*
X00150654Y00587064D01*
X001497Y00583503D01*
Y00579817D01*
X00150654Y00576256D01*
X00152497Y00573064D01*
X00155104Y00570457D01*
X00156597Y00569595D01*
Y00568325D01*
X00155104Y00567463D01*
X00152497Y00564856D01*
X00150654Y00561664D01*
X001497Y00558103D01*
Y00554417D01*
X00150654Y00550856D01*
X00152497Y00547664D01*
X00155104Y00545057D01*
X00156597Y00544195D01*
Y00542925D01*
X00155104Y00542063D01*
X00152497Y00539456D01*
X00150654Y00536264D01*
X001497Y00532703D01*
Y00529017D01*
X00150654Y00525456D01*
X00152497Y00522264D01*
X00155104Y00519657D01*
X00156597Y00518795D01*
Y00517525D01*
X00155104Y00516663D01*
X00152497Y00514056D01*
X00150654Y00510864D01*
X001497Y00507303D01*
Y00503617D01*
X00150654Y00500056D01*
X00152497Y00496864D01*
X00155104Y00494257D01*
X00156597Y00493395D01*
Y00492125D01*
X00155104Y00491263D01*
X00152497Y00488656D01*
X00150654Y00485464D01*
X001497Y00481903D01*
Y00478217D01*
X00150654Y00474656D01*
X00152497Y00471464D01*
X00155104Y00468857D01*
X00156597Y00467995D01*
Y00466725D01*
X00155104Y00465863D01*
X00152497Y00463256D01*
X00150654Y00460064D01*
X001497Y00456503D01*
Y00452817D01*
X00150654Y00449256D01*
X00152497Y00446064D01*
X00155104Y00443457D01*
X00156597Y00442595D01*
Y00441325D01*
X00155104Y00440463D01*
X00152497Y00437856D01*
X00150654Y00434664D01*
X001497Y00431103D01*
Y00427417D01*
X00150654Y00423856D01*
X00152497Y00420664D01*
X00155104Y00418057D01*
X00156597Y00417195D01*
Y00415925D01*
X00155104Y00415063D01*
X00152497Y00412456D01*
X00150654Y00409264D01*
X001497Y00405703D01*
Y00402017D01*
X00150654Y00398456D01*
X00152497Y00395264D01*
X00155104Y00392657D01*
X00156597Y00391795D01*
Y00390525D01*
X00155104Y00389663D01*
X00152497Y00387056D01*
X00150654Y00383864D01*
X001497Y00380303D01*
Y00376617D01*
X00150654Y00373056D01*
X00152497Y00369864D01*
X00155104Y00367257D01*
X00156597Y00366395D01*
Y00365125D01*
X00155104Y00364263D01*
X00152497Y00361656D01*
X00150654Y00358464D01*
X001497Y00354903D01*
Y00351217D01*
X00150654Y00347656D01*
X00152497Y00344464D01*
X00155104Y00341857D01*
X00158296Y00340014D01*
X00161857Y0033906D01*
X00165543D01*
X00169104Y00340014D01*
X00172296Y00341857D01*
X00173413Y00342974D01*
X0020574D01*
X00208351Y00343317D01*
X00210783Y00344325D01*
X00212872Y00345928D01*
X0025798Y00391036D01*
X00259154Y0039055D01*
Y003683D01*
X00259497Y0036569D01*
X00260505Y00363257D01*
X00262108Y00361168D01*
X00349738Y00273538D01*
X00392504Y00230772D01*
Y0018796D01*
X00392847Y0018535D01*
X00393855Y00182917D01*
X00395458Y00180828D01*
X00423993Y00152293D01*
Y00140898D01*
X00423381Y001401D01*
X0042197Y00136695D01*
X00421489Y0013304D01*
Y0012604D01*
X0042197Y00122385D01*
X00423381Y0011898D01*
X00425625Y00116055D01*
X0042855Y00113811D01*
X00431955Y001124D01*
X0043561Y00111919D01*
X00439265Y001124D01*
X0044267Y00113811D01*
X00445595Y00116055D01*
X00447558Y00118614D01*
X00447901Y00118716D01*
X00448719D01*
X00449062Y00118614D01*
X00451025Y00116055D01*
X0045395Y00113811D01*
X00457355Y001124D01*
X0046101Y00111919D01*
X00464665Y001124D01*
X0046807Y00113811D01*
X00470995Y00116055D01*
X00472958Y00118614D01*
X00473301Y00118716D01*
X00474119D01*
X00474462Y00118614D01*
X00476425Y00116055D01*
X0047935Y00113811D01*
X00482755Y001124D01*
X0048641Y00111919D01*
X00490065Y001124D01*
X0049347Y00113811D01*
X00496395Y00116055D01*
X00498639Y0011898D01*
X0050005Y00122385D01*
X00500531Y0012604D01*
Y0013304D01*
X0050005Y00136695D01*
X00498639Y001401D01*
X00496395Y00143025D01*
X0049347Y00145269D01*
X00490065Y0014668D01*
X00488268Y00146916D01*
X00487606Y00147578D01*
Y0016637D01*
X00487263Y00168981D01*
X00486255Y00171413D01*
X00484652Y00173502D01*
X00447996Y00210158D01*
Y00262859D01*
X00471952Y00286815D01*
X00473555Y00288904D01*
X00474563Y00291336D01*
X00474906Y00293947D01*
Y00539573D01*
X00474563Y00542184D01*
X00473555Y00544616D01*
X00471952Y00546705D01*
X00462206Y00556451D01*
Y00576002D01*
X00463476Y00576342D01*
X00463566Y00576186D01*
X00465226Y00574526D01*
X00467259Y00573353D01*
X0046943Y00572771D01*
Y0058166D01*
Y00590549D01*
X00467259Y00589967D01*
X00465226Y00588794D01*
X00463566Y00587134D01*
X00463476Y00586978D01*
X00462206Y00587318D01*
Y00609458D01*
X00461863Y00612068D01*
X00460855Y00614501D01*
X00459252Y0061659D01*
X00441083Y00634759D01*
X00440439Y00635253D01*
X0043874Y00636952D01*
X00438496Y00637864D01*
X00436653Y00641056D01*
X0043476Y00642949D01*
X00435058Y00644447D01*
X00435856Y00644777D01*
X00437371Y00645939D01*
X00438533Y00647454D01*
X00439263Y00649217D01*
X00439512Y0065111D01*
Y0066461D01*
X00439263Y00666503D01*
X00438533Y00668266D01*
X00437371Y00669781D01*
X00435856Y00670943D01*
X00434093Y00671673D01*
X004322Y00671923D01*
X004187D01*
X00416807Y00671673D01*
X00415044Y00670943D01*
X00413529Y00669781D01*
X00412367Y00668266D01*
X00411637Y00666503D01*
X00411387Y0066461D01*
Y0065111D01*
X00411637Y00649217D01*
X00412367Y00647454D01*
X00413529Y00645939D01*
X00415044Y00644777D01*
X0041583Y00644451D01*
X00415578Y00643181D01*
X00409128D01*
X00407376Y00644933D01*
X00404184Y00646776D01*
X00400623Y0064773D01*
X00396937D01*
X00393376Y00646776D01*
X00391136Y00645483D01*
X00389866Y00646216D01*
Y00662622D01*
X00413532Y00686288D01*
X00415135Y00688377D01*
X00416143Y00690809D01*
X00416486Y0069342D01*
Y0078161D01*
X00418176Y00784536D01*
X0041913Y00788097D01*
Y00791783D01*
X00418176Y00795344D01*
X00416333Y00798536D01*
X00413726Y00801143D01*
X00410534Y00802986D01*
X00406973Y0080394D01*
X00403287D01*
X00399726Y00802986D01*
X00396534Y00801143D01*
X00393927Y00798536D01*
X00393065Y00797043D01*
X00391795D01*
X00390933Y00798536D01*
X00388326Y00801143D01*
X00385134Y00802986D01*
X00381573Y0080394D01*
X00377887D01*
X00374326Y00802986D01*
X00371134Y00801143D01*
X00368527Y00798536D01*
X00367665Y00797043D01*
X00366395D01*
X00365533Y00798536D01*
X00362926Y00801143D01*
X00359734Y00802986D01*
X00356173Y0080394D01*
X00352487D01*
X00348926Y00802986D01*
X00345734Y00801143D01*
X00343127Y00798536D01*
X00342265Y00797043D01*
X00340995D01*
X00340133Y00798536D01*
X00337526Y00801143D01*
X00334334Y00802986D01*
X00330773Y0080394D01*
X00327087D01*
X00323526Y00802986D01*
X00320334Y00801143D01*
X00317727Y00798536D01*
X00315884Y00795344D01*
X0031493Y00791783D01*
Y00788097D01*
X00315884Y00784536D01*
X00317727Y00781344D01*
X00318844Y00780227D01*
Y0044811D01*
X00319187Y00445499D01*
X00320195Y00443067D01*
X00321798Y00440978D01*
X00399318Y00363458D01*
X00399318Y00363458D01*
X0041145Y00351326D01*
Y00351217D01*
X00412404Y00347656D01*
X00414247Y00344464D01*
X00416854Y00341857D01*
X00420046Y00340014D01*
X00423607Y0033906D01*
X00427293D01*
X00430854Y00340014D01*
X00434046Y00341857D01*
X00436594Y00344405D01*
X00436964Y0034438D01*
X00437864Y00344139D01*
Y00311581D01*
X00436964Y0031134D01*
X00436594Y00311315D01*
X00434046Y00313863D01*
X00430854Y00315706D01*
X00427293Y0031666D01*
X00423607D01*
X00420046Y00315706D01*
X00416854Y00313863D01*
X00415737Y00312746D01*
X0040553D01*
X0040292Y00312403D01*
X00400487Y00311395D01*
X00398398Y00309792D01*
X00379362Y00290756D01*
X00361048D01*
X00279326Y00372478D01*
Y00534302D01*
X00289533Y00544509D01*
X00291776Y00543214D01*
X00295337Y0054226D01*
X00299023D01*
X00302584Y00543214D01*
X00305776Y00545057D01*
X00308383Y00547664D01*
X00310226Y00550856D01*
X0031118Y00554417D01*
Y00558103D01*
X00310226Y00561664D01*
X00308383Y00564856D01*
X00305776Y00567463D01*
X00302584Y00569306D01*
X00299023Y0057026D01*
X00295337D01*
X00291776Y00569306D01*
X00288584Y00567463D01*
X00285977Y00564856D01*
X00285921Y00564759D01*
X00285433D01*
X00282822Y00564415D01*
X00280596Y00563493D01*
X00279326Y00564004D01*
Y00616852D01*
X00286118Y00623644D01*
X00287467D01*
X00288584Y00622527D01*
X00291776Y00620684D01*
X00295337Y0061973D01*
X00299023D01*
X00302584Y00620684D01*
X00305776Y00622527D01*
X00308383Y00625134D01*
X00310226Y00628326D01*
X0031118Y00631887D01*
Y00635573D01*
X00310226Y00639134D01*
X00308383Y00642326D01*
X00305776Y00644933D01*
X00302584Y00646776D01*
X00299023Y0064773D01*
X00295337D01*
X00291776Y00646776D01*
X00288584Y00644933D01*
X00287467Y00643816D01*
X0028194D01*
X00280596Y00643639D01*
X00279326Y00644753D01*
Y00723532D01*
X00286532Y00730738D01*
X00288135Y00732827D01*
X00289143Y00735259D01*
X00289486Y0073787D01*
Y0078161D01*
X00291176Y00784536D01*
X0029213Y00788097D01*
Y00791783D01*
X00291176Y00795344D01*
X00289333Y00798536D01*
X00286726Y00801143D01*
X00283534Y00802986D01*
X00279973Y0080394D01*
X00276287D01*
X00272726Y00802986D01*
X00269534Y00801143D01*
X00266927Y00798536D01*
X00266065Y00797043D01*
X00264795D01*
X00263933Y00798536D01*
X00261326Y00801143D01*
X00258134Y00802986D01*
X00254573Y0080394D01*
X00250887D01*
X00247326Y00802986D01*
X00244134Y00801143D01*
X00241527Y00798536D01*
X00240665Y00797043D01*
X00239395D01*
X00238533Y00798536D01*
X00235926Y00801143D01*
X00232734Y00802986D01*
X00229173Y0080394D01*
X00225487D01*
X00221926Y00802986D01*
X00218734Y00801143D01*
X00216127Y00798536D01*
X00215265Y00797043D01*
X00213995D01*
X00213133Y00798536D01*
X00210526Y00801143D01*
X00207334Y00802986D01*
X00203773Y0080394D01*
X00200087D01*
X00196526Y00802986D01*
X00193334Y00801143D01*
X00191441Y0079925D01*
X00189943Y00799548D01*
X00189613Y00800346D01*
X00188451Y00801861D01*
X00186936Y00803023D01*
X00185173Y00803753D01*
X0018328Y00804003D01*
D02*
G37*
%LPD*%
G36*
X00266927Y00781344D02*
X00269314Y00778957D01*
Y00742048D01*
X0026399Y00736724D01*
X00262816Y0073721D01*
Y00780227D01*
X00263933Y00781344D01*
X00264795Y00782837D01*
X00266065D01*
X00266927Y00781344D01*
D02*
G37*
G36*
X00343127D02*
X00344244Y00780227D01*
Y00717918D01*
X0034019Y00713864D01*
X00339016Y0071435D01*
Y00780227D01*
X00340133Y00781344D01*
X00340995Y00782837D01*
X00342265D01*
X00343127Y00781344D01*
D02*
G37*
G36*
X00368527D02*
X00370914Y00778957D01*
Y00714108D01*
X00356185Y0069938D01*
X00354807Y00699798D01*
X00354781Y00699927D01*
X00361462Y00706608D01*
X00363065Y00708697D01*
X00364073Y0071113D01*
X00364416Y0071374D01*
Y00780227D01*
X00365533Y00781344D01*
X00366395Y00782837D01*
X00367665D01*
X00368527Y00781344D01*
D02*
G37*
G36*
X00393927D02*
X00396314Y00778957D01*
Y00697598D01*
X00372648Y00673932D01*
X00372036Y00673135D01*
X00370766Y00673566D01*
Y00685432D01*
X00388132Y00702798D01*
X00389735Y00704887D01*
X00390743Y00707319D01*
X00391086Y0070993D01*
Y0078161D01*
X00391795Y00782837D01*
X00393065D01*
X00393927Y00781344D01*
D02*
G37*
G36*
X00416854Y00621257D02*
X00418347Y00620395D01*
Y00619125D01*
X00416854Y00618263D01*
X00414247Y00615656D01*
X00412404Y00612464D01*
X0041145Y00608903D01*
Y00605217D01*
X00412404Y00601656D01*
X00414247Y00598464D01*
X00416854Y00595857D01*
X00418347Y00594995D01*
Y00593725D01*
X00416854Y00592863D01*
X00414247Y00590256D01*
X00412404Y00587064D01*
X0041145Y00583503D01*
Y00579817D01*
X00412404Y00576256D01*
X00414247Y00573064D01*
X00416854Y00570457D01*
X00418347Y00569595D01*
Y00568325D01*
X00416854Y00567463D01*
X00415737Y00566346D01*
X00408493D01*
X00407376Y00567463D01*
X00404184Y00569306D01*
X00400623Y0057026D01*
X00396937D01*
X00393376Y00569306D01*
X00391136Y00568013D01*
X00389866Y00568746D01*
Y00621244D01*
X00391136Y00621977D01*
X00393376Y00620684D01*
X00396937Y0061973D01*
X00400623D01*
X00404184Y00620684D01*
X00407376Y00622527D01*
X00407858Y00623009D01*
X00415102D01*
X00416854Y00621257D01*
D02*
G37*
G36*
X00442034Y0060528D02*
Y0055707D01*
X0044086Y00556584D01*
X0043945Y00557994D01*
Y00558103D01*
X00438496Y00561664D01*
X00436653Y00564856D01*
X00434046Y00567463D01*
X00432553Y00568325D01*
Y00569595D01*
X00434046Y00570457D01*
X00436653Y00573064D01*
X00438496Y00576256D01*
X0043945Y00579817D01*
Y00583503D01*
X00438496Y00587064D01*
X00436653Y00590256D01*
X00434046Y00592863D01*
X00432553Y00593725D01*
Y00594995D01*
X00434046Y00595857D01*
X00436653Y00598464D01*
X00438496Y00601656D01*
X0043945Y00605217D01*
Y00606204D01*
X00440623Y0060669D01*
X00442034Y0060528D01*
D02*
G37*
G36*
X00416854Y00545057D02*
X00418347Y00544195D01*
Y00542925D01*
X00416854Y00542063D01*
X00414247Y00539456D01*
X00412404Y00536264D01*
X0041145Y00532703D01*
Y00529017D01*
X00412404Y00525456D01*
X00414247Y00522264D01*
X00416854Y00519657D01*
X00418347Y00518795D01*
Y00517525D01*
X00416854Y00516663D01*
X00414247Y00514056D01*
X00412404Y00510864D01*
X0041145Y00507303D01*
Y00503617D01*
X00412404Y00500056D01*
X00414247Y00496864D01*
X00416854Y00494257D01*
X00418347Y00493395D01*
Y00492125D01*
X00416854Y00491263D01*
X00414247Y00488656D01*
X00412404Y00485464D01*
X0041145Y00481903D01*
Y00478217D01*
X00412404Y00474656D01*
X00414247Y00471464D01*
X00416854Y00468857D01*
X00418347Y00467995D01*
Y00466725D01*
X00416854Y00465863D01*
X00414247Y00463256D01*
X00412404Y00460064D01*
X00411735Y00457565D01*
X00410318Y00457186D01*
X00389866Y00477638D01*
Y00543774D01*
X00391136Y00544507D01*
X00393376Y00543214D01*
X00396937Y0054226D01*
X00400623D01*
X00404184Y00543214D01*
X00407376Y00545057D01*
X00408493Y00546174D01*
X00415737D01*
X00416854Y00545057D01*
D02*
G37*
G36*
X00216127Y00781344D02*
X00217244Y00780227D01*
Y00420738D01*
X00185052Y00388546D01*
X00173413D01*
X00172296Y00389663D01*
X00170803Y00390525D01*
Y00391795D01*
X00172296Y00392657D01*
X00174903Y00395264D01*
X00174926Y00395304D01*
X00175521D01*
X00178131Y00395648D01*
X00180564Y00396656D01*
X00182653Y00398259D01*
X00210332Y00425938D01*
X00211935Y00428027D01*
X00212943Y0043046D01*
X00213286Y0043307D01*
Y0078161D01*
X00213995Y00782837D01*
X00215265D01*
X00216127Y00781344D01*
D02*
G37*
G36*
X00241527D02*
X00242644Y00780227D01*
Y00404228D01*
X00201562Y00363146D01*
X00173413D01*
X00172296Y00364263D01*
X00170803Y00365125D01*
Y00366395D01*
X00172296Y00367257D01*
X00173413Y00368374D01*
X0018923D01*
X0019184Y00368717D01*
X00194273Y00369725D01*
X00196362Y00371328D01*
X00234462Y00409428D01*
X00236065Y00411517D01*
X00237073Y0041395D01*
X00237416Y0041656D01*
Y00780227D01*
X00238533Y00781344D01*
X00239395Y00782837D01*
X00240665D01*
X00241527Y00781344D01*
D02*
G37*
G36*
X00416854Y00291457D02*
X00420046Y00289614D01*
X00422545Y00288945D01*
X00422924Y00287528D01*
X00413238Y00277842D01*
X00411635Y00275753D01*
X00410627Y00273321D01*
X00410284Y0027071D01*
Y00243316D01*
X00409014Y0024279D01*
X00382394Y0026941D01*
X0038288Y00270584D01*
X0038354D01*
X00386151Y00270927D01*
X00388583Y00271935D01*
X00390672Y00273538D01*
X00409708Y00292574D01*
X00415737D01*
X00416854Y00291457D01*
D02*
G37*
G36*
X00450924Y00155842D02*
Y00142893D01*
X00449062Y00140466D01*
X00448719Y00140364D01*
X00447901D01*
X00447558Y00140466D01*
X00445595Y00143025D01*
X00444166Y00144122D01*
Y00156471D01*
X00443822Y00159081D01*
X00442814Y00161514D01*
X00441211Y00163603D01*
X00413538Y00191276D01*
X00413564Y00191406D01*
X00414942Y00191824D01*
X00450924Y00155842D01*
D02*
G37*
D10*
X0056134Y0054102D02*
Y0061722D01*
X005207Y0058166D02*
X0056134Y0054102D01*
Y00326928D02*
Y0054102D01*
Y0066421D02*
Y0107823D01*
Y0062357D02*
Y0066421D01*
X0051943Y006985D02*
X0055372Y0066421D01*
X0056134D01*
X0048006Y0109874D02*
X00485404D01*
X00381Y0109728D02*
X0038831D01*
X0048535Y0023368D02*
Y00250938D01*
X0027686Y0109707D02*
X0028046D01*
X0009985Y0012494D02*
Y0012954D01*
Y0012494D02*
X0010795Y0011684D01*
X0051943Y0112014D02*
X0056134Y0107823D01*
X0051435Y0006477D02*
X0056134Y0011176D01*
Y00326928D01*
X00125524Y0006477D02*
X0051435D01*
X0010795Y00082344D02*
Y0011684D01*
X0028046Y0109707D02*
X0030353Y0112014D01*
X0048535Y00250938D02*
X0056134Y00326928D01*
X0011245Y0012494D02*
X0011705Y0012954D01*
X0010795Y00082344D02*
X00125524Y0006477D01*
X0030353Y0112014D02*
X0030703D01*
X0041117D01*
X00485404Y0109874D02*
X0050292Y01116256D01*
X0038831Y0109728D02*
X0041117Y0112014D01*
X0050292D01*
Y01116256D02*
Y0112014D01*
X0051943D01*
D11*
X0045212Y00552273D02*
X0046482Y00539573D01*
Y00293947D02*
Y00539573D01*
X0044795Y0029829D02*
Y0053523D01*
X0042037Y0027071D02*
X0044795Y0029829D01*
X0042692Y0055626D02*
X0044795Y0053523D01*
X0043791Y00267037D02*
X0046482Y00293947D01*
X0045212Y00552273D02*
Y00609458D01*
X0039878Y0055626D02*
X0042692D01*
X0032893Y0090523D02*
X003302Y0090396D01*
X0013843Y00881289D02*
Y0090551D01*
X0009652Y0085471D02*
X00165009D01*
X0048133D01*
X0013843Y00881289D02*
X00165009Y0085471D01*
X0007493Y008763D02*
X0009652Y0085471D01*
X0040645Y0044679D02*
Y0044679D01*
X0037978Y0047346D02*
Y006668D01*
Y0047346D02*
X0040645Y0044679D01*
X0042037Y0020066D02*
X0046101Y0016002D01*
X0042037Y0020066D02*
Y0027071D01*
X0043791Y0020598D02*
Y00267037D01*
Y0020598D02*
X0047752Y0016637D01*
X0040259Y0018796D02*
Y0023495D01*
X0035687Y0028067D02*
X0040259Y0023495D01*
Y0018796D02*
X00434079Y00156471D01*
Y00131071D02*
Y00156471D01*
X0026924Y003683D02*
X0035687Y0028067D01*
X0038354D02*
X0040553Y0030266D01*
X0035687Y0028067D02*
X0038354D01*
X0040553Y0030266D02*
X0042545D01*
X0047752Y001434D02*
Y0016637D01*
X0046101Y0012954D02*
Y0016002D01*
X00434079Y00131071D02*
X0043561Y0012954D01*
X001637Y0035306D02*
X0020574D01*
X0025273Y0040005D02*
Y0078994D01*
X0020574Y0035306D02*
X0025273Y0040005D01*
X001637Y0037846D02*
X0018923D01*
X0022733Y0041656D02*
Y0078994D01*
X0018923Y0037846D02*
X0022733Y0041656D01*
X00433951Y00627627D02*
X0045212Y00609458D01*
X0009652Y0106807D02*
X0011811Y0104648D01*
X00118423Y00959807D02*
X0011938Y0095885D01*
X00118423Y00959807D02*
Y00963342D01*
X0011811Y00963655D02*
X00118423Y00963342D01*
X0011811Y00963655D02*
Y0104648D01*
X0025019Y0097536D02*
Y0104637D01*
Y0097536D02*
X0028575Y009398D01*
X0019685Y0093726D02*
Y0102732D01*
X0022333Y00908855D02*
X0022733Y00904855D01*
X0022333Y00908855D02*
Y0091078D01*
X0019685Y0093726D02*
X0022333Y0091078D01*
X0022733Y0090269D02*
Y00904855D01*
X0021185Y0094504D02*
Y0103772D01*
Y0094504D02*
X0025273Y0090416D01*
Y0090269D02*
Y0090416D01*
X00174622Y00936628D02*
Y00958218D01*
X0019793Y00908855D02*
Y0091332D01*
X00174622Y00936628D02*
X0019793Y0091332D01*
Y00908855D02*
X0020193Y00904855D01*
Y0090269D02*
Y00904855D01*
X0027189Y0106807D02*
X0027686D01*
X0025019Y0104637D02*
X0027189Y0106807D01*
X0017896Y0104521D02*
X0019685Y0102732D01*
X0017896Y0107061D02*
X0021185Y0103772D01*
X0017399Y0104521D02*
X0017896D01*
X0017399Y0107061D02*
X0017896D01*
X0017399Y0095885D02*
X00174622Y00958218D01*
X00440878Y0106807D02*
X0048133D01*
X00428026Y01055218D02*
X00440878Y0106807D01*
X0007366D02*
X0009652D01*
X00428026Y00989365D02*
Y01055218D01*
X00381Y0094234D02*
X00428026Y00989365D01*
X00479799Y01066539D02*
X0048133Y0106807D01*
X002032Y0043307D02*
Y0078867D01*
X001637Y0040386D02*
X00165231Y00405391D01*
X00175521D01*
X002032Y0043307D01*
X0037978Y006668D02*
X004064Y0069342D01*
X0042398Y0042926D02*
X0042545D01*
X0040645Y0044679D02*
X0042398Y0042926D01*
X0048641Y0012954D02*
Y0013451D01*
X0047752Y001434D02*
X0048641Y0013451D01*
X0026924Y0053848D02*
X0026924D01*
X0026924Y003683D02*
Y0053848D01*
Y0062103D01*
X00295593Y00554673D02*
X0029718Y0055626D01*
X0026924Y0072771D02*
X002794Y0073787D01*
X0026924Y0062103D02*
Y0072771D01*
X00285433Y00554673D02*
X00295593D01*
X0029718Y0063373D02*
X0029718Y0063373D01*
X0028194Y0063373D02*
X0029718D01*
X0026924Y0053848D02*
X00285433Y00554673D01*
X0026924Y0062103D02*
X0028194Y0063373D01*
X0035433Y0093853D02*
X0041275Y0099695D01*
X00395767Y01066003D02*
X0041275Y0104902D01*
Y0099695D02*
Y0104902D01*
X00381Y0106807D02*
X00383067Y01066003D01*
X00395767D01*
X0040645Y0042139D02*
Y0042139D01*
X0036068Y0046716D02*
Y0068961D01*
Y0046716D02*
X0040645Y0042139D01*
Y0042139D02*
X0042398Y0040386D01*
X0040645Y0037059D02*
Y0037059D01*
X0032893Y0044811D02*
Y0078994D01*
Y0044811D02*
X0040645Y0037059D01*
X004064Y0069342D02*
Y0078867D01*
X00381Y0070993D02*
Y0078867D01*
X0036068Y0068961D02*
X00381Y0070993D01*
X0034393Y0070334D02*
X0035433Y0071374D01*
X0034393Y0045851D02*
Y0070334D01*
X0035433Y0071374D02*
Y0078994D01*
X0034393Y0045851D02*
X0042398Y0037846D01*
Y0040386D02*
X0042545D01*
X0042398Y0037846D02*
X0042545D01*
X0042398Y0035306D02*
X0042545D01*
X0040645Y0037059D02*
X0042398Y0035306D01*
X0035433Y0090269D02*
Y0093853D01*
X0037973Y0090269D02*
X00381Y0090396D01*
Y0094234D01*
X0020193Y0078994D02*
X002032Y0078867D01*
X0027813Y0078994D02*
X002794Y0078867D01*
Y0073787D02*
Y0078867D01*
X0037973Y0078994D02*
X00381Y0078867D01*
X0040513Y0078994D02*
X004064Y0078867D01*
X0042545Y0063246D02*
X00428968D01*
X00433801Y00627627D01*
X00433951D01*
X0032893Y0090523D02*
Y0093726D01*
Y0090269D02*
X003302Y0090396D01*
X0045466Y0082931D02*
X0048133D01*
X0044576Y0082041D02*
X0045466Y0082931D01*
X004445Y0080391D02*
X0044576Y0080517D01*
Y0082041D01*
X0040513Y0090269D02*
X0040654Y009041D01*
X0044309D01*
X004445Y0090551D01*
X0010414Y0053721D02*
X0010541Y0053848D01*
Y00593871D01*
X0039878Y0063373D02*
X00399415Y00633095D01*
X00424815D01*
X0042545Y0063246D01*
D12*
X0003302Y0025019D02*
X0008509Y0030226D01*
X001633D02*
X001637Y0030266D01*
X0008509Y0030226D02*
X001633D01*
X0003302Y0016987D02*
X0006985Y0013304D01*
X0005969Y0112014D02*
X00158774D01*
X0003302Y00882273D02*
Y01108424D01*
X00074869Y00901639D02*
X0007493Y009017D01*
X00052386Y00901639D02*
X00074869D01*
X0007116Y0109447D02*
X0007216Y0109347D01*
X0007116Y0109447D02*
Y0110867D01*
X0005969Y0112014D02*
X0007116Y0110867D01*
X0007216Y0109347D02*
X0007366D01*
X0005969Y0112014D02*
Y0112014D01*
X00158774D02*
X0017149Y01107424D01*
Y0109701D02*
X0017249Y0109601D01*
X0017149Y0109701D02*
Y01107424D01*
X0017249Y0109601D02*
X0017399D01*
X00044736Y0112014D02*
X0005969D01*
X0003302Y01108424D02*
X00044736Y0112014D01*
X0003302Y006985D02*
Y00882273D01*
X00052386Y00901639D01*
X0003302Y006985D02*
X0013843Y0080391D01*
X0003302Y00627223D02*
Y006985D01*
Y0025019D02*
Y00627223D01*
X00069928Y00664132D01*
X0003302Y001905D02*
Y0025019D01*
Y0016987D02*
Y001905D01*
X0007239Y0022987D01*
X0006985Y0012954D02*
Y0013304D01*
X00069928Y00664132D02*
X00096672Y00690875D01*
X00069928Y00664132D02*
X00069928D01*
X00101892Y00695471D02*
X0010541D01*
X00097296Y00690875D02*
X00101892Y00695471D01*
X00096672Y00690875D02*
X00097296D01*
D13*
X0022935Y0109041D02*
X002667Y0112776D01*
X0029941D02*
X0030703Y0112014D01*
X002667Y0112776D02*
X0029941D01*
X0022935Y0096064D02*
Y0109041D01*
Y0096064D02*
X00277556Y00912434D01*
Y00903264D02*
Y00912434D01*
D14*
X004707Y0058166D02*
D03*
X0046943Y006985D02*
D03*
D15*
X005207Y0058166D02*
D03*
X0051943Y006985D02*
D03*
D16*
X0003556Y0117094D02*
D03*
Y0003556D02*
D03*
X0056769D02*
D03*
X0056642Y0116967D02*
D03*
D17*
X0007239Y0022987D02*
D03*
X0048895Y0023368D02*
D03*
X0007493Y009017D02*
D03*
D18*
X0009779Y0022987D02*
D03*
X0006985Y0012954D02*
D03*
X0009525D02*
D03*
X0017145D02*
D03*
X0014605D02*
D03*
X0012065D02*
D03*
X0030353Y0090269D02*
D03*
Y0078994D02*
D03*
X0007874Y00537208D02*
D03*
X0051435Y0023368D02*
D03*
X0043561Y0012954D02*
D03*
X0051181D02*
D03*
X0048641D02*
D03*
X0046101D02*
D03*
D19*
X0048133Y0104267D02*
D03*
Y0106807D02*
D03*
Y0109347D02*
D03*
X001637Y0032766D02*
D03*
X0042545D02*
D03*
X0027686Y0104267D02*
D03*
Y0106807D02*
D03*
Y0109347D02*
D03*
X00381Y0104267D02*
D03*
Y0106807D02*
D03*
Y0109347D02*
D03*
X0017399Y0109601D02*
D03*
Y0101981D02*
D03*
Y0104521D02*
D03*
Y0107061D02*
D03*
X0007366Y0104267D02*
D03*
Y0106807D02*
D03*
Y0109347D02*
D03*
X0048133Y0080391D02*
D03*
D20*
X0017653Y0090269D02*
D03*
Y0078994D02*
D03*
D21*
X0020193Y0090269D02*
D03*
X0022733D02*
D03*
X0025273D02*
D03*
X0027813D02*
D03*
X0032893D02*
D03*
X0035433D02*
D03*
X0037973D02*
D03*
X0040513D02*
D03*
X0020193Y0078994D02*
D03*
X0022733D02*
D03*
X0025273D02*
D03*
X0027813D02*
D03*
X0032893D02*
D03*
X0035433D02*
D03*
X0037973D02*
D03*
X0040513D02*
D03*
X001637Y0030266D02*
D03*
Y0053086D02*
D03*
Y0040386D02*
D03*
Y0037846D02*
D03*
Y0035306D02*
D03*
Y0042926D02*
D03*
Y0045466D02*
D03*
Y0048006D02*
D03*
Y0050546D02*
D03*
Y0055626D02*
D03*
Y0058166D02*
D03*
Y0060706D02*
D03*
Y0063246D02*
D03*
X0042545Y0030266D02*
D03*
Y0053086D02*
D03*
Y0040386D02*
D03*
Y0037846D02*
D03*
Y0035306D02*
D03*
Y0042926D02*
D03*
Y0045466D02*
D03*
Y0048006D02*
D03*
Y0050546D02*
D03*
Y0055626D02*
D03*
Y0058166D02*
D03*
Y0060706D02*
D03*
Y0063246D02*
D03*
X0010541Y00695471D02*
D03*
Y00593871D02*
D03*
X0010414Y0053721D02*
D03*
X0029718Y0063373D02*
D03*
X0039878D02*
D03*
X0029718Y0055626D02*
D03*
X0039878D02*
D03*
X0013843Y0080391D02*
D03*
Y0090551D02*
D03*
X004445D02*
D03*
Y0080391D02*
D03*
D22*
X001637Y0065786D02*
D03*
X0042545D02*
D03*
D23*
X0007493Y008763D02*
D03*
D24*
X0048133Y0085471D02*
D03*
Y0082931D02*
D03*
D25*
X0028575Y009398D02*
D03*
X0017399Y0095885D02*
D03*
X0011938D02*
D03*
X0032893Y0093726D02*
D03*
M02*
