G04*
G04 #@! TF.GenerationSoftware,Altium Limited,Altium Designer,21.0.9 (235)*
G04*
G04 Layer_Color=16711935*
%FSTAX44Y44*%
%MOMM*%
G71*
G04*
G04 #@! TF.SameCoordinates,00477293-EDE4-4511-9B12-11A9C6AA5166*
G04*
G04*
G04 #@! TF.FilePolarity,Negative*
G04*
G01*
G75*
%ADD26C,1.4782*%
%ADD27R,1.4782X1.4782*%
%ADD28C,3.2032*%
%ADD29C,2.2352*%
%ADD30O,2.0032X2.7032*%
%ADD31O,2.7032X2.0032*%
G04:AMPARAMS|DCode=32|XSize=2.0032mm|YSize=2.0032mm|CornerRadius=0.3266mm|HoleSize=0mm|Usage=FLASHONLY|Rotation=0.000|XOffset=0mm|YOffset=0mm|HoleType=Round|Shape=RoundedRectangle|*
%AMROUNDEDRECTD32*
21,1,2.0032,1.3500,0,0,0.0*
21,1,1.3500,2.0032,0,0,0.0*
1,1,0.6532,0.6750,-0.6750*
1,1,0.6532,-0.6750,-0.6750*
1,1,0.6532,-0.6750,0.6750*
1,1,0.6532,0.6750,0.6750*
%
%ADD32ROUNDEDRECTD32*%
%ADD33C,2.0032*%
G04:AMPARAMS|DCode=34|XSize=2.0032mm|YSize=2.0032mm|CornerRadius=0.3266mm|HoleSize=0mm|Usage=FLASHONLY|Rotation=270.000|XOffset=0mm|YOffset=0mm|HoleType=Round|Shape=RoundedRectangle|*
%AMROUNDEDRECTD34*
21,1,2.0032,1.3500,0,0,270.0*
21,1,1.3500,2.0032,0,0,270.0*
1,1,0.6532,-0.6750,-0.6750*
1,1,0.6532,-0.6750,0.6750*
1,1,0.6532,0.6750,0.6750*
1,1,0.6532,0.6750,-0.6750*
%
%ADD34ROUNDEDRECTD34*%
%ADD35R,2.2352X2.2352*%
%ADD36O,2.9032X2.0032*%
%ADD37C,1.7032*%
D26*
X004707Y0058166D02*
D03*
X0046943Y006985D02*
D03*
D27*
X005207Y0058166D02*
D03*
X0051943Y006985D02*
D03*
D28*
X0003556Y0117094D02*
D03*
Y0003556D02*
D03*
X0056769D02*
D03*
X0056642Y0116967D02*
D03*
D29*
X0007239Y0022987D02*
D03*
X0048895Y0023368D02*
D03*
X0007493Y009017D02*
D03*
D30*
X0009779Y0022987D02*
D03*
X0006985Y0012954D02*
D03*
X0009525D02*
D03*
X0017145D02*
D03*
X0014605D02*
D03*
X0012065D02*
D03*
X0030353Y0090269D02*
D03*
Y0078994D02*
D03*
X0007874Y00537208D02*
D03*
X0051435Y0023368D02*
D03*
X0043561Y0012954D02*
D03*
X0051181D02*
D03*
X0048641D02*
D03*
X0046101D02*
D03*
D31*
X0048133Y0104267D02*
D03*
Y0106807D02*
D03*
Y0109347D02*
D03*
X001637Y0032766D02*
D03*
X0042545D02*
D03*
X0027686Y0104267D02*
D03*
Y0106807D02*
D03*
Y0109347D02*
D03*
X00381Y0104267D02*
D03*
Y0106807D02*
D03*
Y0109347D02*
D03*
X0017399Y0109601D02*
D03*
Y0101981D02*
D03*
Y0104521D02*
D03*
Y0107061D02*
D03*
X0007366Y0104267D02*
D03*
Y0106807D02*
D03*
Y0109347D02*
D03*
X0048133Y0080391D02*
D03*
D32*
X0017653Y0090269D02*
D03*
Y0078994D02*
D03*
D33*
X0020193Y0090269D02*
D03*
X0022733D02*
D03*
X0025273D02*
D03*
X0027813D02*
D03*
X0032893D02*
D03*
X0035433D02*
D03*
X0037973D02*
D03*
X0040513D02*
D03*
X0020193Y0078994D02*
D03*
X0022733D02*
D03*
X0025273D02*
D03*
X0027813D02*
D03*
X0032893D02*
D03*
X0035433D02*
D03*
X0037973D02*
D03*
X0040513D02*
D03*
X001637Y0030266D02*
D03*
Y0053086D02*
D03*
Y0040386D02*
D03*
Y0037846D02*
D03*
Y0035306D02*
D03*
Y0042926D02*
D03*
Y0045466D02*
D03*
Y0048006D02*
D03*
Y0050546D02*
D03*
Y0055626D02*
D03*
Y0058166D02*
D03*
Y0060706D02*
D03*
Y0063246D02*
D03*
X0042545Y0030266D02*
D03*
Y0053086D02*
D03*
Y0040386D02*
D03*
Y0037846D02*
D03*
Y0035306D02*
D03*
Y0042926D02*
D03*
Y0045466D02*
D03*
Y0048006D02*
D03*
Y0050546D02*
D03*
Y0055626D02*
D03*
Y0058166D02*
D03*
Y0060706D02*
D03*
Y0063246D02*
D03*
X0010541Y00695471D02*
D03*
Y00593871D02*
D03*
X0010414Y0053721D02*
D03*
X0029718Y0063373D02*
D03*
X0039878D02*
D03*
X0029718Y0055626D02*
D03*
X0039878D02*
D03*
X0013843Y0080391D02*
D03*
Y0090551D02*
D03*
X004445D02*
D03*
Y0080391D02*
D03*
D34*
X001637Y0065786D02*
D03*
X0042545D02*
D03*
D35*
X0007493Y008763D02*
D03*
D36*
X0048133Y0085471D02*
D03*
Y0082931D02*
D03*
D37*
X0028575Y009398D02*
D03*
X0017399Y0095885D02*
D03*
X0011938D02*
D03*
X0032893Y0093726D02*
D03*
M02*
