M48
;Layer_Color=9474304
;FILE_FORMAT=4:4
METRIC,LZ
;TYPE=PLATED
T1F00S00C0.9000
T2F00S00C0.9100
T3F00S00C1.0000
T4F00S00C1.1000
T5F00S00C1.3800
T6F00S00C3.0000
%
T01
X0007112Y0041783
X00071118Y0044323
X0005207Y0052324
Y0062484
X0015875Y0075565
X002159
X0027051Y0075819
X0032639
X0038354Y0075946
X0044069Y0076073
X0049784
Y0086233
X0049784Y0090678
X0044069Y0086233
X0038354Y0086106
X0032639Y0085979
X0027051
X002159Y0085725
X0015875
X0049784Y0100838
T02
X0027051Y0092329
X0029591
T03
X0016751Y0030734
Y0033234
Y0035774
Y0038314
Y0040854
Y0043394
Y0045934
Y0048474
Y0051014
Y0053554
X0042926
Y0051014
Y0048474
Y0045934
Y0043394
Y0040854
Y0038314
Y0035774
Y0033234
Y0030734
X0010287Y0078486
Y0081026
Y0083566
X0016751Y0066254
Y0063714
Y0061174
Y0058634
Y0056094
X0042926
Y0058634
Y0061174
Y0063714
Y0066254
T04
X0007366Y0013335
X0009906
X0012446
X0014986
X0017526
X0042799
X0045339
X0047879
X0050419
X0051181Y0023622
X0048641
X0009906
X0007366
X00253235Y01039365
Y01064765
Y01090165
X0037846Y0108839
Y0106299
X0049911
Y0108839
X0013335Y0109347
Y0106807
Y0104267
Y0101727
Y0099187
T05
X0042799Y0093726
Y0096266
Y0098806
T06
X0003937Y0003683
X0056515
Y0116586
X0003937
M30
