M48
;Layer_Color=9474304
;FILE_FORMAT=4:4
METRIC,LZ
;TYPE=PLATED
T1F00S00C0.9000
T2F00S00C0.9100
T3F00S00C1.0000
T4F00S00C1.1000
T5F00S00C1.3800
T6F00S00C3.0000
%
T01
X0007239Y003683
Y004699
X0007239Y00553721
X0004699Y00553719
X0018542Y0075692
X0022352Y0075819
X0029718Y0075946
X0035306
X0041021Y0076073
X0046736Y00762
X0052451
Y008636
X0052451Y0090805
X0046736Y008636
X0041021Y0086233
X0035306Y0086106
X0029718
X0022352Y0085979
X0018542Y0085852
X0052451Y0100965
T02
X0029718Y0092456
X0032258
T03
X0019418Y0030861
Y0033361
Y0035901
Y0038441
Y0040981
Y0043521
Y0046061
Y0048601
Y0051141
Y0053681
X0045593
Y0051141
Y0048601
Y0046061
Y0043521
Y0040981
Y0038441
Y0035901
Y0033361
Y0030861
X0012827Y00762
Y007874
Y008128
X0019418Y0066381
Y0063841
Y0061301
Y0058761
Y0056221
X0045593
Y0058761
Y0061301
Y0063841
Y0066381
T04
X0010033Y0013462
X0012573
X0015113
X0017653
X0020193
X0045466
X0048006
X0050546
X0053086
X005461Y0023749
X005207
X0012573
X0010033
X0016002Y0099314
Y0101854
Y0104394
Y0106934
Y0109474
X00279905Y01091435
Y01066035
Y01040635
X0040513Y0106426
Y0108966
X0052578
Y0106426
T05
X0045466Y0093853
Y0096393
Y0098933
T06
X0003937Y0003683
X0056515
Y0116586
X0003937
M30
