G04*
G04 #@! TF.GenerationSoftware,Altium Limited,Altium Designer,21.0.9 (235)*
G04*
G04 Layer_Physical_Order=2*
G04 Layer_Color=16711680*
%FSLAX44Y44*%
%MOMM*%
G71*
G04*
G04 #@! TF.SameCoordinates,A5C90C27-E0DC-4246-AD6F-4CBF63F12547*
G04*
G04*
G04 #@! TF.FilePolarity,Positive*
G04*
G01*
G75*
%ADD10C,1.0000*%
%ADD11C,1.8000*%
%ADD12R,2.0320X2.0320*%
%ADD13C,2.0320*%
%ADD14O,2.5000X1.8000*%
%ADD15R,2.5000X2.0000*%
%ADD16O,2.7000X1.8000*%
%ADD17C,1.4160*%
%ADD18R,2.0700X2.0700*%
%ADD19C,2.0700*%
%ADD20O,1.8000X2.5000*%
G04:AMPARAMS|DCode=21|XSize=1.8mm|YSize=1.8mm|CornerRadius=0.225mm|HoleSize=0mm|Usage=FLASHONLY|Rotation=270.000|XOffset=0mm|YOffset=0mm|HoleType=Round|Shape=RoundedRectangle|*
%AMROUNDEDRECTD21*
21,1,1.8000,1.3500,0,0,270.0*
21,1,1.3500,1.8000,0,0,270.0*
1,1,0.4500,-0.6750,-0.6750*
1,1,0.4500,-0.6750,0.6750*
1,1,0.4500,0.6750,0.6750*
1,1,0.4500,0.6750,-0.6750*
%
%ADD21ROUNDEDRECTD21*%
%ADD22R,2.0320X2.0320*%
%ADD23R,2.0000X2.5000*%
%ADD24C,3.0000*%
G36*
X600710Y1200150D02*
Y0D01*
X1270D01*
X0Y1270D01*
Y1200150D01*
X598170D01*
X599440Y1201420D01*
X600710Y1200150D01*
D02*
G37*
%LPC*%
G36*
X567120Y1185860D02*
X563180D01*
X559316Y1185091D01*
X555676Y1183584D01*
X552401Y1181395D01*
X549615Y1178609D01*
X547426Y1175333D01*
X545919Y1171694D01*
X545150Y1167830D01*
Y1163890D01*
X545919Y1160026D01*
X547426Y1156386D01*
X549615Y1153111D01*
X552401Y1150325D01*
X555676Y1148136D01*
X559316Y1146629D01*
X563180Y1145860D01*
X567120D01*
X570984Y1146629D01*
X574623Y1148136D01*
X577899Y1150325D01*
X580685Y1153111D01*
X582874Y1156386D01*
X584381Y1160026D01*
X585150Y1163890D01*
Y1167830D01*
X584381Y1171694D01*
X582874Y1175333D01*
X580685Y1178609D01*
X577899Y1181395D01*
X574623Y1183584D01*
X570984Y1185091D01*
X567120Y1185860D01*
D02*
G37*
G36*
X41340D02*
X37400D01*
X33536Y1185091D01*
X29897Y1183584D01*
X26621Y1181395D01*
X23835Y1178609D01*
X21646Y1175333D01*
X20139Y1171694D01*
X19370Y1167830D01*
Y1163890D01*
X20139Y1160026D01*
X21646Y1156386D01*
X23835Y1153111D01*
X26621Y1150325D01*
X29897Y1148136D01*
X33536Y1146629D01*
X37400Y1145860D01*
X41340D01*
X45204Y1146629D01*
X48843Y1148136D01*
X52119Y1150325D01*
X54905Y1153111D01*
X57094Y1156386D01*
X58601Y1160026D01*
X59370Y1163890D01*
Y1167830D01*
X58601Y1171694D01*
X57094Y1175333D01*
X54905Y1178609D01*
X52119Y1181395D01*
X48843Y1183584D01*
X45204Y1185091D01*
X41340Y1185860D01*
D02*
G37*
G36*
X270733Y1107360D02*
X267747D01*
X264818Y1106777D01*
X262059Y1105635D01*
X259576Y1103976D01*
X257887Y1102286D01*
X207010D01*
X204400Y1101943D01*
X201967Y1100935D01*
X199878Y1099332D01*
X93666Y993121D01*
X93034Y993486D01*
X89473Y994440D01*
X85787D01*
X82226Y993486D01*
X79034Y991643D01*
X76427Y989036D01*
X74584Y985844D01*
X73630Y982283D01*
Y978597D01*
X74584Y975036D01*
X76427Y971844D01*
X79034Y969237D01*
X82226Y967394D01*
X85787Y966440D01*
X89473D01*
X93034Y967394D01*
X96226Y969237D01*
X98833Y971844D01*
X99027Y972180D01*
X99391Y972228D01*
X101824Y973236D01*
X103913Y974839D01*
X211188Y1082114D01*
X257887D01*
X259576Y1080424D01*
X262059Y1078765D01*
X264818Y1077623D01*
X267747Y1077040D01*
X270733D01*
X273662Y1077623D01*
X276421Y1078765D01*
X278904Y1080424D01*
X281015Y1082536D01*
X282675Y1085019D01*
X283817Y1087778D01*
X284400Y1090707D01*
Y1093693D01*
X283817Y1096622D01*
X282675Y1099381D01*
X281015Y1101864D01*
X278904Y1103976D01*
X276421Y1105635D01*
X273662Y1106777D01*
X270733Y1107360D01*
D02*
G37*
G36*
X131087Y1129949D02*
X101323D01*
X98712Y1129605D01*
X96280Y1128598D01*
X94191Y1126995D01*
X13188Y1045992D01*
X11585Y1043903D01*
X10577Y1041470D01*
X10234Y1038860D01*
Y735330D01*
X10577Y732719D01*
X11585Y730287D01*
X13188Y728198D01*
X94054Y647332D01*
Y499865D01*
X94397Y497254D01*
X95405Y494822D01*
X97008Y492733D01*
X136378Y453363D01*
X138467Y451760D01*
X140899Y450752D01*
X143510Y450408D01*
X156643D01*
X158914Y448137D01*
X160407Y447275D01*
Y446005D01*
X158914Y445143D01*
X156307Y442536D01*
X154464Y439344D01*
X153510Y435783D01*
Y432097D01*
X154464Y428536D01*
X156307Y425344D01*
X158914Y422737D01*
X160407Y421875D01*
Y420605D01*
X158914Y419743D01*
X156307Y417136D01*
X154464Y413944D01*
X153510Y410383D01*
Y406697D01*
X154464Y403136D01*
X156307Y399944D01*
X158914Y397337D01*
X160407Y396475D01*
Y395205D01*
X158914Y394343D01*
X156307Y391736D01*
X154464Y388544D01*
X153510Y384983D01*
Y381297D01*
X154464Y377736D01*
X156307Y374544D01*
X158914Y371937D01*
X160407Y371075D01*
Y369805D01*
X158914Y368943D01*
X156307Y366336D01*
X154464Y363144D01*
X153510Y359583D01*
Y355897D01*
X154464Y352336D01*
X156307Y349144D01*
X158914Y346537D01*
X162106Y344694D01*
X165667Y343740D01*
X169353D01*
X172914Y344694D01*
X176106Y346537D01*
X178713Y349144D01*
X180556Y352336D01*
X181510Y355897D01*
Y359583D01*
X180556Y363144D01*
X178713Y366336D01*
X176106Y368943D01*
X174613Y369805D01*
Y371075D01*
X176106Y371937D01*
X178713Y374544D01*
X180556Y377736D01*
X181510Y381297D01*
Y384983D01*
X180556Y388544D01*
X178713Y391736D01*
X176106Y394343D01*
X174613Y395205D01*
Y396475D01*
X176106Y397337D01*
X178713Y399944D01*
X180556Y403136D01*
X181510Y406697D01*
Y410383D01*
X180556Y413944D01*
X178713Y417136D01*
X176106Y419743D01*
X174613Y420605D01*
Y421875D01*
X176106Y422737D01*
X178713Y425344D01*
X180556Y428536D01*
X181510Y432097D01*
Y435783D01*
X180556Y439344D01*
X178713Y442536D01*
X176106Y445143D01*
X174613Y446005D01*
Y447275D01*
X176106Y448137D01*
X178713Y450744D01*
X180556Y453936D01*
X181510Y457497D01*
Y461183D01*
X180556Y464744D01*
X178713Y467936D01*
X176106Y470543D01*
X174613Y471405D01*
Y472675D01*
X176106Y473537D01*
X178713Y476144D01*
X180556Y479336D01*
X181510Y482897D01*
Y486583D01*
X180556Y490144D01*
X178713Y493336D01*
X176106Y495943D01*
X174613Y496805D01*
Y498075D01*
X176106Y498937D01*
X178713Y501544D01*
X180556Y504736D01*
X181510Y508297D01*
Y511983D01*
X180556Y515544D01*
X178713Y518736D01*
X176106Y521343D01*
X174613Y522205D01*
Y523475D01*
X176106Y524337D01*
X178713Y526944D01*
X180556Y530136D01*
X181510Y533697D01*
Y537383D01*
X180556Y540944D01*
X178713Y544136D01*
X176106Y546743D01*
X174613Y547605D01*
Y548875D01*
X176106Y549737D01*
X178713Y552344D01*
X180556Y555536D01*
X181510Y559097D01*
Y562783D01*
X180556Y566344D01*
X178713Y569536D01*
X176106Y572143D01*
X174613Y573005D01*
Y574275D01*
X176106Y575137D01*
X178713Y577744D01*
X180556Y580936D01*
X181510Y584497D01*
Y588183D01*
X180556Y591744D01*
X178713Y594936D01*
X176106Y597543D01*
X174613Y598405D01*
Y599675D01*
X176106Y600537D01*
X178713Y603144D01*
X180556Y606336D01*
X181510Y609897D01*
Y613583D01*
X180556Y617144D01*
X178713Y620336D01*
X176106Y622943D01*
X174613Y623805D01*
Y625075D01*
X176106Y625937D01*
X178713Y628544D01*
X180556Y631736D01*
X181510Y635297D01*
Y638983D01*
X180556Y642544D01*
X178713Y645736D01*
X176820Y647629D01*
X177118Y649127D01*
X177916Y649457D01*
X179431Y650619D01*
X180593Y652134D01*
X181323Y653897D01*
X181572Y655790D01*
Y669290D01*
X181323Y671183D01*
X180593Y672946D01*
X179431Y674461D01*
X177916Y675623D01*
X176153Y676353D01*
X174260Y676602D01*
X167712D01*
X105336Y738978D01*
Y776220D01*
X105945Y776300D01*
X109350Y777711D01*
X112275Y779955D01*
X114519Y782880D01*
X115930Y786285D01*
X116411Y789940D01*
X115930Y793595D01*
X114519Y797000D01*
X112275Y799925D01*
X109717Y801888D01*
X109614Y802231D01*
Y803049D01*
X109717Y803392D01*
X112275Y805355D01*
X114519Y808280D01*
X115930Y811685D01*
X116411Y815340D01*
X115930Y818995D01*
X114519Y822400D01*
X112275Y825325D01*
X109350Y827569D01*
X105945Y828980D01*
X102290Y829461D01*
X93290D01*
X92118Y829306D01*
X82476Y838948D01*
Y860692D01*
X86624Y864840D01*
X89473D01*
X93034Y865794D01*
X96226Y867637D01*
X98833Y870244D01*
X100676Y873436D01*
X101630Y876997D01*
Y880683D01*
X100676Y884244D01*
X99383Y886484D01*
X100116Y887754D01*
X102929D01*
X117704Y872978D01*
X119794Y871375D01*
X122226Y870367D01*
X124837Y870024D01*
X135067D01*
X136184Y868907D01*
X139376Y867064D01*
X142937Y866110D01*
X146623D01*
X150184Y867064D01*
X153376Y868907D01*
X155983Y871514D01*
X157826Y874706D01*
X158780Y878267D01*
Y881953D01*
X157826Y885514D01*
X155983Y888706D01*
X153376Y891313D01*
X150184Y893156D01*
X146623Y894110D01*
X142937D01*
X139376Y893156D01*
X136184Y891313D01*
X135067Y890196D01*
X129015D01*
X114239Y904972D01*
X112150Y906575D01*
X109717Y907583D01*
X107107Y907926D01*
X76150D01*
X73540Y907583D01*
X71107Y906575D01*
X69018Y904972D01*
X46916Y882870D01*
X45646Y883397D01*
Y1019442D01*
X94377Y1068173D01*
X95516Y1067611D01*
X95409Y1066800D01*
X95890Y1063145D01*
X97301Y1059740D01*
X99545Y1056815D01*
X102470Y1054571D01*
X105875Y1053160D01*
X109530Y1052679D01*
X116530D01*
X120185Y1053160D01*
X123590Y1054571D01*
X126515Y1056815D01*
X127282Y1057814D01*
X129370D01*
X131981Y1058158D01*
X134414Y1059166D01*
X136503Y1060769D01*
X156992Y1081258D01*
X158595Y1083347D01*
X159603Y1085779D01*
X159946Y1088390D01*
Y1101090D01*
X159603Y1103700D01*
X158595Y1106133D01*
X156992Y1108222D01*
X138219Y1126995D01*
X136130Y1128598D01*
X133698Y1129605D01*
X131087Y1129949D01*
D02*
G37*
G36*
X448533Y1103550D02*
X445547D01*
X442618Y1102967D01*
X439859Y1101825D01*
X437376Y1100165D01*
X435265Y1098054D01*
X433605Y1095571D01*
X432463Y1092812D01*
X431880Y1089883D01*
Y1086897D01*
X432463Y1083968D01*
X433605Y1081209D01*
X434801Y1079420D01*
X434122Y1078150D01*
X431880D01*
Y1073076D01*
X386457D01*
X383846Y1072733D01*
X381414Y1071725D01*
X379325Y1070122D01*
X325608Y1016405D01*
X324005Y1014316D01*
X322997Y1011884D01*
X322654Y1009273D01*
Y934912D01*
X320817Y933075D01*
X319650Y931329D01*
X315453D01*
X312842Y930985D01*
X310410Y929978D01*
X308321Y928375D01*
X275326Y895380D01*
X273747D01*
X270186Y894426D01*
X266994Y892583D01*
X264387Y889976D01*
X262544Y886784D01*
X261590Y883223D01*
Y879537D01*
X262544Y875976D01*
X264387Y872784D01*
X266994Y870177D01*
X270186Y868334D01*
X273747Y867380D01*
X277433D01*
X280994Y868334D01*
X284186Y870177D01*
X286793Y872784D01*
X288636Y875976D01*
X289590Y879537D01*
Y881116D01*
X319631Y911156D01*
X323270D01*
X325469Y909687D01*
X328263Y908530D01*
X331228Y907940D01*
X334252D01*
X337217Y908530D01*
X340011Y909687D01*
X342525Y911367D01*
X344663Y913505D01*
X344805Y913717D01*
X346075D01*
X346217Y913505D01*
X348355Y911367D01*
X350869Y909687D01*
X353663Y908530D01*
X356628Y907940D01*
X359652D01*
X362617Y908530D01*
X365411Y909687D01*
X366920Y910695D01*
X368190Y910016D01*
Y907940D01*
X398890D01*
Y938640D01*
X386006D01*
Y950862D01*
X393964Y958820D01*
X395543D01*
X399104Y959774D01*
X402296Y961617D01*
X404903Y964224D01*
X406746Y967416D01*
X407700Y970977D01*
Y974663D01*
X406746Y978224D01*
X404903Y981416D01*
X402296Y984023D01*
X399104Y985866D01*
X395543Y986820D01*
X391857D01*
X388296Y985866D01*
X387106Y985179D01*
X386006Y985814D01*
Y999122D01*
X393964Y1007080D01*
X395543D01*
X399104Y1008034D01*
X402296Y1009877D01*
X404903Y1012484D01*
X406746Y1015676D01*
X407700Y1019237D01*
Y1022923D01*
X406746Y1026484D01*
X405453Y1028724D01*
X406186Y1029994D01*
X462230D01*
X464841Y1030337D01*
X467273Y1031345D01*
X469362Y1032948D01*
X485922Y1049508D01*
X487525Y1051597D01*
X488533Y1054029D01*
X488876Y1056640D01*
Y1078230D01*
X488533Y1080841D01*
X487525Y1083273D01*
X485922Y1085362D01*
X475762Y1095522D01*
X473673Y1097125D01*
X471241Y1098133D01*
X468630Y1098476D01*
X458393D01*
X456704Y1100165D01*
X454221Y1101825D01*
X451462Y1102967D01*
X448533Y1103550D01*
D02*
G37*
G36*
X488950Y1146736D02*
X401320D01*
X398709Y1146393D01*
X396277Y1145385D01*
X394188Y1143782D01*
X300622Y1050216D01*
X201930D01*
X199319Y1049873D01*
X196887Y1048865D01*
X194798Y1047262D01*
X163048Y1015512D01*
X161445Y1013423D01*
X160437Y1010991D01*
X160094Y1008380D01*
Y983800D01*
X158824Y983121D01*
X158780Y983150D01*
Y983553D01*
X157826Y987114D01*
X155983Y990306D01*
X153376Y992913D01*
X150184Y994756D01*
X146623Y995710D01*
X142937D01*
X139376Y994756D01*
X136184Y992913D01*
X133577Y990306D01*
X131734Y987114D01*
X130780Y983553D01*
Y979867D01*
X131734Y976306D01*
X133577Y973114D01*
X136184Y970507D01*
X139376Y968664D01*
X142937Y967710D01*
X144516D01*
X160094Y952132D01*
Y730250D01*
X160437Y727639D01*
X161445Y725207D01*
X163048Y723118D01*
X251534Y634632D01*
Y410210D01*
X251877Y407599D01*
X252885Y405167D01*
X254488Y403078D01*
X419174Y238392D01*
Y147732D01*
X418005Y146835D01*
X415761Y143910D01*
X414350Y140505D01*
X413869Y136850D01*
Y129850D01*
X414350Y126195D01*
X415761Y122790D01*
X418005Y119865D01*
X420930Y117621D01*
X424335Y116210D01*
X427990Y115729D01*
X431645Y116210D01*
X435050Y117621D01*
X437975Y119865D01*
X439938Y122423D01*
X440281Y122526D01*
X441099D01*
X441442Y122423D01*
X443405Y119865D01*
X446330Y117621D01*
X449735Y116210D01*
X453390Y115729D01*
X457045Y116210D01*
X460450Y117621D01*
X463375Y119865D01*
X465338Y122423D01*
X465681Y122526D01*
X466499D01*
X466842Y122423D01*
X468805Y119865D01*
X471730Y117621D01*
X475135Y116210D01*
X478790Y115729D01*
X482445Y116210D01*
X485850Y117621D01*
X488775Y119865D01*
X491019Y122790D01*
X492430Y126195D01*
X492911Y129850D01*
Y136850D01*
X492430Y140505D01*
X491019Y143910D01*
X488775Y146835D01*
X485850Y149079D01*
X482445Y150490D01*
X480648Y150726D01*
X475066Y156308D01*
Y194640D01*
X476336Y194724D01*
X476667Y192208D01*
X477675Y189776D01*
X479278Y187687D01*
X533474Y133491D01*
Y103238D01*
X498742Y68506D01*
X165468D01*
X135816Y98158D01*
Y121652D01*
X136689Y122790D01*
X138100Y126195D01*
X138581Y129850D01*
Y136850D01*
X138100Y140505D01*
X136689Y143910D01*
X134445Y146835D01*
X131520Y149079D01*
X128115Y150490D01*
X124460Y150971D01*
X120805Y150490D01*
X117400Y149079D01*
X114475Y146835D01*
X112512Y144277D01*
X112169Y144174D01*
X111351D01*
X111008Y144277D01*
X109045Y146835D01*
X106120Y149079D01*
X102715Y150490D01*
X99060Y150971D01*
X95405Y150490D01*
X92000Y149079D01*
X89075Y146835D01*
X87112Y144277D01*
X86769Y144174D01*
X85951D01*
X85608Y144277D01*
X83746Y146703D01*
Y224867D01*
X85435Y226556D01*
X87095Y229039D01*
X88237Y231798D01*
X88820Y234727D01*
Y237713D01*
X88237Y240642D01*
X87095Y243401D01*
X86673Y244031D01*
X139896Y297254D01*
X157797D01*
X158914Y296137D01*
X162106Y294294D01*
X165667Y293340D01*
X169353D01*
X172914Y294294D01*
X176106Y296137D01*
X178713Y298744D01*
X180556Y301936D01*
X181510Y305497D01*
Y309183D01*
X180556Y312744D01*
X178713Y315936D01*
X176106Y318543D01*
X172914Y320386D01*
X169353Y321340D01*
X165667D01*
X162106Y320386D01*
X158914Y318543D01*
X157797Y317426D01*
X135718D01*
X133107Y317083D01*
X130675Y316075D01*
X128586Y314472D01*
X86894Y272780D01*
X85721Y273267D01*
Y362515D01*
X85377Y365126D01*
X84370Y367559D01*
X82767Y369647D01*
X50726Y401688D01*
Y436171D01*
X51953Y436499D01*
X52297Y435903D01*
X54904Y433296D01*
X58096Y431453D01*
X61657Y430499D01*
X65343D01*
X68904Y431453D01*
X72096Y433296D01*
X74703Y435903D01*
X76546Y439095D01*
X77500Y442656D01*
Y446342D01*
X76546Y449903D01*
X74703Y453095D01*
X73586Y454212D01*
Y536387D01*
X74703Y537504D01*
X76546Y540696D01*
X77500Y544257D01*
Y547943D01*
X76546Y551504D01*
X74703Y554696D01*
X72096Y557303D01*
X68904Y559146D01*
X65343Y560100D01*
X61657D01*
X58096Y559146D01*
X54904Y557303D01*
X52297Y554696D01*
X51953Y554100D01*
X50726Y554429D01*
Y620662D01*
X63764Y633700D01*
X65343D01*
X68904Y634654D01*
X72096Y636497D01*
X74703Y639104D01*
X76546Y642296D01*
X77500Y645857D01*
Y649543D01*
X76546Y653104D01*
X74703Y656296D01*
X72096Y658903D01*
X68904Y660746D01*
X65343Y661700D01*
X61657D01*
X58096Y660746D01*
X54904Y658903D01*
X52297Y656296D01*
X50454Y653104D01*
X49500Y649543D01*
Y647964D01*
X33508Y631972D01*
X31905Y629883D01*
X30897Y627450D01*
X30554Y624840D01*
Y397510D01*
X30897Y394899D01*
X31905Y392467D01*
X33508Y390378D01*
X65548Y358338D01*
Y249033D01*
X63996Y247995D01*
X61884Y245884D01*
X60225Y243401D01*
X59083Y240642D01*
X58500Y237713D01*
Y234727D01*
X59083Y231798D01*
X60225Y229039D01*
X61884Y226556D01*
X63574Y224867D01*
Y146703D01*
X61431Y143910D01*
X60020Y140505D01*
X59539Y136850D01*
Y129850D01*
X60020Y126195D01*
X61431Y122790D01*
X63675Y119865D01*
X66600Y117621D01*
X70005Y116210D01*
X73660Y115729D01*
X77315Y116210D01*
X80720Y117621D01*
X83645Y119865D01*
X85608Y122423D01*
X85951Y122526D01*
X86769D01*
X87112Y122423D01*
X89075Y119865D01*
X92000Y117621D01*
X95405Y116210D01*
X99060Y115729D01*
X102715Y116210D01*
X106120Y117621D01*
X109045Y119865D01*
X111008Y122423D01*
X111351Y122526D01*
X112169D01*
X112512Y122423D01*
X114475Y119865D01*
X115644Y118968D01*
Y93980D01*
X115987Y91369D01*
X116995Y88937D01*
X118598Y86848D01*
X154158Y51288D01*
X156247Y49685D01*
X158680Y48677D01*
X161290Y48334D01*
X502920D01*
X505531Y48677D01*
X507963Y49685D01*
X510052Y51288D01*
X550692Y91928D01*
X552295Y94017D01*
X553303Y96449D01*
X553646Y99060D01*
Y137669D01*
X553303Y140279D01*
X552295Y142712D01*
X550692Y144801D01*
X496496Y198997D01*
Y224867D01*
X498186Y226556D01*
X499845Y229039D01*
X500987Y231798D01*
X501570Y234727D01*
Y237713D01*
X500987Y240642D01*
X499845Y243401D01*
X498186Y245884D01*
X496074Y247995D01*
X493591Y249655D01*
X490832Y250797D01*
X487903Y251380D01*
X484917D01*
X481988Y250797D01*
X479229Y249655D01*
X476746Y247995D01*
X476240Y247489D01*
X475066Y247975D01*
Y628290D01*
X474906Y629505D01*
Y633722D01*
Y694322D01*
X519694Y739110D01*
X521273D01*
X524834Y740064D01*
X528026Y741907D01*
X530633Y744514D01*
X532476Y747706D01*
X533430Y751267D01*
Y754953D01*
X532476Y758514D01*
X530633Y761706D01*
X528026Y764313D01*
X524834Y766156D01*
X521273Y767110D01*
X517587D01*
X514026Y766156D01*
X510834Y764313D01*
X508227Y761706D01*
X506384Y758514D01*
X505430Y754953D01*
Y753374D01*
X457688Y705632D01*
X456085Y703543D01*
X455077Y701111D01*
X454734Y698500D01*
Y659732D01*
X453560Y659246D01*
X447134Y665672D01*
X445045Y667275D01*
X443322Y667989D01*
Y669290D01*
X443073Y671183D01*
X442343Y672946D01*
X441181Y674461D01*
X439666Y675623D01*
X437903Y676353D01*
X436010Y676602D01*
X422510D01*
X420617Y676353D01*
X418854Y675623D01*
X417339Y674461D01*
X416177Y672946D01*
X415447Y671183D01*
X415197Y669290D01*
Y655790D01*
X415447Y653897D01*
X416177Y652134D01*
X417339Y650619D01*
X418854Y649457D01*
X419102Y649354D01*
X419425Y647953D01*
X418807Y647226D01*
X414788D01*
X407596Y654418D01*
Y681622D01*
X465084Y739110D01*
X466663D01*
X470224Y740064D01*
X473416Y741907D01*
X476023Y744514D01*
X477866Y747706D01*
X478820Y751267D01*
Y754953D01*
X477866Y758514D01*
X476023Y761706D01*
X473416Y764313D01*
X470224Y766156D01*
X466663Y767110D01*
X462977D01*
X459416Y766156D01*
X456224Y764313D01*
X453617Y761706D01*
X451774Y758514D01*
X450820Y754953D01*
Y753374D01*
X390378Y692932D01*
X388775Y690843D01*
X387767Y688410D01*
X387424Y685800D01*
Y650240D01*
X387767Y647629D01*
X388775Y645197D01*
X390378Y643108D01*
X403478Y630008D01*
X405567Y628405D01*
X407999Y627397D01*
X410610Y627054D01*
X419547D01*
X420664Y625937D01*
X422157Y625075D01*
Y623805D01*
X420664Y622943D01*
X418057Y620336D01*
X416214Y617144D01*
X415260Y613583D01*
Y609897D01*
X416214Y606336D01*
X418057Y603144D01*
X420664Y600537D01*
X422157Y599675D01*
Y598405D01*
X420664Y597543D01*
X418057Y594936D01*
X416214Y591744D01*
X415260Y588183D01*
Y584497D01*
X416214Y580936D01*
X418057Y577744D01*
X420664Y575137D01*
X422157Y574275D01*
Y573005D01*
X420664Y572143D01*
X418057Y569536D01*
X416214Y566344D01*
X415260Y562783D01*
Y559097D01*
X416214Y555536D01*
X418057Y552344D01*
X420664Y549737D01*
X422157Y548875D01*
Y547605D01*
X420664Y546743D01*
X418057Y544136D01*
X416214Y540944D01*
X415260Y537383D01*
Y533697D01*
X416214Y530136D01*
X418057Y526944D01*
X420664Y524337D01*
X422157Y523475D01*
Y522205D01*
X420664Y521343D01*
X418057Y518736D01*
X416214Y515544D01*
X415260Y511983D01*
Y508297D01*
X416214Y504736D01*
X418057Y501544D01*
X420664Y498937D01*
X422157Y498075D01*
Y496805D01*
X420664Y495943D01*
X418057Y493336D01*
X416214Y490144D01*
X415260Y486583D01*
Y482897D01*
X416214Y479336D01*
X418057Y476144D01*
X420664Y473537D01*
X422157Y472675D01*
Y471405D01*
X420664Y470543D01*
X418057Y467936D01*
X416214Y464744D01*
X415260Y461183D01*
Y457497D01*
X416214Y453936D01*
X418057Y450744D01*
X420664Y448137D01*
X422157Y447275D01*
Y446005D01*
X420664Y445143D01*
X418057Y442536D01*
X416214Y439344D01*
X415260Y435783D01*
Y432097D01*
X416214Y428536D01*
X418057Y425344D01*
X420664Y422737D01*
X422157Y421875D01*
Y420605D01*
X420664Y419743D01*
X418057Y417136D01*
X416214Y413944D01*
X415260Y410383D01*
Y406697D01*
X416214Y403136D01*
X418057Y399944D01*
X420664Y397337D01*
X422157Y396475D01*
Y395205D01*
X420664Y394343D01*
X418057Y391736D01*
X416214Y388544D01*
X415260Y384983D01*
Y381297D01*
X416214Y377736D01*
X418057Y374544D01*
X420664Y371937D01*
X422157Y371075D01*
Y369805D01*
X420664Y368943D01*
X419547Y367826D01*
X394468D01*
X331396Y430898D01*
Y671830D01*
Y787032D01*
X449092Y904728D01*
X450695Y906817D01*
X451703Y909249D01*
X452046Y911860D01*
Y963562D01*
X495564Y1007080D01*
X497143D01*
X500704Y1008034D01*
X503896Y1009877D01*
X506503Y1012484D01*
X508346Y1015676D01*
X509300Y1019237D01*
Y1022923D01*
X508346Y1026484D01*
X506503Y1029676D01*
X503896Y1032283D01*
X500704Y1034126D01*
X497143Y1035080D01*
X493457D01*
X489896Y1034126D01*
X486704Y1032283D01*
X484097Y1029676D01*
X482254Y1026484D01*
X481300Y1022923D01*
Y1021344D01*
X434828Y974872D01*
X433225Y972783D01*
X432217Y970351D01*
X431874Y967740D01*
Y916038D01*
X314178Y798342D01*
X312575Y796253D01*
X311567Y793820D01*
X311224Y791210D01*
Y697840D01*
X310050Y697354D01*
X220906Y786498D01*
Y868687D01*
X221083Y868865D01*
X223844Y869604D01*
X227036Y871447D01*
X229643Y874054D01*
X231486Y877246D01*
X232440Y880807D01*
Y884493D01*
X231486Y888054D01*
X229643Y891246D01*
X227036Y893853D01*
X223844Y895696D01*
X220283Y896650D01*
X216597D01*
X213036Y895696D01*
X209844Y893853D01*
X207237Y891246D01*
X205394Y888054D01*
X204440Y884493D01*
Y880807D01*
X204452Y880761D01*
X203688Y879997D01*
X202085Y877908D01*
X201077Y875476D01*
X200734Y872865D01*
Y782320D01*
X201077Y779709D01*
X202085Y777277D01*
X203688Y775188D01*
X311224Y667652D01*
Y426720D01*
X311567Y424109D01*
X312575Y421677D01*
X314178Y419588D01*
X383158Y350608D01*
X385247Y349005D01*
X387679Y347997D01*
X390290Y347654D01*
X419547D01*
X420664Y346537D01*
X423856Y344694D01*
X427417Y343740D01*
X431103D01*
X434664Y344694D01*
X436954Y346016D01*
X438224Y345283D01*
Y319797D01*
X436954Y319064D01*
X434664Y320386D01*
X431103Y321340D01*
X427417D01*
X423856Y320386D01*
X420664Y318543D01*
X418057Y315936D01*
X416214Y312744D01*
X415260Y309183D01*
Y305497D01*
X416214Y301936D01*
X418057Y298744D01*
X419174Y297627D01*
Y268580D01*
X418000Y268094D01*
X271706Y414388D01*
Y638810D01*
X271363Y641421D01*
X270355Y643853D01*
X268752Y645942D01*
X180266Y734428D01*
Y956310D01*
Y1004202D01*
X206108Y1030044D01*
X304800D01*
X307411Y1030387D01*
X309843Y1031395D01*
X311932Y1032998D01*
X405498Y1126564D01*
X484772D01*
X534744Y1076592D01*
Y917308D01*
X486232Y868796D01*
X470985D01*
X468374Y868453D01*
X468079Y868331D01*
X466663Y868710D01*
X462977D01*
X459416Y867756D01*
X456224Y865913D01*
X453617Y863306D01*
X451774Y860114D01*
X450820Y856553D01*
Y852867D01*
X451774Y849306D01*
X453617Y846114D01*
X456224Y843507D01*
X459416Y841664D01*
X462977Y840710D01*
X466663D01*
X470224Y841664D01*
X473416Y843507D01*
X476023Y846114D01*
X477472Y848624D01*
X490410D01*
X493021Y848967D01*
X495453Y849975D01*
X497542Y851578D01*
X504700Y858736D01*
X505839Y858079D01*
X505430Y856553D01*
Y852867D01*
X506384Y849306D01*
X508227Y846114D01*
X510834Y843507D01*
X514026Y841664D01*
X517587Y840710D01*
X521273D01*
X524834Y841664D01*
X528026Y843507D01*
X530633Y846114D01*
X532476Y849306D01*
X533430Y852867D01*
Y854446D01*
X551962Y872978D01*
X553565Y875067D01*
X554573Y877499D01*
X554916Y880110D01*
Y913130D01*
Y1080770D01*
X554573Y1083381D01*
X553565Y1085813D01*
X551962Y1087902D01*
X496082Y1143782D01*
X493993Y1145385D01*
X491561Y1146393D01*
X488950Y1146736D01*
D02*
G37*
G36*
X220283Y998250D02*
X216597D01*
X213036Y997296D01*
X209844Y995453D01*
X207237Y992846D01*
X205394Y989654D01*
X204440Y986093D01*
Y982407D01*
X205394Y978846D01*
X207237Y975654D01*
X209844Y973047D01*
X213036Y971204D01*
X216597Y970250D01*
X218176D01*
X233754Y954672D01*
Y825981D01*
X233030Y823280D01*
Y820100D01*
X233853Y817027D01*
X235444Y814273D01*
X237693Y812024D01*
X240447Y810433D01*
X243520Y809610D01*
X246700D01*
X249773Y810433D01*
X252527Y812024D01*
X254776Y814273D01*
X256367Y817027D01*
X257190Y820100D01*
Y823280D01*
X256367Y826353D01*
X254776Y829107D01*
X253926Y829957D01*
Y958850D01*
X253583Y961460D01*
X252575Y963893D01*
X250972Y965982D01*
X232440Y984514D01*
Y986093D01*
X231486Y989654D01*
X229643Y992846D01*
X227036Y995453D01*
X223844Y997296D01*
X220283Y998250D01*
D02*
G37*
G36*
X567120Y56830D02*
X563180D01*
X559316Y56061D01*
X555676Y54554D01*
X552401Y52365D01*
X549615Y49579D01*
X547426Y46304D01*
X545919Y42664D01*
X545150Y38800D01*
Y34860D01*
X545919Y30996D01*
X547426Y27357D01*
X549615Y24081D01*
X552401Y21295D01*
X555676Y19106D01*
X559316Y17599D01*
X563180Y16830D01*
X567120D01*
X570984Y17599D01*
X574623Y19106D01*
X577899Y21295D01*
X580685Y24081D01*
X582874Y27357D01*
X584381Y30996D01*
X585150Y34860D01*
Y38800D01*
X584381Y42664D01*
X582874Y46304D01*
X580685Y49579D01*
X577899Y52365D01*
X574623Y54554D01*
X570984Y56061D01*
X567120Y56830D01*
D02*
G37*
G36*
X41340D02*
X37400D01*
X33536Y56061D01*
X29897Y54554D01*
X26621Y52365D01*
X23835Y49579D01*
X21646Y46304D01*
X20139Y42664D01*
X19370Y38800D01*
Y34860D01*
X20139Y30996D01*
X21646Y27357D01*
X23835Y24081D01*
X26621Y21295D01*
X29897Y19106D01*
X33536Y17599D01*
X37400Y16830D01*
X41340D01*
X45204Y17599D01*
X48843Y19106D01*
X52119Y21295D01*
X54905Y24081D01*
X57094Y27357D01*
X58601Y30996D01*
X59370Y34860D01*
Y38800D01*
X58601Y42664D01*
X57094Y46304D01*
X54905Y49579D01*
X52119Y52365D01*
X48843Y54554D01*
X45204Y56061D01*
X41340Y56830D01*
D02*
G37*
%LPD*%
G36*
X139774Y1096912D02*
Y1092568D01*
X125193Y1077987D01*
X124949D01*
X123956Y1078748D01*
X123854Y1079091D01*
Y1079909D01*
X123956Y1080252D01*
X126515Y1082215D01*
X128759Y1085140D01*
X130170Y1088545D01*
X130651Y1092200D01*
X130170Y1095855D01*
X128759Y1099260D01*
X126515Y1102185D01*
X123590Y1104429D01*
X120185Y1105840D01*
X116530Y1106321D01*
X109530D01*
X105875Y1105840D01*
X102470Y1104429D01*
X100233Y1102712D01*
X99394Y1103669D01*
X105501Y1109777D01*
X126909D01*
X139774Y1096912D01*
D02*
G37*
G36*
X65258Y827638D02*
X79414Y813482D01*
X79650Y811685D01*
X81061Y808280D01*
X83305Y805355D01*
X85864Y803392D01*
X85966Y803049D01*
Y802231D01*
X85864Y801888D01*
X83305Y799925D01*
X81061Y797000D01*
X79650Y793595D01*
X79169Y789940D01*
X79650Y786285D01*
X81061Y782880D01*
X83305Y779955D01*
X85164Y778529D01*
Y760810D01*
X83990Y760324D01*
X63426Y780888D01*
Y827939D01*
X64696Y828370D01*
X65258Y827638D01*
D02*
G37*
G36*
X124534Y662572D02*
Y495394D01*
X123360Y494908D01*
X114226Y504043D01*
Y651510D01*
X113883Y654120D01*
X112875Y656553D01*
X111272Y658642D01*
X30406Y739508D01*
Y755040D01*
X31580Y755526D01*
X124534Y662572D01*
D02*
G37*
G36*
X153448Y662338D02*
Y655790D01*
X153697Y653897D01*
X154427Y652134D01*
X155589Y650619D01*
X157104Y649457D01*
X157902Y649127D01*
X158200Y647629D01*
X156307Y645736D01*
X154464Y642544D01*
X153510Y638983D01*
Y635297D01*
X154464Y631736D01*
X156307Y628544D01*
X158914Y625937D01*
X160407Y625075D01*
Y623805D01*
X158914Y622943D01*
X156307Y620336D01*
X154464Y617144D01*
X153510Y613583D01*
Y609897D01*
X154464Y606336D01*
X156307Y603144D01*
X158914Y600537D01*
X160407Y599675D01*
Y598405D01*
X158914Y597543D01*
X156307Y594936D01*
X154464Y591744D01*
X153510Y588183D01*
Y584497D01*
X154464Y580936D01*
X156307Y577744D01*
X158914Y575137D01*
X160407Y574275D01*
Y573005D01*
X158914Y572143D01*
X156307Y569536D01*
X154464Y566344D01*
X153510Y562783D01*
Y559097D01*
X154464Y555536D01*
X156307Y552344D01*
X158914Y549737D01*
X160407Y548875D01*
Y547605D01*
X158914Y546743D01*
X156307Y544136D01*
X154464Y540944D01*
X153510Y537383D01*
Y533697D01*
X154464Y530136D01*
X156307Y526944D01*
X158914Y524337D01*
X160407Y523475D01*
Y522205D01*
X158914Y521343D01*
X156307Y518736D01*
X154464Y515544D01*
X153510Y511983D01*
Y508297D01*
X154464Y504736D01*
X156307Y501544D01*
X158914Y498937D01*
X160407Y498075D01*
Y496805D01*
X158914Y495943D01*
X157797Y494826D01*
X144706D01*
Y666750D01*
X144363Y669361D01*
X144174Y669816D01*
X145251Y670535D01*
X153448Y662338D01*
D02*
G37*
G36*
X366106Y1005366D02*
X365834Y1003300D01*
Y971289D01*
Y966470D01*
Y955040D01*
Y938092D01*
X364564Y937244D01*
X362617Y938050D01*
X361876Y938197D01*
Y1002932D01*
X364903Y1005959D01*
X366106Y1005366D01*
D02*
G37*
G36*
X52297Y537504D02*
X53414Y536387D01*
Y454212D01*
X52297Y453095D01*
X51953Y452499D01*
X50726Y452828D01*
Y537771D01*
X51953Y538100D01*
X52297Y537504D01*
D02*
G37*
D10*
X437458Y633128D02*
X448310Y622277D01*
X429260Y662540D02*
X433260Y658540D01*
X448310Y144095D02*
Y622277D01*
X351790Y1007110D02*
X384760Y1040080D01*
X101323Y1119863D02*
X131087D01*
X321310Y791210D02*
X441960Y911860D01*
X149860Y1088390D02*
Y1101090D01*
X352790Y931535D02*
Y933498D01*
X378190Y928640D02*
Y932228D01*
X131087Y1119863D02*
X149860Y1101090D01*
X20320Y1038860D02*
X101323Y1119863D01*
X352790Y931535D02*
X358140Y926185D01*
X114130Y1067900D02*
X129370D01*
X144780Y981710D02*
X146311Y983241D01*
X351790Y934498D02*
X352790Y933498D01*
X107107Y897840D02*
X124837Y880110D01*
X543560Y99060D02*
Y137669D01*
X486410Y194819D02*
X543560Y137669D01*
X440002Y658540D02*
X464820Y633722D01*
X124837Y880110D02*
X144780D01*
X378190Y928640D02*
X383540Y923290D01*
X375920Y934498D02*
Y955040D01*
X393700Y972820D02*
X393700D01*
X441960Y967740D02*
X495300Y1021080D01*
X170180Y730250D02*
X261620Y638810D01*
X72390Y834770D02*
X91820Y815340D01*
X304800Y1040130D02*
X401320Y1136650D01*
X429260Y143510D02*
Y242570D01*
X261620Y410210D02*
X429260Y242570D01*
X95250Y734800D02*
Y787400D01*
Y734800D02*
X167510Y662540D01*
X95250Y787400D02*
X97790Y789940D01*
X104140Y499865D02*
Y651510D01*
Y499865D02*
X143510Y460495D01*
X134620Y490598D02*
Y666750D01*
X502920Y58420D02*
X543560Y99060D01*
X321310Y426720D02*
Y671830D01*
X99060Y133350D02*
X124460D01*
X161290Y58420D02*
X502920D01*
X218440Y984250D02*
X243840Y958850D01*
X134620Y490598D02*
X140478Y484740D01*
X166355Y460495D02*
X167510Y459340D01*
X143510Y460495D02*
X166355D01*
X140478Y484740D02*
X167510D01*
X519430Y854710D02*
X544830Y880110D01*
X390290Y357740D02*
X429260D01*
X124460Y133350D02*
X125730Y132080D01*
Y93980D02*
Y132080D01*
Y93980D02*
X161290Y58420D01*
X261620Y410210D02*
Y638810D01*
X63500Y444499D02*
Y546100D01*
X433260Y658540D02*
X440002D01*
X397510Y650240D02*
X410610Y637140D01*
X397510Y650240D02*
Y685800D01*
X410610Y637140D02*
X429260D01*
X397510Y685800D02*
X464820Y753110D01*
X321310Y671830D02*
Y791210D01*
Y426720D02*
X390290Y357740D01*
X441960Y911860D02*
Y967740D01*
X35560Y765810D02*
Y1023620D01*
X20320Y735330D02*
Y1038860D01*
X107365Y1092200D02*
X113030D01*
X103365Y1088200D02*
X107365Y1092200D01*
X375920Y971289D02*
Y1003300D01*
X53340Y875030D02*
X76150Y897840D01*
X91820Y815340D02*
X97790D01*
X53340Y776710D02*
X95250Y734800D01*
X20320Y735330D02*
X104140Y651510D01*
X35560Y765810D02*
X134620Y666750D01*
X393700Y1021080D02*
Y1021080D01*
X40640Y624840D02*
X63500Y647700D01*
X40640Y397510D02*
Y624840D01*
Y397510D02*
X75635Y362515D01*
Y247257D02*
Y362515D01*
Y238195D02*
Y247257D01*
X135718Y307340D01*
X167510D01*
X73660Y236220D02*
X75635Y238195D01*
X73660Y133350D02*
Y236220D01*
X464820Y753110D02*
X464820D01*
X519430D02*
X519430D01*
X464820Y854710D02*
X466985D01*
X488950Y1136650D02*
X544830Y1080770D01*
Y880110D02*
Y913130D01*
X466985Y854710D02*
X470985Y858710D01*
X490410D01*
X544830Y913130D01*
X429260Y242570D02*
Y307340D01*
X332740Y1009273D02*
X386457Y1062990D01*
X447040D01*
X351790Y934498D02*
Y1007110D01*
X384760Y1040080D02*
X462230D01*
X358140Y923290D02*
Y926185D01*
X375920Y1003300D02*
X393700Y1021080D01*
X447040Y1088390D02*
X468630D01*
X462230Y1040080D02*
X478790Y1056640D01*
X468630Y1088390D02*
X478790Y1078230D01*
Y1056640D02*
Y1078230D01*
X375920Y934498D02*
X378190Y932228D01*
X375920Y955040D02*
X393700Y972820D01*
X544830Y913130D02*
Y1080770D01*
X401320Y1136650D02*
X488950D01*
X243840Y825901D02*
X244314Y825427D01*
X243840Y825901D02*
Y958850D01*
X453390Y133350D02*
Y139015D01*
X464820Y633722D02*
Y698500D01*
X275590Y881380D02*
X315453Y921243D01*
X330693D02*
X332740Y923290D01*
X87630Y980440D02*
X89161Y981971D01*
X144780Y981710D02*
X170180Y956310D01*
X315453Y921243D02*
X330693D01*
X170180Y730250D02*
Y956310D01*
X96781Y981971D02*
X207010Y1092200D01*
X170180Y956310D02*
Y1008380D01*
X113030Y1066800D02*
X114130Y1067900D01*
X35560Y1023620D02*
X100140Y1088200D01*
X332740Y923290D02*
Y1009273D01*
X129370Y1067900D02*
X149860Y1088390D01*
X464980Y152130D02*
Y628290D01*
X100140Y1088200D02*
X103365D01*
X218440Y880485D02*
Y882650D01*
X375920Y955040D02*
Y966470D01*
X210820Y782320D02*
X321310Y671830D01*
X448310Y144095D02*
X453390Y139015D01*
X244314Y823546D02*
Y825427D01*
X210820Y872865D02*
X218440Y880485D01*
X464820Y698500D02*
X519430Y753110D01*
X243840Y823072D02*
X244314Y823546D01*
X201930Y1040130D02*
X304800D01*
X210820Y782320D02*
Y872865D01*
X464980Y152130D02*
X478790Y138320D01*
Y133350D02*
Y138320D01*
X207010Y1092200D02*
X269240D01*
X89161Y981971D02*
X96781D01*
X464820Y628450D02*
Y633722D01*
X72390Y864870D02*
X86360Y878840D01*
X87630D01*
X486410Y194819D02*
Y236220D01*
X86099Y877309D02*
X87630Y878840D01*
X76150Y897840D02*
X107107D01*
X53340Y776710D02*
Y875030D01*
X375920Y966470D02*
Y971289D01*
X72390Y834770D02*
Y864870D01*
X170180Y1008380D02*
X201930Y1040130D01*
D11*
X519430Y854710D02*
D03*
Y753110D02*
D03*
X87630Y878840D02*
D03*
Y980440D02*
D03*
X144780Y880110D02*
D03*
Y981710D02*
D03*
X63500Y647700D02*
D03*
X167510Y484740D02*
D03*
X429260Y637140D02*
D03*
X464820Y753110D02*
D03*
X393700Y1021080D02*
D03*
Y972820D02*
D03*
X218440Y984250D02*
D03*
X63500Y546100D02*
D03*
Y444499D02*
D03*
X275590Y881380D02*
D03*
X429260Y332340D02*
D03*
X167510D02*
D03*
X495300Y972820D02*
D03*
X88900Y444501D02*
D03*
X275590Y982980D02*
D03*
X429260Y357740D02*
D03*
X495300Y1021080D02*
D03*
X218440Y882650D02*
D03*
X167510Y459340D02*
D03*
X429260Y307340D02*
D03*
X464820Y854710D02*
D03*
X167510Y307340D02*
D03*
X429260Y611740D02*
D03*
Y586340D02*
D03*
Y560940D02*
D03*
Y510140D02*
D03*
Y484740D02*
D03*
Y459340D02*
D03*
Y433940D02*
D03*
Y383140D02*
D03*
Y408540D02*
D03*
Y535540D02*
D03*
X167510Y637140D02*
D03*
Y611740D02*
D03*
Y586340D02*
D03*
Y560940D02*
D03*
Y510140D02*
D03*
Y433940D02*
D03*
Y357740D02*
D03*
Y383140D02*
D03*
Y408540D02*
D03*
Y535540D02*
D03*
D12*
X269240Y1066800D02*
D03*
X447040Y1062990D02*
D03*
D13*
X269240Y1092200D02*
D03*
X447040Y1088390D02*
D03*
X73660Y236220D02*
D03*
X486410D02*
D03*
D14*
X113030Y1066800D02*
D03*
Y1092200D02*
D03*
D15*
Y1041400D02*
D03*
D16*
X97790Y840740D02*
D03*
Y815340D02*
D03*
Y789940D02*
D03*
D17*
X245110Y821690D02*
D03*
X270510D02*
D03*
D18*
X383540Y923290D02*
D03*
D19*
X358140D02*
D03*
X332740D02*
D03*
D20*
X453390Y133350D02*
D03*
X478790D02*
D03*
X149860D02*
D03*
X427990D02*
D03*
X73660D02*
D03*
X99060D02*
D03*
X124460D02*
D03*
D21*
X429260Y662540D02*
D03*
X167510D02*
D03*
D22*
X99060Y236220D02*
D03*
X511810D02*
D03*
D23*
X175260Y133350D02*
D03*
X504190D02*
D03*
D24*
X39370Y1165860D02*
D03*
Y36830D02*
D03*
X565150D02*
D03*
Y1165860D02*
D03*
M02*
