G04*
G04 #@! TF.GenerationSoftware,Altium Limited,Altium Designer,21.0.9 (235)*
G04*
G04 Layer_Color=16711935*
%FSLAX44Y44*%
%MOMM*%
G71*
G04*
G04 #@! TF.SameCoordinates,A5C90C27-E0DC-4246-AD6F-4CBF63F12547*
G04*
G04*
G04 #@! TF.FilePolarity,Negative*
G04*
G01*
G75*
%ADD25C,2.0032*%
%ADD26R,2.2352X2.2352*%
%ADD27C,2.2352*%
%ADD28O,2.7032X2.0032*%
%ADD29R,2.7032X2.2032*%
%ADD30O,2.9032X2.0032*%
%ADD31C,1.6192*%
%ADD32R,2.2732X2.2732*%
%ADD33C,2.2732*%
%ADD34O,2.0032X2.7032*%
G04:AMPARAMS|DCode=35|XSize=2.0032mm|YSize=2.0032mm|CornerRadius=0.3266mm|HoleSize=0mm|Usage=FLASHONLY|Rotation=270.000|XOffset=0mm|YOffset=0mm|HoleType=Round|Shape=RoundedRectangle|*
%AMROUNDEDRECTD35*
21,1,2.0032,1.3500,0,0,270.0*
21,1,1.3500,2.0032,0,0,270.0*
1,1,0.6532,-0.6750,-0.6750*
1,1,0.6532,-0.6750,0.6750*
1,1,0.6532,0.6750,0.6750*
1,1,0.6532,0.6750,-0.6750*
%
%ADD35ROUNDEDRECTD35*%
%ADD36R,2.2352X2.2352*%
%ADD37R,2.2032X2.7032*%
%ADD38C,3.2032*%
D25*
X519430Y854710D02*
D03*
Y753110D02*
D03*
X87630Y878840D02*
D03*
Y980440D02*
D03*
X144780Y880110D02*
D03*
Y981710D02*
D03*
X63500Y647700D02*
D03*
X167510Y484740D02*
D03*
X429260Y637140D02*
D03*
X464820Y753110D02*
D03*
X393700Y1021080D02*
D03*
Y972820D02*
D03*
X218440Y984250D02*
D03*
X63500Y546100D02*
D03*
Y444499D02*
D03*
X275590Y881380D02*
D03*
X429260Y332340D02*
D03*
X167510D02*
D03*
X495300Y972820D02*
D03*
X88900Y444501D02*
D03*
X275590Y982980D02*
D03*
X429260Y357740D02*
D03*
X495300Y1021080D02*
D03*
X218440Y882650D02*
D03*
X167510Y459340D02*
D03*
X429260Y307340D02*
D03*
X464820Y854710D02*
D03*
X167510Y307340D02*
D03*
X429260Y611740D02*
D03*
Y586340D02*
D03*
Y560940D02*
D03*
Y510140D02*
D03*
Y484740D02*
D03*
Y459340D02*
D03*
Y433940D02*
D03*
Y383140D02*
D03*
Y408540D02*
D03*
Y535540D02*
D03*
X167510Y637140D02*
D03*
Y611740D02*
D03*
Y586340D02*
D03*
Y560940D02*
D03*
Y510140D02*
D03*
Y433940D02*
D03*
Y357740D02*
D03*
Y383140D02*
D03*
Y408540D02*
D03*
Y535540D02*
D03*
D26*
X269240Y1066800D02*
D03*
X447040Y1062990D02*
D03*
D27*
X269240Y1092200D02*
D03*
X447040Y1088390D02*
D03*
X73660Y236220D02*
D03*
X486410D02*
D03*
D28*
X113030Y1066800D02*
D03*
Y1092200D02*
D03*
D29*
Y1041400D02*
D03*
D30*
X97790Y840740D02*
D03*
Y815340D02*
D03*
Y789940D02*
D03*
D31*
X245110Y821690D02*
D03*
X270510D02*
D03*
D32*
X383540Y923290D02*
D03*
D33*
X358140D02*
D03*
X332740D02*
D03*
D34*
X453390Y133350D02*
D03*
X478790D02*
D03*
X149860D02*
D03*
X427990D02*
D03*
X73660D02*
D03*
X99060D02*
D03*
X124460D02*
D03*
D35*
X429260Y662540D02*
D03*
X167510D02*
D03*
D36*
X99060Y236220D02*
D03*
X511810D02*
D03*
D37*
X175260Y133350D02*
D03*
X504190D02*
D03*
D38*
X39370Y1165860D02*
D03*
Y36830D02*
D03*
X565150D02*
D03*
Y1165860D02*
D03*
M02*
