M48
;Layer_Color=9474304
;FILE_FORMAT=4:4
METRIC,LZ
;TYPE=PLATED
T1F00S00C1.1000
T2F00S00C3.0000
%
T01
X0011303Y0009398
X0013843
X0016383
X0018923
X0019939Y0015494
Y0018034
Y0020574
X0020066Y002794
Y003048
Y003302
X0009906
Y003048
Y002794
Y0020574
Y0018034
Y0015494
T02
X0002921Y0002921
X0027559
Y0037084
X0002921
M30
