M48
;Layer_Color=9474304
;FILE_FORMAT=4:4
METRIC,LZ
;TYPE=PLATED
T1F00S00C0.7112
T2F00S00C0.9000
T3F00S00C1.0000
T4F00S00C1.1000
T5F00S00C3.0000
%
T01
X0056388Y0010922
Y0018034
X0037338Y0033274
X0037084Y0043561
X0036576Y0066167
X0023749Y0066421
X0034036Y011303
X0042926
T02
X0009144Y0053213
X00091438Y0055753
X0014224Y0077597
Y0087757
X0021844
X0029591
X0037084
X0044704
X0052324
Y0077597
X0044704
X0037084
X0029591
X0021844
T03
X0016891Y0030988
Y0033488
Y0036028
Y0038568
Y0041108
Y0043648
Y0046188
Y0048728
Y0051268
Y0053808
X0043066
Y0051268
Y0048728
Y0046188
Y0043648
Y0041108
Y0038568
Y0036028
Y0033488
Y0030988
X0008128Y0078486
Y0081026
Y0083566
X0016891Y0066508
Y0063968
Y0061428
Y0058888
Y0056348
X0043066
Y0058888
Y0061428
Y0063968
Y0066508
T04
X0007366Y0013335
X0009906
X0012446
X0014986
X0017526
X0044196
X0046736
X0049276
X0051816
Y0023749
X0049276
X0010287
X0007747
X002032Y0103632
Y0106172
Y0108712
X003048
Y0106172
Y0103632
X004064Y010414
Y01016
Y010668
Y010922
X00508Y0108712
Y0106172
X0010414
Y0108712
T05
X0004191Y0003556
X0056769
Y0116459
X0004191
M30
