G04*
G04 #@! TF.GenerationSoftware,Altium Limited,Altium Designer,21.5.1 (32)*
G04*
G04 Layer_Physical_Order=2*
G04 Layer_Color=16711680*
%FSLAX44Y44*%
%MOMM*%
G71*
G04*
G04 #@! TF.SameCoordinates,6957E51B-72B2-4F9C-87A1-2D053477FA67*
G04*
G04*
G04 #@! TF.FilePolarity,Positive*
G04*
G01*
G75*
%ADD10C,1.0000*%
%ADD11C,1.2000*%
%ADD12C,1.8000*%
%ADD13R,1.1600X1.1600*%
%ADD14C,1.1600*%
%ADD15O,2.5000X1.8000*%
%ADD16R,2.5000X2.0000*%
%ADD17R,2.0320X2.0320*%
%ADD18C,2.0320*%
%ADD19O,2.7000X1.8000*%
%ADD20R,2.0700X2.0700*%
%ADD21C,2.0700*%
%ADD22O,1.8000X2.5000*%
G04:AMPARAMS|DCode=23|XSize=1.8mm|YSize=1.8mm|CornerRadius=0.225mm|HoleSize=0mm|Usage=FLASHONLY|Rotation=270.000|XOffset=0mm|YOffset=0mm|HoleType=Round|Shape=RoundedRectangle|*
%AMROUNDEDRECTD23*
21,1,1.8000,1.3500,0,0,270.0*
21,1,1.3500,1.8000,0,0,270.0*
1,1,0.4500,-0.6750,-0.6750*
1,1,0.4500,-0.6750,0.6750*
1,1,0.4500,0.6750,0.6750*
1,1,0.4500,0.6750,-0.6750*
%
%ADD23ROUNDEDRECTD23*%
%ADD24R,2.0320X2.0320*%
%ADD25R,2.0000X2.5000*%
%ADD26C,3.0000*%
%ADD27C,1.2700*%
G36*
X603250Y1270D02*
X600710Y-1270D01*
X599440Y0D01*
X0D01*
X-1270Y1200150D01*
X0Y1201420D01*
X603250D01*
Y1270D01*
D02*
G37*
%LPC*%
G36*
X567120Y1185860D02*
X563180D01*
X559316Y1185091D01*
X555676Y1183584D01*
X552401Y1181395D01*
X549615Y1178609D01*
X547426Y1175333D01*
X545919Y1171694D01*
X545150Y1167830D01*
Y1163890D01*
X545919Y1160026D01*
X547426Y1156386D01*
X549615Y1153111D01*
X552401Y1150325D01*
X555676Y1148136D01*
X559316Y1146629D01*
X563180Y1145860D01*
X567120D01*
X570984Y1146629D01*
X574623Y1148136D01*
X577899Y1150325D01*
X580685Y1153111D01*
X582874Y1156386D01*
X584381Y1160026D01*
X585150Y1163890D01*
Y1167830D01*
X584381Y1171694D01*
X582874Y1175333D01*
X580685Y1178609D01*
X577899Y1181395D01*
X574623Y1183584D01*
X570984Y1185091D01*
X567120Y1185860D01*
D02*
G37*
G36*
X41340D02*
X37400D01*
X33536Y1185091D01*
X29897Y1183584D01*
X26621Y1181395D01*
X23835Y1178609D01*
X21646Y1175333D01*
X20139Y1171694D01*
X19370Y1167830D01*
Y1163890D01*
X20139Y1160026D01*
X21646Y1156386D01*
X23835Y1153111D01*
X26621Y1150325D01*
X29897Y1148136D01*
X33536Y1146629D01*
X37400Y1145860D01*
X41340D01*
X45204Y1146629D01*
X48843Y1148136D01*
X52119Y1150325D01*
X54905Y1153111D01*
X57094Y1156386D01*
X58601Y1160026D01*
X59370Y1163890D01*
Y1167830D01*
X58601Y1171694D01*
X57094Y1175333D01*
X54905Y1178609D01*
X52119Y1181395D01*
X48843Y1183584D01*
X45204Y1185091D01*
X41340Y1185860D01*
D02*
G37*
G36*
X307340Y1151555D02*
X184150D01*
X181278Y1151177D01*
X178603Y1150069D01*
X176305Y1148305D01*
X153445Y1125445D01*
X151681Y1123148D01*
X150573Y1120472D01*
X150195Y1117600D01*
Y1107274D01*
X149460Y1106969D01*
X146535Y1104725D01*
X144291Y1101800D01*
X142880Y1098395D01*
X142399Y1094740D01*
X142880Y1091085D01*
X144291Y1087680D01*
X146535Y1084755D01*
X149094Y1082792D01*
X149196Y1082449D01*
Y1081631D01*
X149094Y1081288D01*
X146535Y1079325D01*
X146506Y1079287D01*
X134919D01*
X132047Y1078909D01*
X129371Y1077800D01*
X127073Y1076037D01*
X27025Y975988D01*
X25262Y973691D01*
X24153Y971015D01*
X23775Y968143D01*
Y698264D01*
X24153Y695393D01*
X25262Y692717D01*
X27025Y690419D01*
X87645Y629799D01*
Y555600D01*
X86390Y555564D01*
X85436Y559125D01*
X83593Y562317D01*
X80986Y564924D01*
X77794Y566767D01*
X74233Y567721D01*
X70547D01*
X66986Y566767D01*
X63794Y564924D01*
X61187Y562317D01*
X59344Y559125D01*
X58390Y555564D01*
Y551878D01*
X59344Y548317D01*
X61187Y545125D01*
X61295Y545017D01*
Y478604D01*
X61187Y478496D01*
X59344Y475304D01*
X58390Y471743D01*
Y468057D01*
X59344Y464496D01*
X61187Y461304D01*
X63794Y458697D01*
X66986Y456854D01*
X70547Y455900D01*
X74233D01*
X77794Y456854D01*
X80986Y458697D01*
X83593Y461304D01*
X85436Y464496D01*
X86390Y468057D01*
X87645Y468021D01*
Y451566D01*
X88023Y448694D01*
X89131Y446018D01*
X90895Y443721D01*
X178050Y356565D01*
X180348Y354802D01*
X180872Y354585D01*
X181134Y353606D01*
X182977Y350414D01*
X185584Y347807D01*
X188776Y345964D01*
X192337Y345010D01*
X196023D01*
X199584Y345964D01*
X202776Y347807D01*
X205383Y350414D01*
X207226Y353606D01*
X208180Y357167D01*
Y360853D01*
X207226Y364414D01*
X205383Y367606D01*
X202776Y370213D01*
X201283Y371075D01*
Y372345D01*
X202776Y373207D01*
X205383Y375814D01*
X207226Y379006D01*
X208180Y382567D01*
Y386253D01*
X207226Y389814D01*
X205383Y393006D01*
X202776Y395613D01*
X201283Y396475D01*
Y397745D01*
X202776Y398607D01*
X205383Y401214D01*
X207226Y404406D01*
X208180Y407967D01*
Y411653D01*
X207226Y415214D01*
X205383Y418406D01*
X202776Y421013D01*
X201283Y421875D01*
Y423145D01*
X202776Y424007D01*
X205383Y426614D01*
X207226Y429806D01*
X208180Y433367D01*
Y437053D01*
X207226Y440614D01*
X205383Y443806D01*
X202776Y446413D01*
X201283Y447275D01*
Y448545D01*
X202776Y449407D01*
X205383Y452014D01*
X207226Y455206D01*
X208180Y458767D01*
Y462453D01*
X207226Y466014D01*
X205383Y469206D01*
X202776Y471813D01*
X201283Y472675D01*
Y473945D01*
X202776Y474807D01*
X205383Y477414D01*
X207226Y480606D01*
X208180Y484167D01*
Y487853D01*
X207226Y491414D01*
X205383Y494606D01*
X202776Y497213D01*
X201283Y498075D01*
Y499345D01*
X202776Y500207D01*
X205383Y502814D01*
X207226Y506006D01*
X208180Y509567D01*
Y513253D01*
X207226Y516814D01*
X205383Y520006D01*
X202776Y522613D01*
X201283Y523475D01*
Y524745D01*
X202776Y525607D01*
X205383Y528214D01*
X207226Y531406D01*
X208180Y534967D01*
Y538653D01*
X207226Y542214D01*
X205383Y545406D01*
X202776Y548013D01*
X201283Y548875D01*
Y550145D01*
X202776Y551007D01*
X205383Y553614D01*
X207226Y556806D01*
X208180Y560367D01*
Y564053D01*
X207226Y567614D01*
X205383Y570806D01*
X202776Y573413D01*
X201283Y574275D01*
Y575545D01*
X202776Y576407D01*
X205383Y579014D01*
X207226Y582206D01*
X208180Y585767D01*
Y589453D01*
X207226Y593014D01*
X205383Y596206D01*
X202776Y598813D01*
X201283Y599675D01*
Y600945D01*
X202776Y601807D01*
X205383Y604414D01*
X207226Y607606D01*
X208180Y611167D01*
Y614853D01*
X207226Y618414D01*
X205383Y621606D01*
X202776Y624213D01*
X201283Y625075D01*
Y626345D01*
X202776Y627207D01*
X205383Y629814D01*
X207226Y633006D01*
X208180Y636567D01*
Y640253D01*
X207226Y643814D01*
X205383Y647006D01*
X203490Y648899D01*
X203788Y650397D01*
X204586Y650727D01*
X206101Y651889D01*
X207263Y653404D01*
X207993Y655167D01*
X208242Y657060D01*
Y670560D01*
X207993Y672453D01*
X207263Y674216D01*
X206101Y675731D01*
X205405Y676265D01*
Y693420D01*
Y725532D01*
X224062Y744190D01*
X225363D01*
X228924Y745144D01*
X232116Y746987D01*
X234723Y749594D01*
X236566Y752786D01*
X237520Y756347D01*
Y760033D01*
X236566Y763594D01*
X234723Y766786D01*
X232116Y769393D01*
X228924Y771236D01*
X225363Y772190D01*
X221677D01*
X218116Y771236D01*
X214924Y769393D01*
X212317Y766786D01*
X210474Y763594D01*
X209884Y761393D01*
X199698Y751206D01*
X198559Y751864D01*
X199420Y755077D01*
Y758763D01*
X198466Y762324D01*
X196623Y765516D01*
X194016Y768123D01*
X190824Y769966D01*
X187263Y770920D01*
X185841D01*
X162607Y794154D01*
X160309Y795917D01*
X157633Y797025D01*
X154762Y797403D01*
X142731D01*
X139830Y799629D01*
X136425Y801040D01*
X132770Y801521D01*
X123770D01*
X120115Y801040D01*
X116710Y799629D01*
X115104Y798397D01*
X113965Y798959D01*
Y868271D01*
X246605Y1000911D01*
X248368Y1003209D01*
X249477Y1005885D01*
X249855Y1008757D01*
Y1043154D01*
X260110Y1053409D01*
X270302D01*
X272750Y1052395D01*
X276405Y1051914D01*
X283405D01*
X287059Y1052395D01*
X290465Y1053806D01*
X293390Y1056050D01*
X295634Y1058974D01*
X297044Y1062380D01*
X297525Y1066035D01*
X297044Y1069689D01*
X295634Y1073095D01*
X293390Y1076020D01*
X290831Y1077983D01*
X290728Y1078326D01*
Y1079143D01*
X290831Y1079487D01*
X293390Y1081450D01*
X295634Y1084374D01*
X297044Y1087780D01*
X297525Y1091435D01*
X297044Y1095089D01*
X295634Y1098495D01*
X293390Y1101420D01*
X290465Y1103664D01*
X287059Y1105074D01*
X283405Y1105555D01*
X276405D01*
X272750Y1105074D01*
X269344Y1103664D01*
X267209Y1102025D01*
X257810D01*
X254938Y1101647D01*
X252262Y1100538D01*
X249965Y1098775D01*
X213773Y1062584D01*
X212010Y1060286D01*
X210901Y1057610D01*
X210523Y1054738D01*
Y1020252D01*
X81138Y890867D01*
X79965Y891353D01*
Y944384D01*
X141495Y1005914D01*
X150417D01*
X152865Y1004900D01*
X156520Y1004419D01*
X163520D01*
X167175Y1004900D01*
X170580Y1006311D01*
X173505Y1008555D01*
X175749Y1011480D01*
X177160Y1014885D01*
X177641Y1018540D01*
X177160Y1022195D01*
X175749Y1025600D01*
X173505Y1028525D01*
X170947Y1030488D01*
X170844Y1030831D01*
Y1031649D01*
X170947Y1031992D01*
X173505Y1033955D01*
X175749Y1036880D01*
X177160Y1040285D01*
X177641Y1043940D01*
X177160Y1047595D01*
X175749Y1051000D01*
X173505Y1053925D01*
X170947Y1055888D01*
X170844Y1056231D01*
Y1057049D01*
X170947Y1057392D01*
X173505Y1059355D01*
X175749Y1062280D01*
X177160Y1065685D01*
X177641Y1069340D01*
X177160Y1072995D01*
X175749Y1076400D01*
X173505Y1079325D01*
X170947Y1081288D01*
X170844Y1081631D01*
Y1082449D01*
X170947Y1082792D01*
X173505Y1084755D01*
X175749Y1087680D01*
X177160Y1091085D01*
X177641Y1094740D01*
X177160Y1098395D01*
X175749Y1101800D01*
X173505Y1104725D01*
X172385Y1105584D01*
Y1113004D01*
X188746Y1129365D01*
X302744D01*
X319885Y1112224D01*
Y1051767D01*
X154715Y886597D01*
X152951Y884299D01*
X151843Y881623D01*
X151465Y878752D01*
Y846499D01*
X151843Y843628D01*
X152951Y840952D01*
X154715Y838654D01*
X162694Y830675D01*
X164992Y828912D01*
X167668Y827803D01*
X170539Y827425D01*
X193704D01*
X196576Y827803D01*
X199252Y828912D01*
X199867Y829384D01*
X238392D01*
X252804Y814972D01*
Y722630D01*
X253147Y720020D01*
X254155Y717587D01*
X255758Y715498D01*
X313573Y657683D01*
X313086Y656510D01*
X312196D01*
X309309Y655736D01*
X306721Y654242D01*
X304608Y652129D01*
X303113Y649541D01*
X302340Y646654D01*
Y643666D01*
X303113Y640779D01*
X303604Y639930D01*
Y615503D01*
X302487Y614386D01*
X300644Y611194D01*
X299690Y607633D01*
Y603947D01*
X300644Y600386D01*
X301064Y599659D01*
Y566420D01*
X301407Y563810D01*
X302415Y561377D01*
X304018Y559288D01*
X317639Y545667D01*
X319018Y543279D01*
X321029Y541268D01*
X323491Y539846D01*
X326238Y539110D01*
X329082D01*
X331829Y539846D01*
X334084Y541148D01*
X335354Y540725D01*
Y533907D01*
X334215Y533346D01*
X333207Y534118D01*
X330532Y535227D01*
X327660Y535605D01*
X324788Y535227D01*
X322113Y534118D01*
X319815Y532355D01*
X272825Y485365D01*
X271061Y483068D01*
X269953Y480392D01*
X269575Y477520D01*
Y343686D01*
X216384Y290495D01*
X183666D01*
X176671Y297490D01*
X177157Y298663D01*
X184328D01*
X185584Y297407D01*
X188776Y295564D01*
X192337Y294610D01*
X196023D01*
X199584Y295564D01*
X202776Y297407D01*
X205383Y300014D01*
X207226Y303206D01*
X208180Y306767D01*
Y310453D01*
X207226Y314014D01*
X205383Y317206D01*
X202776Y319813D01*
X199584Y321656D01*
X196023Y322610D01*
X192337D01*
X188776Y321656D01*
X187385Y320853D01*
X136798D01*
X85981Y371670D01*
X85436Y373704D01*
X83593Y376896D01*
X80986Y379503D01*
X77794Y381346D01*
X74233Y382300D01*
X70547D01*
X66986Y381346D01*
X63794Y379503D01*
X61187Y376896D01*
X59344Y373704D01*
X58390Y370143D01*
Y366457D01*
X59344Y362896D01*
X61187Y359704D01*
X63794Y357097D01*
X66986Y355254D01*
X70547Y354300D01*
X71969D01*
X113849Y312420D01*
X93755Y292325D01*
X93755Y292325D01*
X91991Y290027D01*
X91398Y288594D01*
X90883Y287352D01*
X90883Y287351D01*
X90883Y287351D01*
X90704Y285992D01*
X90505Y284480D01*
X90505Y284480D01*
X90505Y284480D01*
X90692Y283061D01*
X90883Y281608D01*
X90883Y281608D01*
X91210Y280820D01*
Y249629D01*
X90666Y249265D01*
X88554Y247154D01*
X86895Y244671D01*
X85753Y241912D01*
X85170Y238983D01*
Y235997D01*
X85753Y233068D01*
X86895Y230309D01*
X88554Y227826D01*
X89235Y227145D01*
Y146658D01*
X88101Y145180D01*
X86690Y141775D01*
X86209Y138120D01*
Y131120D01*
X86690Y127465D01*
X88101Y124060D01*
X90345Y121135D01*
X93270Y118891D01*
X96675Y117480D01*
X100330Y116999D01*
X103985Y117480D01*
X107390Y118891D01*
X110315Y121135D01*
X112278Y123694D01*
X112621Y123796D01*
X113439D01*
X113782Y123694D01*
X115745Y121135D01*
X118670Y118891D01*
X122075Y117480D01*
X125730Y116999D01*
X129385Y117480D01*
X132790Y118891D01*
X135715Y121135D01*
X137549Y123525D01*
X139311D01*
X141145Y121135D01*
X141305Y121012D01*
Y95250D01*
X141683Y92378D01*
X142792Y89703D01*
X144555Y87405D01*
X155985Y75975D01*
X158282Y74212D01*
X160958Y73103D01*
X163830Y72725D01*
X553720D01*
X556592Y73103D01*
X559268Y74212D01*
X561565Y75975D01*
X578075Y92485D01*
X579838Y94782D01*
X580947Y97458D01*
X581325Y100330D01*
Y146050D01*
X580947Y148921D01*
X579838Y151597D01*
X578075Y153895D01*
X533036Y198934D01*
Y228666D01*
X534135Y230309D01*
X535277Y233068D01*
X535860Y235997D01*
Y238983D01*
X535277Y241912D01*
X534135Y244671D01*
X532476Y247154D01*
X530364Y249265D01*
X527881Y250925D01*
X525122Y252067D01*
X522193Y252650D01*
X519207D01*
X516278Y252067D01*
X513519Y250925D01*
X511036Y249265D01*
X508924Y247154D01*
X507265Y244671D01*
X506885Y243752D01*
X505615Y244005D01*
Y634502D01*
X505237Y637374D01*
X505125Y637644D01*
Y726924D01*
X526201Y748000D01*
X526353D01*
X529914Y748954D01*
X533106Y750797D01*
X535713Y753404D01*
X537556Y756596D01*
X538510Y760157D01*
Y763843D01*
X537556Y767404D01*
X535713Y770596D01*
X533106Y773203D01*
X529914Y775046D01*
X526353Y776000D01*
X522667D01*
X519106Y775046D01*
X515914Y773203D01*
X513307Y770596D01*
X511464Y767404D01*
X510510Y763843D01*
Y763691D01*
X486185Y739365D01*
X484422Y737067D01*
X483313Y734391D01*
X482935Y731520D01*
Y660897D01*
X481762Y660411D01*
X474517Y667655D01*
X472220Y669418D01*
X469992Y670341D01*
Y670560D01*
X469743Y672453D01*
X469013Y674216D01*
X467851Y675731D01*
X466336Y676893D01*
X464573Y677623D01*
X462680Y677872D01*
X449180D01*
X447975Y677714D01*
X446705Y678642D01*
Y725654D01*
X469051Y748000D01*
X469203D01*
X472764Y748954D01*
X475956Y750797D01*
X478563Y753404D01*
X480406Y756596D01*
X481360Y760157D01*
Y763843D01*
X480406Y767404D01*
X478563Y770596D01*
X475956Y773203D01*
X472764Y775046D01*
X469203Y776000D01*
X465517D01*
X461956Y775046D01*
X458764Y773203D01*
X456157Y770596D01*
X454314Y767404D01*
X453360Y763843D01*
Y763691D01*
X427765Y738095D01*
X426002Y735797D01*
X424893Y733121D01*
X424515Y730250D01*
Y646588D01*
X424893Y643716D01*
X426002Y641040D01*
X427765Y638742D01*
X434794Y631713D01*
X437092Y629950D01*
X439768Y628841D01*
X442639Y628463D01*
X446078D01*
X447334Y627207D01*
X448827Y626345D01*
Y625075D01*
X447334Y624213D01*
X444727Y621606D01*
X442884Y618414D01*
X441930Y614853D01*
Y611167D01*
X442884Y607606D01*
X444727Y604414D01*
X447334Y601807D01*
X448827Y600945D01*
Y599675D01*
X447334Y598813D01*
X444727Y596206D01*
X442884Y593014D01*
X441930Y589453D01*
Y585767D01*
X442884Y582206D01*
X444727Y579014D01*
X447334Y576407D01*
X448827Y575545D01*
Y574275D01*
X447334Y573413D01*
X444727Y570806D01*
X442884Y567614D01*
X441930Y564053D01*
Y560367D01*
X442884Y556806D01*
X444727Y553614D01*
X447334Y551007D01*
X448827Y550145D01*
Y548875D01*
X447334Y548013D01*
X444727Y545406D01*
X442884Y542214D01*
X441930Y538653D01*
Y534967D01*
X442884Y531406D01*
X444727Y528214D01*
X447334Y525607D01*
X448827Y524745D01*
Y523475D01*
X447334Y522613D01*
X444727Y520006D01*
X442884Y516814D01*
X441930Y513253D01*
Y509567D01*
X442884Y506006D01*
X444727Y502814D01*
X447334Y500207D01*
X448827Y499345D01*
Y498075D01*
X447334Y497213D01*
X444727Y494606D01*
X442884Y491414D01*
X441930Y487853D01*
Y484167D01*
X442884Y480606D01*
X444727Y477414D01*
X447334Y474807D01*
X448827Y473945D01*
Y472675D01*
X447334Y471813D01*
X444727Y469206D01*
X442884Y466014D01*
X441930Y462453D01*
Y458767D01*
X442884Y455206D01*
X444727Y452014D01*
X447334Y449407D01*
X448827Y448545D01*
Y447275D01*
X447334Y446413D01*
X444727Y443806D01*
X442884Y440614D01*
X441930Y437053D01*
Y433367D01*
X442884Y429806D01*
X444727Y426614D01*
X447334Y424007D01*
X448827Y423145D01*
Y421875D01*
X447334Y421013D01*
X444727Y418406D01*
X442884Y415214D01*
X441930Y411653D01*
Y407967D01*
X442884Y404406D01*
X444727Y401214D01*
X447334Y398607D01*
X448827Y397745D01*
Y396475D01*
X447334Y395613D01*
X444727Y393006D01*
X442884Y389814D01*
X441930Y386253D01*
Y382567D01*
X442884Y379006D01*
X444727Y375814D01*
X447334Y373207D01*
X448315Y372641D01*
X448416Y371216D01*
X447743Y370627D01*
X439927D01*
X398146Y412408D01*
Y488310D01*
X414094D01*
Y478343D01*
X412977Y477226D01*
X411134Y474034D01*
X410180Y470473D01*
Y466787D01*
X411134Y463226D01*
X412977Y460034D01*
X415584Y457427D01*
X418776Y455584D01*
X422337Y454630D01*
X426023D01*
X429584Y455584D01*
X432776Y457427D01*
X435383Y460034D01*
X437226Y463226D01*
X438180Y466787D01*
Y470473D01*
X437226Y474034D01*
X435383Y477226D01*
X434266Y478343D01*
Y544830D01*
Y595932D01*
X433923Y598543D01*
X432915Y600975D01*
X431312Y603064D01*
X429290Y605086D01*
Y607633D01*
X428336Y611194D01*
X426493Y614386D01*
X423886Y616993D01*
X420694Y618836D01*
X417133Y619790D01*
X413447D01*
X409886Y618836D01*
X406694Y616993D01*
X404087Y614386D01*
X402244Y611194D01*
X401290Y607633D01*
Y603947D01*
X402244Y600386D01*
X404087Y597194D01*
X406694Y594587D01*
X409886Y592744D01*
X413447Y591790D01*
X414058D01*
X414094Y591754D01*
Y556325D01*
X412824Y555984D01*
X412502Y556541D01*
X410491Y558552D01*
X408029Y559974D01*
X405282Y560710D01*
X402438D01*
X399691Y559974D01*
X397229Y558552D01*
X395218Y556541D01*
X393796Y554079D01*
X393060Y551332D01*
Y550319D01*
X380928Y538187D01*
X379325Y536098D01*
X378317Y533665D01*
X377974Y531055D01*
Y408230D01*
X378317Y405620D01*
X379325Y403187D01*
X380928Y401098D01*
X428617Y353409D01*
X430706Y351806D01*
X433139Y350798D01*
X435749Y350454D01*
X444704D01*
X444727Y350414D01*
X447334Y347807D01*
X450526Y345964D01*
X454087Y345010D01*
X457773D01*
X461334Y345964D01*
X464526Y347807D01*
X465252Y348533D01*
X466425Y348047D01*
Y319573D01*
X465252Y319087D01*
X464526Y319813D01*
X461334Y321656D01*
X457773Y322610D01*
X454087D01*
X450526Y321656D01*
X447334Y319813D01*
X444727Y317206D01*
X442884Y314014D01*
X441930Y310453D01*
Y306767D01*
X442884Y303206D01*
X444319Y300721D01*
X443302Y299942D01*
X355526Y387718D01*
Y640080D01*
X355183Y642691D01*
X354175Y645123D01*
X352572Y647212D01*
X272976Y726808D01*
Y809736D01*
X280186Y816945D01*
X467360D01*
X470232Y817323D01*
X472907Y818431D01*
X475205Y820195D01*
X507516Y852505D01*
X515806D01*
X515914Y852397D01*
X519106Y850554D01*
X522667Y849600D01*
X526353D01*
X529914Y850554D01*
X533106Y852397D01*
X535713Y855004D01*
X537556Y858196D01*
X538510Y861757D01*
Y865443D01*
X537556Y869004D01*
X535713Y872196D01*
X533106Y874803D01*
X529914Y876646D01*
X526353Y877600D01*
X522667D01*
X519106Y876646D01*
X515914Y874803D01*
X515806Y874695D01*
X476064D01*
X475956Y874803D01*
X472764Y876646D01*
X469203Y877600D01*
X465517D01*
X461956Y876646D01*
X458764Y874803D01*
X456157Y872196D01*
X454314Y869004D01*
X453360Y865443D01*
Y861757D01*
X454314Y858196D01*
X456157Y855004D01*
X458764Y852397D01*
X461956Y850554D01*
X465517Y849600D01*
X469203D01*
X472250Y850416D01*
X472907Y849278D01*
X462764Y839135D01*
X275590D01*
X272718Y838757D01*
X270042Y837648D01*
X267745Y835885D01*
X264082Y832222D01*
X248995Y847309D01*
X248995Y847309D01*
X237520Y858784D01*
Y861633D01*
X236566Y865194D01*
X234723Y868386D01*
X232116Y870993D01*
X228924Y872836D01*
X225363Y873790D01*
X221677D01*
X218116Y872836D01*
X214924Y870993D01*
X212317Y868386D01*
X210474Y865194D01*
X209520Y861633D01*
Y857947D01*
X210474Y854386D01*
X212317Y851194D01*
X212781Y850730D01*
X212295Y849556D01*
X199048D01*
X198103Y849948D01*
X197452Y851360D01*
X198466Y853116D01*
X199420Y856677D01*
Y860363D01*
X198466Y863924D01*
X196623Y867116D01*
X196515Y867224D01*
Y872974D01*
X355825Y1032285D01*
X357589Y1034583D01*
X358697Y1037258D01*
X359075Y1040130D01*
Y1050774D01*
X384891Y1076590D01*
X397403D01*
X397949Y1076225D01*
X400708Y1075083D01*
X403637Y1074500D01*
X406623D01*
X409552Y1075083D01*
X412311Y1076225D01*
X414794Y1077885D01*
X416906Y1079996D01*
X418565Y1082479D01*
X419707Y1085238D01*
X420290Y1088167D01*
Y1091153D01*
X419707Y1094082D01*
X418565Y1096841D01*
X416906Y1099324D01*
X414794Y1101435D01*
X412311Y1103095D01*
X409552Y1104237D01*
X406623Y1104820D01*
X403637D01*
X400708Y1104237D01*
X397949Y1103095D01*
X395466Y1101435D01*
X393354Y1099324D01*
X392991Y1098780D01*
X380295D01*
X377424Y1098402D01*
X374748Y1097294D01*
X372450Y1095531D01*
X343248Y1066329D01*
X342075Y1066815D01*
Y1116820D01*
X341697Y1119692D01*
X340588Y1122367D01*
X338825Y1124665D01*
X315185Y1148305D01*
X312887Y1150069D01*
X310212Y1151177D01*
X307340Y1151555D01*
D02*
G37*
G36*
X527273Y1104820D02*
X524287D01*
X521358Y1104237D01*
X518599Y1103095D01*
X516116Y1101435D01*
X515435Y1100755D01*
X477520D01*
X474648Y1100377D01*
X471973Y1099268D01*
X469675Y1097505D01*
X422685Y1050515D01*
X420922Y1048217D01*
X419813Y1045542D01*
X419435Y1042670D01*
Y983267D01*
X419813Y980395D01*
X420922Y977719D01*
X422685Y975421D01*
X437971Y960135D01*
X440269Y958372D01*
X440364Y958332D01*
X441057Y956659D01*
X442065Y955150D01*
X441386Y953880D01*
X439310D01*
Y938871D01*
X373229Y872790D01*
X360743D01*
X358464Y874106D01*
X354903Y875060D01*
X351217D01*
X347656Y874106D01*
X344464Y872263D01*
X341857Y869656D01*
X340014Y866464D01*
X339060Y862903D01*
Y859217D01*
X340014Y855656D01*
X341857Y852464D01*
X344464Y849857D01*
X347656Y848014D01*
X351217Y847060D01*
X354903D01*
X358464Y848014D01*
X361656Y849857D01*
X362399Y850600D01*
X402527D01*
X404806Y849284D01*
X408367Y848330D01*
X412053D01*
X415614Y849284D01*
X418806Y851127D01*
X421413Y853734D01*
X423256Y856926D01*
X424210Y860487D01*
Y864173D01*
X423256Y867734D01*
X421413Y870926D01*
X418806Y873533D01*
X415614Y875376D01*
X412053Y876330D01*
X409947D01*
X409421Y877600D01*
X455001Y923180D01*
X470010D01*
Y939278D01*
X470727Y941008D01*
X471105Y943880D01*
X470727Y946752D01*
X470010Y948482D01*
Y953880D01*
X467934D01*
X467255Y955150D01*
X468263Y956659D01*
X469420Y959453D01*
X470010Y962418D01*
Y965442D01*
X469420Y968407D01*
X468263Y971201D01*
X466583Y973715D01*
X464445Y975853D01*
X464233Y975995D01*
Y977265D01*
X464445Y977407D01*
X466583Y979545D01*
X468263Y982059D01*
X469420Y984853D01*
X470010Y987818D01*
Y990842D01*
X469420Y993807D01*
X468263Y996601D01*
X466583Y999115D01*
X465755Y999943D01*
Y1008864D01*
X478306Y1021415D01*
X497054D01*
X510510Y1007959D01*
Y1007807D01*
X511464Y1004246D01*
X513307Y1001054D01*
X515914Y998447D01*
X519106Y996604D01*
X522667Y995650D01*
X526353D01*
X529914Y996604D01*
X533106Y998447D01*
X535713Y1001054D01*
X537556Y1004246D01*
X537733Y1004909D01*
X537891Y1004940D01*
X539545Y1006045D01*
X540650Y1007699D01*
X541038Y1009650D01*
Y1064260D01*
X540940Y1064753D01*
Y1079420D01*
X538698D01*
X538019Y1080690D01*
X539215Y1082479D01*
X540357Y1085238D01*
X540940Y1088167D01*
Y1091153D01*
X540357Y1094082D01*
X539215Y1096841D01*
X537556Y1099324D01*
X535444Y1101435D01*
X532961Y1103095D01*
X530202Y1104237D01*
X527273Y1104820D01*
D02*
G37*
G36*
X354903Y773460D02*
X351217D01*
X347656Y772506D01*
X344464Y770663D01*
X343347Y769546D01*
X320925D01*
X320659Y769812D01*
X318071Y771307D01*
X315184Y772080D01*
X312196D01*
X309309Y771307D01*
X306721Y769812D01*
X304608Y767699D01*
X303113Y765111D01*
X302340Y762224D01*
Y759236D01*
X303113Y756349D01*
X304608Y753761D01*
X306721Y751648D01*
X309309Y750154D01*
X312196Y749380D01*
X315184D01*
X315335Y749420D01*
X315691Y749374D01*
X343347D01*
X344464Y748257D01*
X347656Y746414D01*
X351217Y745460D01*
X354903D01*
X358464Y746414D01*
X361656Y748257D01*
X364263Y750864D01*
X366106Y754056D01*
X367060Y757617D01*
Y761303D01*
X366106Y764864D01*
X364263Y768056D01*
X361656Y770663D01*
X358464Y772506D01*
X354903Y773460D01*
D02*
G37*
G36*
X567120Y56830D02*
X563180D01*
X559316Y56061D01*
X555676Y54554D01*
X552401Y52365D01*
X549615Y49579D01*
X547426Y46304D01*
X545919Y42664D01*
X545150Y38800D01*
Y34860D01*
X545919Y30996D01*
X547426Y27357D01*
X549615Y24081D01*
X552401Y21295D01*
X555676Y19106D01*
X559316Y17599D01*
X563180Y16830D01*
X567120D01*
X570984Y17599D01*
X574623Y19106D01*
X577899Y21295D01*
X580685Y24081D01*
X582874Y27357D01*
X584381Y30996D01*
X585150Y34860D01*
Y38800D01*
X584381Y42664D01*
X582874Y46304D01*
X580685Y49579D01*
X577899Y52365D01*
X574623Y54554D01*
X570984Y56061D01*
X567120Y56830D01*
D02*
G37*
G36*
X41340D02*
X37400D01*
X33536Y56061D01*
X29897Y54554D01*
X26621Y52365D01*
X23835Y49579D01*
X21646Y46304D01*
X20139Y42664D01*
X19370Y38800D01*
Y34860D01*
X20139Y30996D01*
X21646Y27357D01*
X23835Y24081D01*
X26621Y21295D01*
X29897Y19106D01*
X33536Y17599D01*
X37400Y16830D01*
X41340D01*
X45204Y17599D01*
X48843Y19106D01*
X52119Y21295D01*
X54905Y24081D01*
X57094Y27357D01*
X58601Y30996D01*
X59370Y34860D01*
Y38800D01*
X58601Y42664D01*
X57094Y46304D01*
X54905Y49579D01*
X52119Y52365D01*
X48843Y54554D01*
X45204Y56061D01*
X41340Y56830D01*
D02*
G37*
%LPD*%
G36*
X171829Y753550D02*
X172374Y751516D01*
X174217Y748324D01*
X176824Y745717D01*
X180016Y743874D01*
X183577Y742920D01*
X187263D01*
X190476Y743781D01*
X191134Y742642D01*
X186465Y737973D01*
X184701Y735676D01*
X183593Y733000D01*
X183215Y730128D01*
Y721865D01*
X182042Y721379D01*
X146019Y757402D01*
X146410Y758345D01*
X146891Y762000D01*
X146410Y765655D01*
X144999Y769060D01*
X142755Y771985D01*
X140203Y773943D01*
X140634Y775213D01*
X150166D01*
X171829Y753550D01*
D02*
G37*
G36*
X116710Y749771D02*
X120115Y748360D01*
X123770Y747879D01*
X124605D01*
X126073Y745967D01*
X183215Y688824D01*
Y676464D01*
X182259Y675731D01*
X181097Y674216D01*
X180367Y672453D01*
X180214Y671290D01*
X178886Y670934D01*
X178025Y672055D01*
X113965Y736116D01*
Y750441D01*
X115104Y751003D01*
X116710Y749771D01*
D02*
G37*
G36*
X335354Y635902D02*
Y584495D01*
X334084Y584072D01*
X331829Y585374D01*
X329082Y586110D01*
X326238D01*
X323491Y585374D01*
X322336Y584707D01*
X321236Y585342D01*
Y593981D01*
X322286Y594587D01*
X324893Y597194D01*
X326736Y600386D01*
X327690Y603947D01*
Y607633D01*
X326736Y611194D01*
X324893Y614386D01*
X323776Y615503D01*
Y639930D01*
X324267Y640779D01*
X325040Y643666D01*
Y644557D01*
X326213Y645043D01*
X335354Y635902D01*
D02*
G37*
G36*
X87645Y551842D02*
Y471779D01*
X86390Y471743D01*
X85436Y475304D01*
X83593Y478496D01*
X83485Y478604D01*
Y545017D01*
X83593Y545125D01*
X85436Y548317D01*
X86390Y551878D01*
X87645Y551842D01*
D02*
G37*
G36*
X172575Y453913D02*
X174872Y452150D01*
X177548Y451041D01*
X180420Y450663D01*
X184328D01*
X185584Y449407D01*
X187077Y448545D01*
Y447275D01*
X185584Y446413D01*
X182977Y443806D01*
X181134Y440614D01*
X180467Y438125D01*
X179051Y437746D01*
X143835Y472962D01*
Y480993D01*
X145008Y481479D01*
X172575Y453913D01*
D02*
G37*
G36*
X317169Y496533D02*
X317596Y494941D01*
X319018Y492479D01*
X321029Y490468D01*
X323491Y489046D01*
X326238Y488310D01*
X329082D01*
X331829Y489046D01*
X334084Y490348D01*
X335354Y489925D01*
Y383540D01*
X335697Y380929D01*
X336705Y378497D01*
X338308Y376408D01*
X444835Y269881D01*
Y148228D01*
X444675Y148105D01*
X442431Y145180D01*
X441020Y141775D01*
X440539Y138120D01*
Y131120D01*
X441020Y127465D01*
X442431Y124060D01*
X444675Y121135D01*
X447600Y118891D01*
X451005Y117480D01*
X454660Y116999D01*
X458315Y117480D01*
X461720Y118891D01*
X464645Y121135D01*
X466608Y123694D01*
X466951Y123796D01*
X467769D01*
X468112Y123694D01*
X470075Y121135D01*
X473000Y118891D01*
X476405Y117480D01*
X480060Y116999D01*
X483715Y117480D01*
X487120Y118891D01*
X490045Y121135D01*
X492008Y123694D01*
X492351Y123796D01*
X493169D01*
X493512Y123694D01*
X495475Y121135D01*
X498400Y118891D01*
X501805Y117480D01*
X505460Y116999D01*
X509115Y117480D01*
X512520Y118891D01*
X515445Y121135D01*
X517689Y124060D01*
X519100Y127465D01*
X519581Y131120D01*
Y138120D01*
X519100Y141775D01*
X517689Y145180D01*
X516555Y146658D01*
Y179667D01*
X516177Y182539D01*
X516122Y182672D01*
X517198Y183391D01*
X559135Y141454D01*
Y104926D01*
X549124Y94915D01*
X168426D01*
X163495Y99846D01*
Y124388D01*
X164770Y127465D01*
X165251Y131120D01*
Y138120D01*
X164770Y141775D01*
X163359Y145180D01*
X161115Y148105D01*
X158190Y150349D01*
X154785Y151760D01*
X151130Y152241D01*
X147475Y151760D01*
X144070Y150349D01*
X141145Y148105D01*
X139311Y145715D01*
X137549D01*
X135715Y148105D01*
X132790Y150349D01*
X129385Y151760D01*
X125730Y152241D01*
X122075Y151760D01*
X118670Y150349D01*
X115745Y148105D01*
X113782Y145547D01*
X113439Y145444D01*
X112621D01*
X112278Y145547D01*
X111425Y146658D01*
Y227145D01*
X112106Y227826D01*
X113765Y230309D01*
X114907Y233068D01*
X115490Y235997D01*
Y238983D01*
X114907Y241912D01*
X113765Y244671D01*
X113399Y245217D01*
Y280589D01*
X131474Y298663D01*
X144116D01*
X171225Y271555D01*
X173522Y269792D01*
X176198Y268683D01*
X179070Y268305D01*
X220980D01*
X223852Y268683D01*
X226528Y269792D01*
X228825Y271555D01*
X288515Y331245D01*
X290278Y333543D01*
X291387Y336218D01*
X291765Y339090D01*
Y472924D01*
X315753Y496912D01*
X317169Y496533D01*
D02*
G37*
G36*
X507265Y230309D02*
X508924Y227826D01*
X510847Y225904D01*
Y194338D01*
X511225Y191467D01*
X511280Y191334D01*
X510203Y190615D01*
X505615Y195203D01*
Y230975D01*
X506885Y231228D01*
X507265Y230309D01*
D02*
G37*
G36*
X494365Y175071D02*
Y146658D01*
X493512Y145547D01*
X493169Y145444D01*
X492351D01*
X492008Y145547D01*
X490045Y148105D01*
X488615Y149202D01*
Y179162D01*
X489788Y179648D01*
X494365Y175071D01*
D02*
G37*
G36*
X535940Y1009650D02*
X524510D01*
X501650Y1032510D01*
X473710D01*
X455833Y1014633D01*
X454660Y1015119D01*
Y1042670D01*
X476250Y1064260D01*
X535940D01*
Y1009650D01*
D02*
G37*
D10*
X424180Y477519D02*
Y544830D01*
X403860Y524510D02*
X424180Y544830D01*
X345440Y383540D02*
X455930Y273050D01*
X262890Y722630D02*
X345440Y640080D01*
Y383540D02*
Y640080D01*
X315691Y759460D02*
X353060D01*
X314421Y760730D02*
X315691Y759460D01*
X313690Y760730D02*
X314421D01*
X313690Y605790D02*
Y645160D01*
X311150Y566420D02*
Y601085D01*
Y566420D02*
X327660Y549910D01*
X311150Y601085D02*
X313690Y603625D01*
Y605790D01*
X415290Y604822D02*
Y605790D01*
X424180Y544830D02*
Y595932D01*
X415290Y604822D02*
X424180Y595932D01*
X388060Y408230D02*
Y531055D01*
Y408230D02*
X435749Y360541D01*
X403554Y549604D02*
X403860Y549910D01*
X403554Y546548D02*
Y549604D01*
X388060Y531055D02*
X403554Y546548D01*
X454399Y360541D02*
X455930Y359010D01*
X435749Y360541D02*
X454399D01*
X264160Y816610D02*
Y817910D01*
X223520Y859520D02*
Y859790D01*
Y858520D02*
X241863Y840177D01*
X262890Y722630D02*
Y819150D01*
X194654Y839470D02*
X241156D01*
X241863Y840177D02*
X262890Y819150D01*
D11*
X280670Y339090D02*
Y477520D01*
X179070Y279400D02*
X220980D01*
X280670Y339090D01*
X128026Y309758D02*
X148712D01*
X193032D01*
X148712D02*
X179070Y279400D01*
X101600Y284480D02*
X102305Y283775D01*
X125730Y308610D02*
X126895Y309192D01*
X130426Y310958D02*
X130810Y311150D01*
X192556Y384410D02*
X194180D01*
X189556Y387410D02*
X192556Y384410D01*
X115740Y459570D02*
Y641436D01*
X187900Y387410D02*
X189556D01*
X115740Y459570D02*
X187900Y387410D01*
X185896Y364410D02*
X187156D01*
X98740Y451566D02*
Y634394D01*
Y451566D02*
X185896Y364410D01*
X280670Y477520D02*
X327660Y524510D01*
X455930Y144780D02*
Y273050D01*
Y308610D01*
X275590Y828040D02*
X467360D01*
X264160Y816610D02*
X275590Y828040D01*
X467360D02*
X502920Y863600D01*
X435610Y730250D02*
X467360Y762000D01*
X442639Y639558D02*
X454782D01*
X435610Y646588D02*
X442639Y639558D01*
X435610Y646588D02*
Y730250D01*
X185420Y858520D02*
Y877570D01*
X162560Y878752D02*
X330980Y1047172D01*
Y1116820D01*
X347980Y1040130D02*
Y1055370D01*
X185420Y877570D02*
X347980Y1040130D01*
X162560Y846499D02*
Y878752D01*
Y846499D02*
X170539Y838520D01*
X193704D02*
X194654Y839470D01*
X170539Y838520D02*
X193704D01*
X128270Y762000D02*
X131146D01*
X133918Y759228D01*
Y753812D02*
Y759228D01*
Y753812D02*
X194310Y693420D01*
Y663940D02*
Y693420D01*
Y730128D01*
X184150Y756920D02*
X185420D01*
X129362Y786308D02*
X154762D01*
X184150Y756920D01*
X128270Y787400D02*
X129362Y786308D01*
X194310Y730128D02*
X223520Y759338D01*
X347980Y1055370D02*
X380295Y1087685D01*
X307340Y1140460D02*
X330980Y1116820D01*
X184150Y1140460D02*
X307340D01*
X161290Y1096010D02*
Y1117600D01*
X184150Y1140460D01*
X160020Y1094740D02*
X161290Y1096010D01*
X174180Y426926D02*
Y426926D01*
X132740Y468366D02*
Y648477D01*
Y468366D02*
X174180Y426926D01*
Y426926D02*
X185896Y415210D01*
X72390Y469900D02*
Y553721D01*
Y469900D02*
X72390Y469900D01*
X193032Y309758D02*
X194180Y308610D01*
X72363Y369597D02*
X130810Y311150D01*
X101600Y284480D02*
X125730Y308610D01*
X51870Y705306D02*
X115740Y641436D01*
X85870Y722972D02*
X149740Y659102D01*
Y492438D02*
Y659102D01*
X68870Y712347D02*
X132740Y648477D01*
X34870Y698264D02*
X98740Y634394D01*
X149740Y492438D02*
X180420Y461758D01*
X187156Y364410D02*
X192556Y359010D01*
X194180D01*
X185896Y415210D02*
X187156D01*
X194180Y663810D02*
X194310Y663940D01*
X445817Y967980D02*
X448256D01*
X430530Y983267D02*
Y1042670D01*
X477520Y1089660D01*
X448256Y967980D02*
X452306Y963930D01*
X454660D01*
X430530Y983267D02*
X445817Y967980D01*
X454782Y639558D02*
X455930Y638410D01*
X494030Y634992D02*
X494520Y634502D01*
Y190607D02*
Y634502D01*
Y190607D02*
X505460Y179667D01*
X494030Y634992D02*
Y731520D01*
X477520Y144903D02*
X478912Y143511D01*
Y135768D02*
X480060Y134620D01*
X478912Y135768D02*
Y143511D01*
X477520Y144903D02*
Y621007D01*
X464128Y634398D02*
X477520Y621007D01*
X494030Y731520D02*
X524510Y762000D01*
X521942Y194338D02*
X570230Y146050D01*
X521942Y194338D02*
Y236248D01*
X520700Y237490D02*
X521942Y236248D01*
X570230Y100330D02*
Y146050D01*
X466672Y659810D02*
X482600Y643882D01*
X491490Y634992D01*
X505460Y134620D02*
Y179667D01*
X68870Y948980D02*
X136899Y1017009D01*
X151129Y1017392D02*
X158872D01*
X150747Y1017009D02*
X151129Y1017392D01*
X158872D02*
X160020Y1018540D01*
X68870Y712347D02*
Y948980D01*
X136899Y1017009D02*
X150747D01*
X238760Y1047750D02*
X255514Y1064504D01*
X271014Y1064887D02*
X278757D01*
X270631Y1064504D02*
X271014Y1064887D01*
X238760Y1008757D02*
Y1047750D01*
X278757Y1064887D02*
X279905Y1066035D01*
X255514Y1064504D02*
X270631D01*
X257810Y1090930D02*
X279400D01*
X221618Y1054738D02*
X257810Y1090930D01*
X279400D02*
X279905Y1091435D01*
X221618Y1015657D02*
Y1054738D01*
X102870Y731520D02*
Y872867D01*
X170180Y496039D02*
Y664210D01*
X102870Y731520D02*
X170180Y664210D01*
X51870Y705306D02*
Y961102D01*
X85870Y722972D02*
Y879908D01*
X34870Y968143D02*
X134919Y1068192D01*
X85870Y879908D02*
X221618Y1015657D01*
X34870Y698264D02*
Y968143D01*
X51870Y961102D02*
X133560Y1042792D01*
X193032Y461758D02*
X194180Y460610D01*
X170180Y496039D02*
X177209Y489010D01*
X189556D01*
X180420Y461758D02*
X193032D01*
X189556Y489010D02*
X192556Y486010D01*
X187156Y415210D02*
X192556Y409810D01*
X194180D01*
X158872Y1042792D02*
X160020Y1043940D01*
X158872Y1068192D02*
X160020Y1069340D01*
X133560Y1042792D02*
X158872D01*
X192556Y486010D02*
X194180D01*
X134919Y1068192D02*
X158872D01*
X553720Y83820D02*
X570230Y100330D01*
X152400Y95250D02*
X163830Y83820D01*
X553720D01*
X102870Y872867D02*
X238760Y1008757D01*
X502920Y863600D02*
X524510D01*
X467360D02*
X502920D01*
X454660Y1013460D02*
Y1042670D01*
Y989330D02*
Y1013460D01*
X473710Y1032510D02*
X501650D01*
X454660Y1013460D02*
X473710Y1032510D01*
X501650D02*
X524510Y1009650D01*
X476250Y1064260D02*
X525780D01*
X454660Y1042670D02*
X476250Y1064260D01*
X477520Y1089660D02*
X525780D01*
X377825Y861695D02*
X409575D01*
X377825D02*
X454660Y938530D01*
X353695Y861695D02*
X377825D01*
X353060Y861060D02*
X353695Y861695D01*
X409575D02*
X410210Y862330D01*
X403155Y1087685D02*
X405130Y1089660D01*
X380295Y1087685D02*
X403155D01*
X102305Y239465D02*
Y283775D01*
X455930Y663810D02*
X459930Y659810D01*
X454660Y938530D02*
X460010Y943880D01*
X125730Y134620D02*
X151130D01*
X152400Y133350D01*
Y95250D02*
Y133350D01*
X459930Y659810D02*
X466672D01*
X100330Y237490D02*
X102305Y239465D01*
X100330Y134620D02*
Y237490D01*
D12*
X353060Y759460D02*
D03*
Y861060D02*
D03*
X415290Y605790D02*
D03*
X313690D02*
D03*
X322580Y468630D02*
D03*
X424180D02*
D03*
X524510Y863600D02*
D03*
Y762000D02*
D03*
X185420Y756920D02*
D03*
Y858520D02*
D03*
X223520Y758190D02*
D03*
Y859790D02*
D03*
X72390Y368300D02*
D03*
X194180Y486010D02*
D03*
X455930Y638410D02*
D03*
X467360Y762000D02*
D03*
X410210Y862330D02*
D03*
X72390Y469900D02*
D03*
X72390Y553721D02*
D03*
X524510Y1009650D02*
D03*
X455930Y333610D02*
D03*
X194180D02*
D03*
X410210Y760730D02*
D03*
X46990Y553719D02*
D03*
X524510Y908050D02*
D03*
X455930Y359010D02*
D03*
X194180Y460610D02*
D03*
X455930Y308610D02*
D03*
X467360Y863600D02*
D03*
X194180Y308610D02*
D03*
X455930Y613010D02*
D03*
Y587610D02*
D03*
Y562210D02*
D03*
Y511410D02*
D03*
Y486010D02*
D03*
Y460610D02*
D03*
Y435210D02*
D03*
Y384410D02*
D03*
Y409810D02*
D03*
Y536810D02*
D03*
X194180Y638410D02*
D03*
Y613010D02*
D03*
Y587610D02*
D03*
Y562210D02*
D03*
Y511410D02*
D03*
Y435210D02*
D03*
Y359010D02*
D03*
Y384410D02*
D03*
Y409810D02*
D03*
Y536810D02*
D03*
D13*
X403860Y499110D02*
D03*
D14*
Y524510D02*
D03*
Y549910D02*
D03*
Y575310D02*
D03*
X327660D02*
D03*
Y549910D02*
D03*
Y524510D02*
D03*
Y499110D02*
D03*
D15*
X160020Y1043940D02*
D03*
Y1018540D02*
D03*
Y1069340D02*
D03*
Y1094740D02*
D03*
X279905Y1066035D02*
D03*
Y1091435D02*
D03*
D16*
X160020Y993140D02*
D03*
X279905Y1040635D02*
D03*
D17*
X405130Y1064260D02*
D03*
X525780D02*
D03*
D18*
X405130Y1089660D02*
D03*
X525780D02*
D03*
X100330Y237490D02*
D03*
X520700D02*
D03*
D19*
X128270Y812800D02*
D03*
Y787400D02*
D03*
Y762000D02*
D03*
D20*
X454660Y938530D02*
D03*
D21*
Y963930D02*
D03*
Y989330D02*
D03*
D22*
X480060Y134620D02*
D03*
X505460D02*
D03*
X176530D02*
D03*
X454660D02*
D03*
X100330D02*
D03*
X125730D02*
D03*
X151130D02*
D03*
D23*
X455930Y663810D02*
D03*
X194180D02*
D03*
D24*
X125730Y237490D02*
D03*
X546100D02*
D03*
D25*
X201930Y134620D02*
D03*
X530860D02*
D03*
D26*
X39370Y1165860D02*
D03*
Y36830D02*
D03*
X565150D02*
D03*
Y1165860D02*
D03*
D27*
X314960Y436880D02*
D03*
X248920Y438150D02*
D03*
X313690Y760730D02*
D03*
Y645160D02*
D03*
M02*
