G04*
G04 #@! TF.GenerationSoftware,Altium Limited,Altium Designer,21.0.9 (235)*
G04*
G04 Layer_Color=16711935*
%FSLAX44Y44*%
%MOMM*%
G71*
G04*
G04 #@! TF.SameCoordinates,BF5BF6DF-AFCB-423E-A2F2-CA058CBAB62F*
G04*
G04*
G04 #@! TF.FilePolarity,Negative*
G04*
G01*
G75*
%ADD25O,2.7032X2.0032*%
%ADD26R,2.7032X2.2032*%
%ADD27C,2.0032*%
%ADD28R,2.2352X2.2352*%
%ADD29C,2.2352*%
%ADD30O,2.9032X2.0032*%
%ADD31C,1.6192*%
%ADD32R,2.2732X2.2732*%
%ADD33C,2.2732*%
%ADD34O,2.0032X2.7032*%
G04:AMPARAMS|DCode=35|XSize=2.0032mm|YSize=2.0032mm|CornerRadius=0.3266mm|HoleSize=0mm|Usage=FLASHONLY|Rotation=270.000|XOffset=0mm|YOffset=0mm|HoleType=Round|Shape=RoundedRectangle|*
%AMROUNDEDRECTD35*
21,1,2.0032,1.3500,0,0,270.0*
21,1,1.3500,2.0032,0,0,270.0*
1,1,0.6532,-0.6750,-0.6750*
1,1,0.6532,-0.6750,0.6750*
1,1,0.6532,0.6750,0.6750*
1,1,0.6532,0.6750,-0.6750*
%
%ADD35ROUNDEDRECTD35*%
%ADD36R,2.2352X2.2352*%
%ADD37R,2.2032X2.7032*%
%ADD38C,3.2032*%
D25*
X133350Y1093470D02*
D03*
Y1068070D02*
D03*
Y1017270D02*
D03*
Y1042670D02*
D03*
X253235Y1064765D02*
D03*
Y1090165D02*
D03*
D26*
X133350Y991870D02*
D03*
X253235Y1039365D02*
D03*
D27*
X497840Y862330D02*
D03*
Y760730D02*
D03*
X158750Y755650D02*
D03*
Y857250D02*
D03*
X215900Y755650D02*
D03*
Y857250D02*
D03*
X52070Y624840D02*
D03*
X167510Y484740D02*
D03*
X429260Y637140D02*
D03*
X440690Y760730D02*
D03*
X326390Y859790D02*
D03*
X383540Y861060D02*
D03*
X270510Y859790D02*
D03*
X52070Y523240D02*
D03*
X71118Y443230D02*
D03*
X497840Y1008380D02*
D03*
X429260Y332340D02*
D03*
X167510D02*
D03*
X383540Y759460D02*
D03*
X71120Y417830D02*
D03*
X497840Y906780D02*
D03*
X429260Y357740D02*
D03*
X326390Y758190D02*
D03*
X270510D02*
D03*
X167510Y459340D02*
D03*
X429260Y307340D02*
D03*
X440690Y862330D02*
D03*
X167510Y307340D02*
D03*
X429260Y611740D02*
D03*
Y586340D02*
D03*
Y560940D02*
D03*
Y510140D02*
D03*
Y484740D02*
D03*
Y459340D02*
D03*
Y433940D02*
D03*
Y383140D02*
D03*
Y408540D02*
D03*
Y535540D02*
D03*
X167510Y637140D02*
D03*
Y611740D02*
D03*
Y586340D02*
D03*
Y560940D02*
D03*
Y510140D02*
D03*
Y433940D02*
D03*
Y357740D02*
D03*
Y383140D02*
D03*
Y408540D02*
D03*
Y535540D02*
D03*
D28*
X378460Y1062990D02*
D03*
X499110D02*
D03*
D29*
X378460Y1088390D02*
D03*
X499110D02*
D03*
X73660Y236220D02*
D03*
X486410D02*
D03*
D30*
X102870Y835660D02*
D03*
Y810260D02*
D03*
Y784860D02*
D03*
D31*
X270510Y923290D02*
D03*
X295910D02*
D03*
D32*
X427990Y937260D02*
D03*
D33*
Y962660D02*
D03*
Y988060D02*
D03*
D34*
X453390Y133350D02*
D03*
X478790D02*
D03*
X149860D02*
D03*
X427990D02*
D03*
X73660D02*
D03*
X99060D02*
D03*
X124460D02*
D03*
D35*
X429260Y662540D02*
D03*
X167510D02*
D03*
D36*
X99060Y236220D02*
D03*
X511810D02*
D03*
D37*
X175260Y133350D02*
D03*
X504190D02*
D03*
D38*
X39370Y1165860D02*
D03*
Y36830D02*
D03*
X565150D02*
D03*
Y1165860D02*
D03*
M02*
