G04*
G04 #@! TF.GenerationSoftware,Altium Limited,Altium Designer,21.0.9 (235)*
G04*
G04 Layer_Physical_Order=2*
G04 Layer_Color=16711680*
%FSLAX44Y44*%
%MOMM*%
G71*
G04*
G04 #@! TF.SameCoordinates,BF5BF6DF-AFCB-423E-A2F2-CA058CBAB62F*
G04*
G04*
G04 #@! TF.FilePolarity,Positive*
G04*
G01*
G75*
%ADD10C,1.0000*%
%ADD11O,2.5000X1.8000*%
%ADD12R,2.5000X2.0000*%
%ADD13C,1.8000*%
%ADD14R,2.0320X2.0320*%
%ADD15C,2.0320*%
%ADD16O,2.7000X1.8000*%
%ADD17C,1.4160*%
%ADD18R,2.0700X2.0700*%
%ADD19C,2.0700*%
%ADD20O,1.8000X2.5000*%
G04:AMPARAMS|DCode=21|XSize=1.8mm|YSize=1.8mm|CornerRadius=0.225mm|HoleSize=0mm|Usage=FLASHONLY|Rotation=270.000|XOffset=0mm|YOffset=0mm|HoleType=Round|Shape=RoundedRectangle|*
%AMROUNDEDRECTD21*
21,1,1.8000,1.3500,0,0,270.0*
21,1,1.3500,1.8000,0,0,270.0*
1,1,0.4500,-0.6750,-0.6750*
1,1,0.4500,-0.6750,0.6750*
1,1,0.4500,0.6750,0.6750*
1,1,0.4500,0.6750,-0.6750*
%
%ADD21ROUNDEDRECTD21*%
%ADD22R,2.0320X2.0320*%
%ADD23R,2.0000X2.5000*%
%ADD24C,3.0000*%
G36*
X600710Y0D02*
X1270D01*
X0Y1270D01*
Y1201420D01*
X600710D01*
Y0D01*
D02*
G37*
%LPC*%
G36*
X567120Y1185860D02*
X563180D01*
X559316Y1185091D01*
X555676Y1183584D01*
X552401Y1181395D01*
X549615Y1178609D01*
X547426Y1175333D01*
X545919Y1171694D01*
X545150Y1167830D01*
Y1163890D01*
X545919Y1160026D01*
X547426Y1156386D01*
X549615Y1153111D01*
X552401Y1150325D01*
X555676Y1148136D01*
X559316Y1146629D01*
X563180Y1145860D01*
X567120D01*
X570984Y1146629D01*
X574623Y1148136D01*
X577899Y1150325D01*
X580685Y1153111D01*
X582874Y1156386D01*
X584381Y1160026D01*
X585150Y1163890D01*
Y1167830D01*
X584381Y1171694D01*
X582874Y1175333D01*
X580685Y1178609D01*
X577899Y1181395D01*
X574623Y1183584D01*
X570984Y1185091D01*
X567120Y1185860D01*
D02*
G37*
G36*
X41340D02*
X37400D01*
X33536Y1185091D01*
X29897Y1183584D01*
X26621Y1181395D01*
X23835Y1178609D01*
X21646Y1175333D01*
X20139Y1171694D01*
X19370Y1167830D01*
Y1163890D01*
X20139Y1160026D01*
X21646Y1156386D01*
X23835Y1153111D01*
X26621Y1150325D01*
X29897Y1148136D01*
X33536Y1146629D01*
X37400Y1145860D01*
X41340D01*
X45204Y1146629D01*
X48843Y1148136D01*
X52119Y1150325D01*
X54905Y1153111D01*
X57094Y1156386D01*
X58601Y1160026D01*
X59370Y1163890D01*
Y1167830D01*
X58601Y1171694D01*
X57094Y1175333D01*
X54905Y1178609D01*
X52119Y1181395D01*
X48843Y1183584D01*
X45204Y1185091D01*
X41340Y1185860D01*
D02*
G37*
G36*
X284480Y1136576D02*
X169870D01*
X167260Y1136233D01*
X164827Y1135225D01*
X162738Y1133622D01*
X136707Y1107591D01*
X129850D01*
X126195Y1107110D01*
X122790Y1105699D01*
X119865Y1103455D01*
X117621Y1100530D01*
X116210Y1097125D01*
X115729Y1093470D01*
X116210Y1089815D01*
X117621Y1086410D01*
X119865Y1083485D01*
X122423Y1081522D01*
X122526Y1081179D01*
Y1080361D01*
X122423Y1080018D01*
X121652Y1079426D01*
X114300D01*
X111690Y1079083D01*
X109257Y1078075D01*
X107168Y1076472D01*
X9068Y978372D01*
X7465Y976283D01*
X6457Y973851D01*
X6114Y971240D01*
Y738180D01*
X6457Y735570D01*
X7465Y733137D01*
X9068Y731048D01*
X77544Y662572D01*
Y467737D01*
X77887Y465126D01*
X78895Y462694D01*
X80498Y460605D01*
X87134Y453969D01*
X87785Y452397D01*
X89388Y450308D01*
X105724Y433972D01*
Y407970D01*
X106067Y405359D01*
X107075Y402927D01*
X108678Y400838D01*
X153510Y356006D01*
Y355897D01*
X154464Y352336D01*
X156307Y349144D01*
X158914Y346537D01*
X162106Y344694D01*
X165667Y343740D01*
X169353D01*
X172914Y344694D01*
X176106Y346537D01*
X178713Y349144D01*
X180556Y352336D01*
X181510Y355897D01*
Y359583D01*
X180556Y363144D01*
X178713Y366336D01*
X176106Y368943D01*
X174613Y369805D01*
Y371075D01*
X176106Y371937D01*
X178713Y374544D01*
X180556Y377736D01*
X181510Y381297D01*
Y384983D01*
X180556Y388544D01*
X178713Y391736D01*
X176106Y394343D01*
X174613Y395205D01*
Y396475D01*
X176106Y397337D01*
X178713Y399944D01*
X180556Y403136D01*
X181510Y406697D01*
Y410383D01*
X180556Y413944D01*
X178713Y417136D01*
X176106Y419743D01*
X174613Y420605D01*
Y421875D01*
X176106Y422737D01*
X178713Y425344D01*
X180556Y428536D01*
X181510Y432097D01*
Y435783D01*
X180556Y439344D01*
X178713Y442536D01*
X176106Y445143D01*
X174613Y446005D01*
Y447275D01*
X176106Y448137D01*
X178713Y450744D01*
X180556Y453936D01*
X181510Y457497D01*
Y461183D01*
X180556Y464744D01*
X178713Y467936D01*
X176106Y470543D01*
X174613Y471405D01*
Y472675D01*
X176106Y473537D01*
X178713Y476144D01*
X180556Y479336D01*
X181510Y482897D01*
Y486583D01*
X180556Y490144D01*
X178713Y493336D01*
X176106Y495943D01*
X174613Y496805D01*
Y498075D01*
X176106Y498937D01*
X178713Y501544D01*
X180556Y504736D01*
X181510Y508297D01*
Y511983D01*
X180556Y515544D01*
X178713Y518736D01*
X176106Y521343D01*
X174613Y522205D01*
Y523475D01*
X176106Y524337D01*
X178713Y526944D01*
X180556Y530136D01*
X181510Y533697D01*
Y537383D01*
X180556Y540944D01*
X178713Y544136D01*
X176106Y546743D01*
X174613Y547605D01*
Y548875D01*
X176106Y549737D01*
X178713Y552344D01*
X180556Y555536D01*
X181510Y559097D01*
Y562783D01*
X180556Y566344D01*
X178713Y569536D01*
X176106Y572143D01*
X174613Y573005D01*
Y574275D01*
X176106Y575137D01*
X178713Y577744D01*
X180556Y580936D01*
X181510Y584497D01*
Y588183D01*
X180556Y591744D01*
X178713Y594936D01*
X176106Y597543D01*
X174613Y598405D01*
Y599675D01*
X176106Y600537D01*
X178713Y603144D01*
X180556Y606336D01*
X181510Y609897D01*
Y613583D01*
X180556Y617144D01*
X178713Y620336D01*
X176106Y622943D01*
X174613Y623805D01*
Y625075D01*
X176106Y625937D01*
X178713Y628544D01*
X180556Y631736D01*
X181510Y635297D01*
Y638983D01*
X180556Y642544D01*
X178713Y645736D01*
X176820Y647629D01*
X177118Y649127D01*
X177916Y649457D01*
X179431Y650619D01*
X180593Y652134D01*
X181323Y653897D01*
X181572Y655790D01*
Y669290D01*
X181323Y671183D01*
X180593Y672946D01*
X179431Y674461D01*
X177916Y675623D01*
X177596Y675755D01*
Y699692D01*
Y703082D01*
X216164Y741650D01*
X217743D01*
X221304Y742604D01*
X224496Y744447D01*
X227103Y747054D01*
X228946Y750246D01*
X229900Y753807D01*
Y757493D01*
X228946Y761054D01*
X227103Y764246D01*
X224496Y766853D01*
X221304Y768696D01*
X217743Y769650D01*
X214057D01*
X210496Y768696D01*
X207304Y766853D01*
X204697Y764246D01*
X202854Y761054D01*
X201900Y757493D01*
Y755914D01*
X163726Y717740D01*
X112956Y768510D01*
Y772020D01*
X114430Y772631D01*
X117355Y774875D01*
X119599Y777800D01*
X121010Y781205D01*
X121491Y784860D01*
X121343Y785982D01*
X122482Y786544D01*
X146534Y762492D01*
X145704Y761054D01*
X144750Y757493D01*
Y753807D01*
X145704Y750246D01*
X147547Y747054D01*
X150154Y744447D01*
X153346Y742604D01*
X156907Y741650D01*
X160593D01*
X164154Y742604D01*
X167346Y744447D01*
X169953Y747054D01*
X171796Y750246D01*
X172750Y753807D01*
Y757493D01*
X171796Y761054D01*
X169953Y764246D01*
X167346Y766853D01*
X167191Y766943D01*
X166962Y768681D01*
X165954Y771114D01*
X164351Y773203D01*
X121693Y815861D01*
X119604Y817464D01*
X119435Y817534D01*
X117355Y820245D01*
X114430Y822489D01*
X111025Y823900D01*
X107370Y824381D01*
X98370D01*
X94715Y823900D01*
X91310Y822489D01*
X88385Y820245D01*
X87489Y819077D01*
X86286Y819485D01*
Y867419D01*
X219222Y1000355D01*
X220825Y1002444D01*
X221833Y1004876D01*
X222176Y1007487D01*
Y1038492D01*
X236832Y1053148D01*
X241877D01*
X242674Y1052536D01*
X246080Y1051125D01*
X249735Y1050644D01*
X256735D01*
X260389Y1051125D01*
X263795Y1052536D01*
X266720Y1054780D01*
X268964Y1057704D01*
X270374Y1061110D01*
X270855Y1064765D01*
X270374Y1068419D01*
X268964Y1071825D01*
X266720Y1074750D01*
X264161Y1076713D01*
X264058Y1077056D01*
Y1077873D01*
X264161Y1078217D01*
X266720Y1080180D01*
X268964Y1083104D01*
X270374Y1086510D01*
X270855Y1090165D01*
X270374Y1093819D01*
X268964Y1097225D01*
X266720Y1100150D01*
X263795Y1102394D01*
X260389Y1103804D01*
X256735Y1104285D01*
X249735D01*
X246080Y1103804D01*
X242674Y1102394D01*
X239750Y1100150D01*
X239440Y1099746D01*
X231140D01*
X228529Y1099403D01*
X226097Y1098395D01*
X224008Y1096792D01*
X187816Y1060600D01*
X186213Y1058511D01*
X185206Y1056079D01*
X184862Y1053468D01*
Y1015736D01*
X149660Y980534D01*
X148390Y981060D01*
Y990600D01*
X134620D01*
Y979330D01*
X146660D01*
X147186Y978060D01*
X57460Y888334D01*
X56286Y888820D01*
Y952612D01*
X109327Y1005653D01*
X118245D01*
X118310Y1004410D01*
X118310D01*
Y993140D01*
X133350D01*
X148390D01*
Y1004410D01*
X145174D01*
X144743Y1005680D01*
X146835Y1007285D01*
X149079Y1010210D01*
X150490Y1013615D01*
X150971Y1017270D01*
X150490Y1020925D01*
X149079Y1024330D01*
X146835Y1027255D01*
X144277Y1029218D01*
X144174Y1029561D01*
Y1030379D01*
X144277Y1030722D01*
X146835Y1032685D01*
X149079Y1035610D01*
X150490Y1039015D01*
X150971Y1042670D01*
X150490Y1046325D01*
X149079Y1049730D01*
X146835Y1052655D01*
X144277Y1054618D01*
X144174Y1054961D01*
Y1055779D01*
X144277Y1056122D01*
X146835Y1058085D01*
X149079Y1061010D01*
X150490Y1064415D01*
X150971Y1068070D01*
X150490Y1071725D01*
X149079Y1075130D01*
X146835Y1078055D01*
X144277Y1080018D01*
X144174Y1080361D01*
Y1081179D01*
X144277Y1081522D01*
X146835Y1083485D01*
X149079Y1086410D01*
X150490Y1089815D01*
X150949Y1093305D01*
X174048Y1116404D01*
X280302D01*
X294714Y1101992D01*
Y1034148D01*
X144608Y884042D01*
X143748Y883382D01*
X128758Y868392D01*
X127155Y866303D01*
X126147Y863871D01*
X125804Y861260D01*
Y850900D01*
X126147Y848289D01*
X127155Y845857D01*
X128758Y843768D01*
X142728Y829798D01*
X144817Y828195D01*
X147249Y827187D01*
X149860Y826844D01*
X232042D01*
X232484Y826402D01*
Y796290D01*
Y715010D01*
X232827Y712400D01*
X233835Y709967D01*
X235438Y707878D01*
X339164Y604152D01*
Y385480D01*
X339507Y382869D01*
X340515Y380437D01*
X342118Y378348D01*
X415367Y305099D01*
X416214Y301936D01*
X418057Y298744D01*
X419174Y297627D01*
Y147732D01*
X418005Y146835D01*
X415761Y143910D01*
X414350Y140505D01*
X413869Y136850D01*
Y129850D01*
X414350Y126195D01*
X415761Y122790D01*
X418005Y119865D01*
X420930Y117621D01*
X424335Y116210D01*
X427990Y115729D01*
X431645Y116210D01*
X435050Y117621D01*
X437975Y119865D01*
X439938Y122423D01*
X440281Y122526D01*
X441099D01*
X441442Y122423D01*
X443405Y119865D01*
X446330Y117621D01*
X449735Y116210D01*
X453390Y115729D01*
X457045Y116210D01*
X460450Y117621D01*
X463375Y119865D01*
X465338Y122423D01*
X465681Y122526D01*
X466499D01*
X466842Y122423D01*
X468805Y119865D01*
X471730Y117621D01*
X475135Y116210D01*
X478790Y115729D01*
X482445Y116210D01*
X485850Y117621D01*
X488775Y119865D01*
X491019Y122790D01*
X492430Y126195D01*
X492911Y129850D01*
Y136850D01*
X492430Y140505D01*
X491019Y143910D01*
X488775Y146835D01*
X485850Y149079D01*
X482445Y150490D01*
X480648Y150726D01*
X475066Y156308D01*
Y194640D01*
X476336Y194724D01*
X476667Y192208D01*
X477675Y189776D01*
X479278Y187687D01*
X533474Y133491D01*
Y103238D01*
X522872Y92636D01*
X141338D01*
X135816Y98158D01*
Y121652D01*
X136689Y122790D01*
X138100Y126195D01*
X138581Y129850D01*
Y136850D01*
X138100Y140505D01*
X136689Y143910D01*
X134445Y146835D01*
X131520Y149079D01*
X128115Y150490D01*
X124460Y150971D01*
X120805Y150490D01*
X117400Y149079D01*
X114475Y146835D01*
X112512Y144277D01*
X112169Y144174D01*
X111351D01*
X111008Y144277D01*
X109045Y146835D01*
X106120Y149079D01*
X102715Y150490D01*
X99060Y150971D01*
X95405Y150490D01*
X92000Y149079D01*
X89075Y146835D01*
X87112Y144277D01*
X86769Y144174D01*
X85951D01*
X85608Y144277D01*
X83746Y146703D01*
Y224867D01*
X85435Y226556D01*
X87095Y229039D01*
X88237Y231798D01*
X88820Y234727D01*
Y237713D01*
X88237Y240642D01*
X87095Y243401D01*
X85721Y245457D01*
Y279737D01*
X103238Y297254D01*
X157797D01*
X158914Y296137D01*
X162106Y294294D01*
X165667Y293340D01*
X169353D01*
X172914Y294294D01*
X176106Y296137D01*
X178713Y298744D01*
X180556Y301936D01*
X181510Y305497D01*
Y309183D01*
X180556Y312744D01*
X178713Y315936D01*
X176106Y318543D01*
X172914Y320386D01*
X169353Y321340D01*
X165667D01*
X162106Y320386D01*
X158914Y318543D01*
X157797Y317426D01*
X99060D01*
X96449Y317083D01*
X94017Y316075D01*
X91928Y314472D01*
X74930Y297474D01*
X38848Y333556D01*
Y515601D01*
X40118Y515941D01*
X40867Y514644D01*
X41984Y513527D01*
Y462278D01*
X42327Y459668D01*
X43335Y457235D01*
X44938Y455146D01*
X57118Y442966D01*
Y441387D01*
X58073Y437826D01*
X59916Y434634D01*
X62522Y432027D01*
X65715Y430184D01*
X69275Y429230D01*
X72962D01*
X76522Y430184D01*
X79714Y432027D01*
X82321Y434634D01*
X84164Y437826D01*
X85118Y441387D01*
Y445073D01*
X84164Y448634D01*
X82321Y451826D01*
X79714Y454433D01*
X76522Y456276D01*
X72962Y457230D01*
X71382D01*
X62156Y466456D01*
Y513527D01*
X63273Y514644D01*
X65116Y517836D01*
X66070Y521397D01*
Y525083D01*
X65116Y528644D01*
X63273Y531836D01*
X60666Y534443D01*
X57474Y536286D01*
X53913Y537240D01*
X50227D01*
X46666Y536286D01*
X43474Y534443D01*
X40867Y531836D01*
X40118Y530539D01*
X38848Y530879D01*
Y597354D01*
X52334Y610840D01*
X53913D01*
X57474Y611794D01*
X60666Y613637D01*
X63273Y616244D01*
X65116Y619436D01*
X66070Y622997D01*
Y626683D01*
X65116Y630244D01*
X63273Y633436D01*
X60666Y636043D01*
X57474Y637886D01*
X53913Y638840D01*
X50227D01*
X46666Y637886D01*
X43474Y636043D01*
X40867Y633436D01*
X39024Y630244D01*
X38070Y626683D01*
Y625104D01*
X21630Y608664D01*
X20027Y606575D01*
X19019Y604142D01*
X18676Y601532D01*
Y329378D01*
X19019Y326768D01*
X20027Y324335D01*
X21630Y322246D01*
X65548Y278328D01*
Y249033D01*
X63996Y247995D01*
X61884Y245884D01*
X60225Y243401D01*
X59083Y240642D01*
X58500Y237713D01*
Y234727D01*
X59083Y231798D01*
X60225Y229039D01*
X61884Y226556D01*
X63574Y224867D01*
Y146703D01*
X61431Y143910D01*
X60020Y140505D01*
X59539Y136850D01*
Y129850D01*
X60020Y126195D01*
X61431Y122790D01*
X63675Y119865D01*
X66600Y117621D01*
X70005Y116210D01*
X73660Y115729D01*
X77315Y116210D01*
X80720Y117621D01*
X83645Y119865D01*
X85608Y122423D01*
X85951Y122526D01*
X86769D01*
X87112Y122423D01*
X89075Y119865D01*
X92000Y117621D01*
X95405Y116210D01*
X99060Y115729D01*
X102715Y116210D01*
X106120Y117621D01*
X109045Y119865D01*
X111008Y122423D01*
X111351Y122526D01*
X112169D01*
X112512Y122423D01*
X114475Y119865D01*
X115644Y118968D01*
Y93980D01*
X115987Y91369D01*
X116995Y88937D01*
X118598Y86848D01*
X130028Y75418D01*
X132117Y73815D01*
X134550Y72807D01*
X137160Y72464D01*
X527050D01*
X529660Y72807D01*
X532093Y73815D01*
X534182Y75418D01*
X550692Y91928D01*
X552295Y94017D01*
X553303Y96449D01*
X553646Y99060D01*
Y137669D01*
X553303Y140279D01*
X552295Y142712D01*
X550692Y144801D01*
X496496Y198997D01*
Y224867D01*
X498186Y226556D01*
X499845Y229039D01*
X500987Y231798D01*
X501570Y234727D01*
Y237713D01*
X500987Y240642D01*
X499845Y243401D01*
X498186Y245884D01*
X496074Y247995D01*
X493591Y249655D01*
X490832Y250797D01*
X487903Y251380D01*
X484917D01*
X481988Y250797D01*
X479229Y249655D01*
X476746Y247995D01*
X476240Y247489D01*
X475066Y247975D01*
Y628290D01*
X474906Y629505D01*
Y633722D01*
Y723532D01*
X498104Y746730D01*
X499683D01*
X503244Y747684D01*
X506436Y749527D01*
X509043Y752134D01*
X510886Y755326D01*
X511840Y758887D01*
Y762573D01*
X510886Y766134D01*
X509043Y769326D01*
X506436Y771933D01*
X503244Y773776D01*
X499683Y774730D01*
X495997D01*
X492436Y773776D01*
X489244Y771933D01*
X486637Y769326D01*
X484794Y766134D01*
X483840Y762573D01*
Y760994D01*
X457688Y734842D01*
X456085Y732753D01*
X455077Y730321D01*
X454734Y727710D01*
Y659732D01*
X453560Y659246D01*
X447134Y665672D01*
X445045Y667275D01*
X443322Y667989D01*
Y669290D01*
X443073Y671183D01*
X442343Y672946D01*
X441181Y674461D01*
X439666Y675623D01*
X437903Y676353D01*
X436010Y676602D01*
X422510D01*
X420617Y676353D01*
X418854Y675623D01*
X417339Y674461D01*
X416177Y672946D01*
X415447Y671183D01*
X415197Y669290D01*
Y655790D01*
X415447Y653897D01*
X416177Y652134D01*
X417339Y650619D01*
X418111Y650027D01*
X417680Y648757D01*
X415420D01*
X407596Y656581D01*
Y713372D01*
X440954Y746730D01*
X442533D01*
X446094Y747684D01*
X449286Y749527D01*
X451893Y752134D01*
X453736Y755326D01*
X454690Y758887D01*
Y762573D01*
X453736Y766134D01*
X451893Y769326D01*
X449286Y771933D01*
X446094Y773776D01*
X442533Y774730D01*
X438847D01*
X435286Y773776D01*
X432094Y771933D01*
X429487Y769326D01*
X427644Y766134D01*
X426690Y762573D01*
Y760994D01*
X390378Y724682D01*
X388775Y722593D01*
X387767Y720161D01*
X387424Y717550D01*
Y657200D01*
X386250Y656714D01*
X333936Y709028D01*
Y746381D01*
X334986Y746987D01*
X337593Y749594D01*
X339436Y752786D01*
X340390Y756347D01*
Y760033D01*
X339436Y763594D01*
X337593Y766786D01*
X334986Y769393D01*
X331794Y771236D01*
X328233Y772190D01*
X324547D01*
X320986Y771236D01*
X317794Y769393D01*
X315187Y766786D01*
X313344Y763594D01*
X312390Y760033D01*
Y756347D01*
X313344Y752786D01*
X313985Y751676D01*
X313764Y749993D01*
Y730860D01*
X312590Y730374D01*
X302537Y740427D01*
X302537Y740427D01*
X284510Y758454D01*
Y760033D01*
X283556Y763594D01*
X281713Y766786D01*
X279106Y769393D01*
X275914Y771236D01*
X272353Y772190D01*
X268667D01*
X265106Y771236D01*
X261914Y769393D01*
X259307Y766786D01*
X257464Y763594D01*
X256510Y760033D01*
Y756347D01*
X257464Y752786D01*
X259307Y749594D01*
X261914Y746987D01*
X265106Y745144D01*
X268667Y744190D01*
X270246D01*
X288273Y726163D01*
X288273Y726162D01*
X316718Y697718D01*
X316718Y697718D01*
X387424Y627012D01*
Y388020D01*
X387767Y385410D01*
X388775Y382977D01*
X390378Y380888D01*
X403128Y368138D01*
X403128Y368138D01*
X415260Y356006D01*
Y355897D01*
X416214Y352336D01*
X418057Y349144D01*
X420664Y346537D01*
X423856Y344694D01*
X427417Y343740D01*
X431103D01*
X434664Y344694D01*
X436954Y346016D01*
X438224Y345283D01*
Y319797D01*
X436954Y319064D01*
X434664Y320386D01*
X431103Y321340D01*
X427654D01*
X359336Y389658D01*
Y608330D01*
X358993Y610941D01*
X357985Y613373D01*
X356382Y615462D01*
X252656Y719188D01*
Y792112D01*
X279768Y819224D01*
X443230D01*
X445840Y819567D01*
X448273Y820575D01*
X450362Y822178D01*
X480428Y852244D01*
X488127D01*
X489244Y851127D01*
X492436Y849284D01*
X495997Y848330D01*
X499683D01*
X503244Y849284D01*
X506436Y851127D01*
X509043Y853734D01*
X510886Y856926D01*
X511840Y860487D01*
Y864173D01*
X510886Y867734D01*
X509043Y870926D01*
X506436Y873533D01*
X503244Y875376D01*
X499683Y876330D01*
X495997D01*
X492436Y875376D01*
X489244Y873533D01*
X488127Y872416D01*
X450403D01*
X449286Y873533D01*
X446094Y875376D01*
X442533Y876330D01*
X438847D01*
X435286Y875376D01*
X432094Y873533D01*
X429487Y870926D01*
X427644Y867734D01*
X426690Y864173D01*
Y860487D01*
X427644Y856926D01*
X429487Y853734D01*
X432094Y851127D01*
X435286Y849284D01*
X438847Y848330D01*
X442533D01*
X446094Y849284D01*
X448578Y850719D01*
X449358Y849702D01*
X439052Y839396D01*
X275590D01*
X272980Y839053D01*
X270547Y838045D01*
X268458Y836442D01*
X253830Y821814D01*
X252656Y822300D01*
Y830580D01*
X252313Y833191D01*
X251305Y835623D01*
X249702Y837712D01*
X243352Y844062D01*
X229900Y857514D01*
Y859093D01*
X228946Y862654D01*
X227103Y865846D01*
X224496Y868453D01*
X221304Y870296D01*
X217743Y871250D01*
X214057D01*
X210496Y870296D01*
X207304Y868453D01*
X204697Y865846D01*
X202854Y862654D01*
X201900Y859093D01*
Y855407D01*
X202854Y851846D01*
X204697Y848654D01*
X205161Y848190D01*
X204675Y847016D01*
X170355D01*
X169790Y848210D01*
X170324Y849014D01*
X170511Y849038D01*
X172944Y850046D01*
X175033Y851649D01*
X333522Y1010138D01*
X335125Y1012227D01*
X336133Y1014660D01*
X336476Y1017270D01*
Y1055002D01*
X357803Y1076329D01*
X369223D01*
X371279Y1074955D01*
X374038Y1073813D01*
X376967Y1073230D01*
X379953D01*
X382882Y1073813D01*
X385641Y1074955D01*
X388124Y1076615D01*
X390235Y1078726D01*
X391895Y1081209D01*
X393037Y1083968D01*
X393620Y1086897D01*
Y1089883D01*
X393037Y1092812D01*
X391895Y1095571D01*
X390235Y1098054D01*
X388124Y1100165D01*
X385641Y1101825D01*
X382882Y1102967D01*
X379953Y1103550D01*
X376967D01*
X374038Y1102967D01*
X371279Y1101825D01*
X368796Y1100165D01*
X366684Y1098054D01*
X365647Y1096502D01*
X353625D01*
X351015Y1096158D01*
X348582Y1095150D01*
X346493Y1093547D01*
X319258Y1066312D01*
X317655Y1064223D01*
X316647Y1061790D01*
X316304Y1059180D01*
Y1021448D01*
X164786Y869931D01*
X164154Y870296D01*
X161813Y870923D01*
X161434Y872340D01*
X311932Y1022838D01*
X313535Y1024927D01*
X314543Y1027359D01*
X314886Y1029970D01*
Y1106170D01*
X314543Y1108781D01*
X313535Y1111213D01*
X311932Y1113302D01*
X291612Y1133622D01*
X289523Y1135225D01*
X287090Y1136233D01*
X284480Y1136576D01*
D02*
G37*
G36*
X500603Y1103550D02*
X497617D01*
X494688Y1102967D01*
X491929Y1101825D01*
X489446Y1100165D01*
X487757Y1098476D01*
X450850D01*
X448240Y1098133D01*
X445807Y1097125D01*
X443718Y1095522D01*
X400508Y1052312D01*
X398905Y1050223D01*
X397897Y1047791D01*
X397554Y1045180D01*
Y979631D01*
X397897Y977020D01*
X398905Y974588D01*
X400508Y972499D01*
X412429Y960578D01*
X412812Y960284D01*
X413230Y958183D01*
X414387Y955389D01*
X415395Y953880D01*
X414716Y952610D01*
X412640D01*
Y936174D01*
X346977Y870511D01*
X335468D01*
X334986Y870993D01*
X331794Y872836D01*
X328233Y873790D01*
X324547D01*
X320986Y872836D01*
X317794Y870993D01*
X315187Y868386D01*
X313344Y865194D01*
X312390Y861633D01*
Y857947D01*
X313344Y854386D01*
X315187Y851194D01*
X317794Y848587D01*
X320986Y846744D01*
X324547Y845790D01*
X328233D01*
X331794Y846744D01*
X334986Y848587D01*
X336738Y850339D01*
X374462D01*
X374944Y849857D01*
X378136Y848014D01*
X381697Y847060D01*
X385383D01*
X388944Y848014D01*
X392136Y849857D01*
X394743Y852464D01*
X396586Y855656D01*
X397540Y859217D01*
Y862903D01*
X396586Y866464D01*
X394743Y869656D01*
X392136Y872263D01*
X388944Y874106D01*
X385383Y875060D01*
X381850D01*
X381270Y875800D01*
X381096Y876101D01*
X426904Y921910D01*
X443340D01*
Y941955D01*
X443426Y942610D01*
X443340Y943265D01*
Y952610D01*
X441264D01*
X440585Y953880D01*
X441593Y955389D01*
X442750Y958183D01*
X443340Y961148D01*
Y964172D01*
X442750Y967137D01*
X441593Y969931D01*
X439913Y972445D01*
X437775Y974583D01*
X437563Y974725D01*
Y975995D01*
X437775Y976137D01*
X439913Y978275D01*
X441593Y980789D01*
X442750Y983583D01*
X443340Y986548D01*
Y989572D01*
X442750Y992537D01*
X441593Y995331D01*
X439913Y997845D01*
X438076Y999682D01*
Y1008012D01*
X451218Y1021154D01*
X470802D01*
X483840Y1008116D01*
Y1006537D01*
X484794Y1002976D01*
X486637Y999784D01*
X489244Y997177D01*
X492436Y995334D01*
X495997Y994380D01*
X499683D01*
X503244Y995334D01*
X506436Y997177D01*
X509043Y999784D01*
X510886Y1002976D01*
X511840Y1006537D01*
Y1010223D01*
X510886Y1013784D01*
X509043Y1016976D01*
X506436Y1019583D01*
X503244Y1021426D01*
X499683Y1022380D01*
X498104D01*
X482112Y1038372D01*
X480023Y1039975D01*
X477590Y1040983D01*
X474980Y1041326D01*
X447040D01*
X444430Y1040983D01*
X443069Y1040419D01*
X442350Y1041496D01*
X453758Y1052904D01*
X483950D01*
Y1047830D01*
X514270D01*
Y1078150D01*
X512028D01*
X511349Y1079420D01*
X512545Y1081209D01*
X513687Y1083968D01*
X514270Y1086897D01*
Y1089883D01*
X513687Y1092812D01*
X512545Y1095571D01*
X510886Y1098054D01*
X508774Y1100165D01*
X506291Y1101825D01*
X503532Y1102967D01*
X500603Y1103550D01*
D02*
G37*
G36*
X132080Y990600D02*
X118310D01*
Y979330D01*
X132080D01*
Y990600D01*
D02*
G37*
G36*
X272100Y935370D02*
X268920D01*
X265847Y934547D01*
X263093Y932956D01*
X260844Y930707D01*
X259253Y927953D01*
X258430Y924880D01*
Y921700D01*
X259253Y918627D01*
X260424Y916600D01*
Y869503D01*
X259307Y868386D01*
X257464Y865194D01*
X256510Y861633D01*
Y857947D01*
X257464Y854386D01*
X259307Y851194D01*
X261914Y848587D01*
X265106Y846744D01*
X268667Y845790D01*
X272353D01*
X275914Y846744D01*
X279106Y848587D01*
X281713Y851194D01*
X283556Y854386D01*
X284510Y857947D01*
Y861633D01*
X283556Y865194D01*
X281713Y868386D01*
X280596Y869503D01*
Y916600D01*
X281767Y918627D01*
X282590Y921700D01*
Y924880D01*
X281767Y927953D01*
X280176Y930707D01*
X277927Y932956D01*
X275173Y934547D01*
X272100Y935370D01*
D02*
G37*
G36*
X567120Y56830D02*
X563180D01*
X559316Y56061D01*
X555676Y54554D01*
X552401Y52365D01*
X549615Y49579D01*
X547426Y46304D01*
X545919Y42664D01*
X545150Y38800D01*
Y34860D01*
X545919Y30996D01*
X547426Y27357D01*
X549615Y24081D01*
X552401Y21295D01*
X555676Y19106D01*
X559316Y17599D01*
X563180Y16830D01*
X567120D01*
X570984Y17599D01*
X574623Y19106D01*
X577899Y21295D01*
X580685Y24081D01*
X582874Y27357D01*
X584381Y30996D01*
X585150Y34860D01*
Y38800D01*
X584381Y42664D01*
X582874Y46304D01*
X580685Y49579D01*
X577899Y52365D01*
X574623Y54554D01*
X570984Y56061D01*
X567120Y56830D01*
D02*
G37*
G36*
X41340D02*
X37400D01*
X33536Y56061D01*
X29897Y54554D01*
X26621Y52365D01*
X23835Y49579D01*
X21646Y46304D01*
X20139Y42664D01*
X19370Y38800D01*
Y34860D01*
X20139Y30996D01*
X21646Y27357D01*
X23835Y24081D01*
X26621Y21295D01*
X29897Y19106D01*
X33536Y17599D01*
X37400Y16830D01*
X41340D01*
X45204Y17599D01*
X48843Y19106D01*
X52119Y21295D01*
X54905Y24081D01*
X57094Y27357D01*
X58601Y30996D01*
X59370Y34860D01*
Y38800D01*
X58601Y42664D01*
X57094Y46304D01*
X54905Y49579D01*
X52119Y52365D01*
X48843Y54554D01*
X45204Y56061D01*
X41340Y56830D01*
D02*
G37*
%LPD*%
G36*
X411242Y628584D02*
X418034D01*
X418057Y628544D01*
X420664Y625937D01*
X422157Y625075D01*
Y623805D01*
X420664Y622943D01*
X418057Y620336D01*
X416214Y617144D01*
X415260Y613583D01*
Y609897D01*
X416214Y606336D01*
X418057Y603144D01*
X420664Y600537D01*
X422157Y599675D01*
Y598405D01*
X420664Y597543D01*
X418057Y594936D01*
X416214Y591744D01*
X415260Y588183D01*
Y584497D01*
X416214Y580936D01*
X418057Y577744D01*
X420664Y575137D01*
X422157Y574275D01*
Y573005D01*
X420664Y572143D01*
X418057Y569536D01*
X416214Y566344D01*
X415260Y562783D01*
Y559097D01*
X416214Y555536D01*
X418057Y552344D01*
X420664Y549737D01*
X422157Y548875D01*
Y547605D01*
X420664Y546743D01*
X418057Y544136D01*
X416214Y540944D01*
X415260Y537383D01*
Y533697D01*
X416214Y530136D01*
X418057Y526944D01*
X420664Y524337D01*
X422157Y523475D01*
Y522205D01*
X420664Y521343D01*
X418057Y518736D01*
X416214Y515544D01*
X415260Y511983D01*
Y508297D01*
X416214Y504736D01*
X418057Y501544D01*
X420664Y498937D01*
X422157Y498075D01*
Y496805D01*
X420664Y495943D01*
X418057Y493336D01*
X416214Y490144D01*
X415260Y486583D01*
Y482897D01*
X416214Y479336D01*
X418057Y476144D01*
X420664Y473537D01*
X422157Y472675D01*
Y471405D01*
X420664Y470543D01*
X418057Y467936D01*
X416214Y464744D01*
X415260Y461183D01*
Y457497D01*
X416214Y453936D01*
X418057Y450744D01*
X420664Y448137D01*
X422157Y447275D01*
Y446005D01*
X420664Y445143D01*
X418057Y442536D01*
X416214Y439344D01*
X415260Y435783D01*
Y432097D01*
X416214Y428536D01*
X418057Y425344D01*
X420664Y422737D01*
X422157Y421875D01*
Y420605D01*
X420664Y419743D01*
X418057Y417136D01*
X416214Y413944D01*
X415260Y410383D01*
Y406697D01*
X416214Y403136D01*
X418057Y399944D01*
X420664Y397337D01*
X422157Y396475D01*
Y395205D01*
X420664Y394343D01*
X418057Y391736D01*
X416214Y388544D01*
X415545Y386045D01*
X414128Y385666D01*
X407596Y392198D01*
Y628236D01*
X407740Y628332D01*
X408866Y628897D01*
X411242Y628584D01*
D02*
G37*
G36*
X483950Y1078150D02*
Y1073076D01*
X451460D01*
X450974Y1074250D01*
X455028Y1078304D01*
X482744D01*
X483950Y1078150D01*
D02*
G37*
D10*
X270510Y859790D02*
Y923290D01*
X149860Y836930D02*
X236220D01*
X135890Y850900D02*
Y861260D01*
Y850900D02*
X149860Y836930D01*
X215900Y857250D02*
X236220Y836930D01*
X242570Y830580D01*
Y796290D02*
Y830580D01*
Y715010D02*
Y796290D01*
X275590Y829310D01*
X443230D01*
X242570Y715010D02*
X349250Y608330D01*
X443230Y829310D02*
X476250Y862330D01*
X527050Y82550D02*
X543560Y99060D01*
X125730Y93980D02*
X137160Y82550D01*
X527050D01*
X349250Y385480D02*
Y608330D01*
Y385480D02*
X427390Y307340D01*
X397510Y388020D02*
Y631190D01*
Y388020D02*
X410260Y375270D01*
Y375270D02*
Y375270D01*
Y375270D02*
X427790Y357740D01*
X429260Y143510D02*
Y307340D01*
X427390D02*
X429260D01*
X323850Y704850D02*
X397510Y631190D01*
Y652403D02*
Y717550D01*
X411242Y638671D02*
X427729D01*
X429260Y637140D01*
X323850Y704850D02*
Y704850D01*
X397510Y652403D02*
X411242Y638671D01*
X427790Y357740D02*
X429260D01*
X31200Y744393D02*
X102630Y672963D01*
Y475597D02*
Y672963D01*
X46200Y750606D02*
X117630Y679176D01*
X102630Y475597D02*
X130810Y447417D01*
X132630Y492750D02*
X166040Y459340D01*
X16200Y738180D02*
X87630Y666750D01*
Y467737D02*
Y666750D01*
Y467737D02*
X96520Y458847D01*
X132630Y492750D02*
Y685390D01*
X130810Y418370D02*
Y447417D01*
X61200Y756820D02*
X132630Y685390D01*
X117630Y481810D02*
X146050Y453390D01*
X117630Y481810D02*
Y679176D01*
X96520Y457440D02*
Y458847D01*
Y457440D02*
X115810Y438150D01*
X304800Y1029970D02*
Y1106170D01*
X151080Y876250D02*
X304800Y1029970D01*
X150880Y876250D02*
X151080D01*
X135890Y861260D02*
X150880Y876250D01*
X102870Y810260D02*
X104401Y808729D01*
X114561D01*
X157219Y766071D01*
Y757181D02*
Y766071D01*
Y757181D02*
X158750Y755650D01*
X102870Y764332D02*
Y784860D01*
X284480Y1126490D02*
X304800Y1106170D01*
X169870Y1126490D02*
X284480D01*
X139463Y1096083D02*
X169870Y1126490D01*
X133350Y1093470D02*
X135963Y1096083D01*
X139463D01*
X167901Y858781D02*
X326390Y1017270D01*
X160281Y858781D02*
X167901D01*
X326390Y1017270D02*
Y1059180D01*
X158750Y857250D02*
X160281Y858781D01*
X46200Y956790D02*
X105149Y1015739D01*
X31200Y744393D02*
Y963380D01*
X110490Y1042670D01*
X16200Y971240D02*
X114300Y1069340D01*
X76200Y767080D02*
X148510Y694770D01*
X61200Y756820D02*
Y877810D01*
X76200Y871597D02*
X212090Y1007487D01*
X76200Y767080D02*
Y871597D01*
X46200Y750606D02*
Y956790D01*
X16200Y738180D02*
Y971240D01*
X61200Y877810D02*
X194948Y1011558D01*
X476250Y862330D02*
X497840D01*
X440690D02*
X476250D01*
X295405Y733295D02*
X323850Y704850D01*
Y749993D01*
X295405Y733295D02*
X295405D01*
X270510Y758190D02*
X295405Y733295D01*
X464820Y633722D02*
Y727710D01*
X497840Y760730D01*
X397510Y717550D02*
X440690Y760730D01*
X427990Y1012190D02*
Y1041400D01*
Y988060D02*
Y1012190D01*
X447040Y1031240D02*
X474980D01*
X427990Y1012190D02*
X447040Y1031240D01*
X474980D02*
X497840Y1008380D01*
X407640Y979631D02*
X419561Y967710D01*
X420045D01*
X407640Y979631D02*
Y1045180D01*
X449580Y1062990D02*
X499110D01*
X427990Y1041400D02*
X449580Y1062990D01*
X450850Y1088390D02*
X499110D01*
X407640Y1045180D02*
X450850Y1088390D01*
X425095Y962660D02*
X427990D01*
X420045Y967710D02*
X425095Y962660D01*
X351155Y860425D02*
X382905D01*
X351155D02*
X427990Y937260D01*
X327025Y860425D02*
X351155D01*
X326390Y859790D02*
X327025Y860425D01*
X382905D02*
X383540Y861060D01*
X326390Y1059180D02*
X353625Y1086415D01*
X376485D02*
X378460Y1088390D01*
X353625Y1086415D02*
X376485D01*
X74930Y283210D02*
X99060Y307340D01*
X75635Y238195D02*
Y282505D01*
X99060Y307340D02*
X167510D01*
X52070Y462278D02*
X71118Y443230D01*
X52070Y462278D02*
Y523240D01*
X28762Y329378D02*
Y601532D01*
X52070Y624840D01*
X28762Y329378D02*
X75635Y282505D01*
X105149Y1015739D02*
X131819D01*
X114300Y1069340D02*
X132080D01*
X133350Y1068070D01*
X110490Y1042670D02*
X133350D01*
X115810Y407970D02*
Y438150D01*
Y407970D02*
X166040Y357740D01*
X167510D01*
X131819Y1015739D02*
X133350Y1017270D01*
X130810Y418370D02*
X166040Y383140D01*
X167510D01*
X146050Y428530D02*
X166040Y408540D01*
X146050Y428530D02*
Y453390D01*
X194948Y1011558D02*
Y1053468D01*
X212090Y1007487D02*
Y1042670D01*
X232654Y1063234D02*
X251704D01*
X212090Y1042670D02*
X232654Y1063234D01*
X251704D02*
X253235Y1064765D01*
X252730Y1089660D02*
X253235Y1090165D01*
X231140Y1089660D02*
X252730D01*
X194948Y1053468D02*
X231140Y1089660D01*
X167510Y699692D02*
Y707260D01*
X215900Y755650D01*
X167510Y662540D02*
Y699692D01*
X102870Y764332D02*
X167510Y699692D01*
X324859Y751003D02*
Y756659D01*
X326390Y758190D01*
X323850Y749993D02*
X324859Y751003D01*
X148510Y502270D02*
Y694770D01*
X166040Y408540D02*
X167510D01*
X166040Y459340D02*
X167510D01*
X148510Y502270D02*
X166040Y484740D01*
X167510D01*
X437458Y633128D02*
X448310Y622277D01*
X429260Y662540D02*
X433260Y658540D01*
X448310Y144095D02*
Y622277D01*
X543560Y99060D02*
Y137669D01*
X486410Y194819D02*
X543560Y137669D01*
X440002Y658540D02*
X464820Y633722D01*
X427990Y937260D02*
X433340Y942610D01*
X99060Y133350D02*
X124460D01*
X125730Y132080D01*
Y93980D02*
Y132080D01*
X433260Y658540D02*
X440002D01*
X73660Y236220D02*
X75635Y238195D01*
X73660Y133350D02*
Y236220D01*
X497840Y760730D02*
X497840D01*
X453390Y133350D02*
Y139015D01*
X464980Y152130D02*
Y628290D01*
X448310Y144095D02*
X453390Y139015D01*
X464980Y152130D02*
X478790Y138320D01*
Y133350D02*
Y138320D01*
X464820Y628450D02*
Y633722D01*
X486410Y194819D02*
Y236220D01*
D11*
X133350Y1093470D02*
D03*
Y1068070D02*
D03*
Y1017270D02*
D03*
Y1042670D02*
D03*
X253235Y1064765D02*
D03*
Y1090165D02*
D03*
D12*
X133350Y991870D02*
D03*
X253235Y1039365D02*
D03*
D13*
X497840Y862330D02*
D03*
Y760730D02*
D03*
X158750Y755650D02*
D03*
Y857250D02*
D03*
X215900Y755650D02*
D03*
Y857250D02*
D03*
X52070Y624840D02*
D03*
X167510Y484740D02*
D03*
X429260Y637140D02*
D03*
X440690Y760730D02*
D03*
X326390Y859790D02*
D03*
X383540Y861060D02*
D03*
X270510Y859790D02*
D03*
X52070Y523240D02*
D03*
X71118Y443230D02*
D03*
X497840Y1008380D02*
D03*
X429260Y332340D02*
D03*
X167510D02*
D03*
X383540Y759460D02*
D03*
X71120Y417830D02*
D03*
X497840Y906780D02*
D03*
X429260Y357740D02*
D03*
X326390Y758190D02*
D03*
X270510D02*
D03*
X167510Y459340D02*
D03*
X429260Y307340D02*
D03*
X440690Y862330D02*
D03*
X167510Y307340D02*
D03*
X429260Y611740D02*
D03*
Y586340D02*
D03*
Y560940D02*
D03*
Y510140D02*
D03*
Y484740D02*
D03*
Y459340D02*
D03*
Y433940D02*
D03*
Y383140D02*
D03*
Y408540D02*
D03*
Y535540D02*
D03*
X167510Y637140D02*
D03*
Y611740D02*
D03*
Y586340D02*
D03*
Y560940D02*
D03*
Y510140D02*
D03*
Y433940D02*
D03*
Y357740D02*
D03*
Y383140D02*
D03*
Y408540D02*
D03*
Y535540D02*
D03*
D14*
X378460Y1062990D02*
D03*
X499110D02*
D03*
D15*
X378460Y1088390D02*
D03*
X499110D02*
D03*
X73660Y236220D02*
D03*
X486410D02*
D03*
D16*
X102870Y835660D02*
D03*
Y810260D02*
D03*
Y784860D02*
D03*
D17*
X270510Y923290D02*
D03*
X295910D02*
D03*
D18*
X427990Y937260D02*
D03*
D19*
Y962660D02*
D03*
Y988060D02*
D03*
D20*
X453390Y133350D02*
D03*
X478790D02*
D03*
X149860D02*
D03*
X427990D02*
D03*
X73660D02*
D03*
X99060D02*
D03*
X124460D02*
D03*
D21*
X429260Y662540D02*
D03*
X167510D02*
D03*
D22*
X99060Y236220D02*
D03*
X511810D02*
D03*
D23*
X175260Y133350D02*
D03*
X504190D02*
D03*
D24*
X39370Y1165860D02*
D03*
Y36830D02*
D03*
X565150D02*
D03*
Y1165860D02*
D03*
M02*
