M48
;Layer_Color=9474304
;FILE_FORMAT=4:4
METRIC,LZ
;TYPE=PLATED
T1F00S00C0.9000
T2F00S00C0.9100
T3F00S00C1.0000
T4F00S00C1.1000
T5F00S00C1.3800
T6F00S00C3.0000
%
T01
X000635Y00444499
X000889Y00444501
X000635Y005461
Y006477
X0008763Y0087884
X0014478Y0088011
X0021844Y0088265
X0027559Y0088138
X0046482Y0085471
X0051943
Y0075311
X0046482
X004953Y0097282
Y0102108
X003937
Y0097282
X0027559Y0098298
X0021844Y0098425
X0014478Y0098171
X0008763Y0098044
T02
X0024511Y0082169
X0027051
T03
X0016751Y0030734
Y0033234
Y0035774
Y0038314
Y0040854
Y0043394
Y0045934
Y0048474
Y0051014
Y0053554
X0042926
Y0051014
Y0048474
Y0045934
Y0043394
Y0040854
Y0038314
Y0035774
Y0033234
Y0030734
X0009779Y0078994
Y0081534
Y0084074
X0016751Y0066254
Y0063714
Y0061174
Y0058634
Y0056094
X0042926
Y0058634
Y0061174
Y0063714
Y0066254
T04
X0007366Y0013335
X0009906
X0012446
X0014986
X0017526
X0042799
X0045339
X0047879
X0050419
X0051181Y0023622
X0048641
X0009906
X0007366
X0026924Y010668
Y010922
X0044704Y0108839
Y0106299
X0011303Y010668
Y010414
Y010922
T05
X0033274Y0092329
X0035814
X0038354
T06
X0003937Y0003683
X0056515
Y0116586
X0003937
M30
