M48
;Layer_Color=9474304
;FILE_FORMAT=2:5
INCH,LZ
;TYPE=PLATED
T1F00S00C0.02800
T2F00S00C0.02992
T3F00S00C0.03543
T4F00S00C0.03937
T5F00S00C0.04331
T6F00S00C0.05433
T7F00S00C0.11811
%
T01
X0098Y01725
X0124Y0172
X01235Y0254
Y02995
T02
X0129Y01965
Y02065
X0159
Y01965
Y02165
Y02265
X0129
Y02165
T03
X0127Y01845
X0167
X00285Y0185
Y0145
X00285Y0218
X00185Y0218
X01235Y02385
X01635
X01615Y02995
X0139Y0299
Y0339
X01615Y03395
X0184Y034
X02065
X02065Y03575
X02065Y03
X0184
X0088Y02985
X0073Y0298
Y0338
X0088Y03385
X02065Y03975
T04
X0076449Y01215
Y0131342
Y0141342
Y0151342
Y0161343
Y0171343
Y0181342
Y0191342
Y0201343
Y0211343
X01795
Y0201343
Y0191342
Y0181342
Y0171343
Y0161343
Y0151342
Y0141342
Y0131342
Y01215
X00505Y03
Y031
Y032
X0076449Y0261343
Y0251343
Y0241342
Y0231343
Y0221342
X01795
Y0231343
Y0241342
Y0251343
Y0261343
T05
X00395Y0053
X00495
X00595
X00695
X00795
X0179
X0189
X0199
X0209
X0215Y00935
X0205
X00495
X00395
X0063Y0391
Y0401
Y0411
Y0421
Y0431
X0110199Y0429699
Y0419699
Y0409699
X01595Y0419
Y0429
X0207
Y0419
T06
X0179Y03695
Y03795
Y03895
T07
X00155Y00145
X02225
Y0459
X00155
M30
