G04*
G04 #@! TF.GenerationSoftware,Altium Limited,Altium Designer,21.0.9 (235)*
G04*
G04 Layer_Physical_Order=2*
G04 Layer_Color=16711680*
%FSLAX44Y44*%
%MOMM*%
G71*
G04*
G04 #@! TF.SameCoordinates,F1165C87-0A1A-440F-AE87-6C0D80C910C9*
G04*
G04*
G04 #@! TF.FilePolarity,Positive*
G04*
G01*
G75*
%ADD10C,1.0000*%
%ADD11C,2.5000*%
%ADD12O,1.8000X2.5000*%
%ADD13R,2.0000X2.5000*%
%ADD14C,1.8000*%
%ADD15R,2.5000X2.0000*%
%ADD16O,2.5000X1.8000*%
G36*
X303530Y0D02*
X-0Y0D01*
X0Y400050D01*
X303530D01*
Y0D01*
D02*
G37*
%LPC*%
G36*
X275590Y388465D02*
X272152Y388126D01*
X268845Y387123D01*
X265798Y385494D01*
X263127Y383303D01*
X260935Y380632D01*
X259307Y377585D01*
X258304Y374278D01*
X257965Y370840D01*
X258304Y367402D01*
X259307Y364095D01*
X260935Y361048D01*
X263127Y358377D01*
X265798Y356185D01*
X268845Y354557D01*
X272152Y353554D01*
X275590Y353215D01*
X279028Y353554D01*
X282335Y354557D01*
X285382Y356185D01*
X288053Y358377D01*
X290245Y361048D01*
X291873Y364095D01*
X292876Y367402D01*
X293215Y370840D01*
X292876Y374278D01*
X291873Y377585D01*
X290245Y380632D01*
X288053Y383303D01*
X285382Y385494D01*
X282335Y387123D01*
X279028Y388126D01*
X275590Y388465D01*
D02*
G37*
G36*
X29210D02*
X25772Y388126D01*
X22465Y387123D01*
X19418Y385494D01*
X16747Y383303D01*
X14555Y380632D01*
X12927Y377585D01*
X11924Y374278D01*
X11585Y370840D01*
X11924Y367402D01*
X12927Y364095D01*
X14555Y361048D01*
X16747Y358377D01*
X19418Y356185D01*
X22465Y354557D01*
X25772Y353554D01*
X29210Y353215D01*
X32648Y353554D01*
X35955Y354557D01*
X39002Y356185D01*
X41673Y358377D01*
X43864Y361048D01*
X45493Y364095D01*
X46496Y367402D01*
X46835Y370840D01*
X46496Y374278D01*
X45493Y377585D01*
X43864Y380632D01*
X41673Y383303D01*
X39002Y385494D01*
X35955Y387123D01*
X32648Y388126D01*
X29210Y388465D01*
D02*
G37*
G36*
X99060Y345313D02*
X77470D01*
X74522Y345022D01*
X71687Y344162D01*
X69074Y342766D01*
X66784Y340886D01*
X37574Y311676D01*
X35694Y309386D01*
X34298Y306773D01*
X33438Y303938D01*
X33147Y300990D01*
Y171450D01*
Y91440D01*
X33438Y88492D01*
X34298Y85657D01*
X35694Y83044D01*
X37574Y80754D01*
X53449Y64879D01*
X53449Y64879D01*
X85834Y32494D01*
X88124Y30614D01*
X90737Y29218D01*
X93572Y28358D01*
X96520Y28067D01*
X217420D01*
X220368Y28358D01*
X223203Y29218D01*
X225816Y30614D01*
X228106Y32494D01*
X271036Y75424D01*
X272916Y77714D01*
X274312Y80327D01*
X275172Y83162D01*
X275463Y86110D01*
Y191770D01*
Y264755D01*
X275172Y267704D01*
X274312Y270539D01*
X272916Y273151D01*
X271036Y275442D01*
X256392Y290086D01*
X254102Y291966D01*
X251489Y293362D01*
X248654Y294222D01*
X245705Y294513D01*
X211796D01*
X211365Y295783D01*
X212390Y296570D01*
X214240Y298980D01*
X215403Y301787D01*
X215800Y304800D01*
X215403Y307812D01*
X214240Y310620D01*
X212390Y313030D01*
X209980Y314880D01*
X207173Y316043D01*
X204160Y316439D01*
X197160D01*
X194147Y316043D01*
X191340Y314880D01*
X188930Y313030D01*
X187080Y310620D01*
X185917Y307812D01*
X185520Y304800D01*
X185587Y304292D01*
X168309Y287015D01*
X167101Y285440D01*
X166341Y283605D01*
X166082Y281637D01*
Y273353D01*
X166341Y271385D01*
X167101Y269550D01*
X168309Y267975D01*
X214645Y221640D01*
Y194920D01*
X209522Y189797D01*
X208710Y190420D01*
X205903Y191583D01*
X202890Y191980D01*
X195890D01*
X192877Y191583D01*
X190070Y190420D01*
X187660Y188570D01*
X185810Y186160D01*
X184647Y183353D01*
X184250Y180340D01*
X184418Y179064D01*
X158452Y153098D01*
X157244Y151523D01*
X156484Y149689D01*
X156225Y147721D01*
Y106190D01*
X155600Y105710D01*
X153750Y103300D01*
X152587Y100493D01*
X152190Y97480D01*
Y90480D01*
X152587Y87467D01*
X153750Y84660D01*
X155600Y82250D01*
X158010Y80400D01*
X160818Y79237D01*
X163830Y78840D01*
X166842Y79237D01*
X169650Y80400D01*
X172060Y82250D01*
X173910Y84660D01*
X175073Y87467D01*
X175470Y90480D01*
Y97480D01*
X175073Y100493D01*
X173910Y103300D01*
X172060Y105710D01*
X171435Y106190D01*
Y144571D01*
X182955Y156090D01*
X184257Y155800D01*
X184349Y155689D01*
X184250Y154940D01*
X184357Y154132D01*
X184568Y151992D01*
X185428Y149157D01*
X186824Y146544D01*
X188704Y144254D01*
X190994Y142374D01*
X193607Y140978D01*
X196442Y140118D01*
X199390Y139827D01*
X223520D01*
X226468Y140118D01*
X229303Y140978D01*
X231916Y142374D01*
X234206Y144254D01*
X244064Y154111D01*
X245237Y153625D01*
Y92370D01*
X211160Y58293D01*
X102780D01*
X100627Y60446D01*
X100964Y61905D01*
X103011Y62999D01*
X105301Y64879D01*
X123716Y83294D01*
X125596Y85584D01*
X126157Y86635D01*
X127561Y86566D01*
X128350Y84660D01*
X130200Y82250D01*
X132610Y80400D01*
X135417Y79237D01*
X138430Y78840D01*
X141442Y79237D01*
X144250Y80400D01*
X146660Y82250D01*
X148510Y84660D01*
X149673Y87467D01*
X150070Y90480D01*
Y97480D01*
X149673Y100493D01*
X148510Y103300D01*
X146660Y105710D01*
X144504Y107365D01*
Y110751D01*
X144245Y112719D01*
X143800Y113793D01*
X143485Y114553D01*
X142277Y116128D01*
X123488Y134918D01*
X121913Y136126D01*
X120078Y136886D01*
X118110Y137145D01*
X87748D01*
X86345Y138548D01*
Y168353D01*
X88898Y170906D01*
X89740Y170260D01*
X92547Y169097D01*
X95560Y168700D01*
X102560D01*
X105573Y169097D01*
X108380Y170260D01*
X110790Y172110D01*
X112640Y174520D01*
X113803Y177327D01*
X114200Y180340D01*
X114097Y181122D01*
X124758Y191782D01*
X125966Y193358D01*
X126726Y195192D01*
X126985Y197160D01*
Y220980D01*
X126726Y222948D01*
X125966Y224783D01*
X124758Y226358D01*
X85075Y266040D01*
Y292760D01*
X87979Y295664D01*
X88510D01*
X89740Y294720D01*
X92547Y293557D01*
X95560Y293160D01*
X102560D01*
X105573Y293557D01*
X108380Y294720D01*
X110790Y296570D01*
X112640Y298980D01*
X113803Y301787D01*
X114200Y304800D01*
X113803Y307812D01*
X112640Y310620D01*
X110790Y313030D01*
X108380Y314880D01*
X106474Y315669D01*
X106405Y317073D01*
X107456Y317634D01*
X109746Y319514D01*
X111626Y321804D01*
X113022Y324417D01*
X113882Y327252D01*
X114093Y329392D01*
X114200Y330200D01*
X114093Y331008D01*
X113882Y333148D01*
X113022Y335983D01*
X111626Y338596D01*
X109746Y340886D01*
X107456Y342766D01*
X104843Y344162D01*
X102008Y345022D01*
X99060Y345313D01*
D02*
G37*
G36*
X275590Y46835D02*
X272152Y46496D01*
X268845Y45493D01*
X265798Y43864D01*
X263127Y41673D01*
X260935Y39002D01*
X259307Y35955D01*
X258304Y32648D01*
X257965Y29210D01*
X258304Y25772D01*
X259307Y22465D01*
X260935Y19418D01*
X263127Y16747D01*
X265798Y14555D01*
X268845Y12927D01*
X272152Y11924D01*
X275590Y11585D01*
X279028Y11924D01*
X282335Y12927D01*
X285382Y14555D01*
X288053Y16747D01*
X290245Y19418D01*
X291873Y22465D01*
X292876Y25772D01*
X293215Y29210D01*
X292876Y32648D01*
X291873Y35955D01*
X290245Y39002D01*
X288053Y41673D01*
X285382Y43864D01*
X282335Y45493D01*
X279028Y46496D01*
X275590Y46835D01*
D02*
G37*
G36*
X29210D02*
X25772Y46496D01*
X22465Y45493D01*
X19418Y43864D01*
X16747Y41673D01*
X14555Y39002D01*
X12927Y35955D01*
X11924Y32648D01*
X11585Y29210D01*
X11924Y25772D01*
X12927Y22465D01*
X14555Y19418D01*
X16747Y16747D01*
X19418Y14555D01*
X22465Y12927D01*
X25772Y11924D01*
X29210Y11585D01*
X32648Y11924D01*
X35955Y12927D01*
X39002Y14555D01*
X41673Y16747D01*
X43864Y19418D01*
X45493Y22465D01*
X46496Y25772D01*
X46835Y29210D01*
X46496Y32648D01*
X45493Y35955D01*
X43864Y39002D01*
X41673Y41673D01*
X39002Y43864D01*
X35955Y45493D01*
X32648Y46496D01*
X29210Y46835D01*
D02*
G37*
%LPD*%
G36*
X88355Y313817D02*
X87330Y313030D01*
X85675Y310874D01*
X84829D01*
X82861Y310615D01*
X81027Y309855D01*
X79452Y308647D01*
X72092Y301288D01*
X70884Y299713D01*
X70124Y297878D01*
X69865Y295910D01*
Y262890D01*
X70124Y260922D01*
X70884Y259088D01*
X72092Y257512D01*
X111775Y217830D01*
Y215956D01*
X110505Y215502D01*
X109746Y216426D01*
X107456Y218306D01*
X104843Y219702D01*
X102008Y220562D01*
X99060Y220853D01*
X82550D01*
X79602Y220562D01*
X76767Y219702D01*
X74154Y218306D01*
X71864Y216426D01*
X64546Y209109D01*
X63373Y209595D01*
Y294730D01*
X83730Y315087D01*
X87924D01*
X88355Y313817D01*
D02*
G37*
G36*
X194877Y265438D02*
X197712Y264578D01*
X200660Y264287D01*
X239445D01*
X245237Y258495D01*
Y198030D01*
X217260Y170053D01*
X210526D01*
X210095Y171323D01*
X211120Y172110D01*
X212822Y174328D01*
X214319Y174525D01*
X216153Y175285D01*
X217728Y176493D01*
X227628Y186392D01*
X228836Y187967D01*
X229596Y189802D01*
X229855Y191770D01*
Y224790D01*
X229596Y226758D01*
X228836Y228592D01*
X227628Y230168D01*
X192559Y265237D01*
X193323Y266268D01*
X194877Y265438D01*
D02*
G37*
G36*
X71135Y171156D02*
Y135398D01*
X71394Y133429D01*
X72154Y131595D01*
X73362Y130020D01*
X79220Y124162D01*
X80795Y122954D01*
X81555Y122639D01*
X82629Y122194D01*
X84598Y121935D01*
X114960D01*
X129294Y107601D01*
Y104530D01*
X128350Y103300D01*
X127561Y101394D01*
X126157Y101326D01*
X125596Y102376D01*
X123716Y104666D01*
X121426Y106546D01*
X118813Y107942D01*
X115978Y108802D01*
X113839Y109013D01*
X113030Y109120D01*
X112221Y109013D01*
X110082Y108802D01*
X107247Y107942D01*
X104634Y106546D01*
X102344Y104666D01*
X88355Y90678D01*
X70395D01*
X63373Y97700D01*
Y165190D01*
X69992Y171809D01*
X71135Y171156D01*
D02*
G37*
D10*
X198202Y302342D02*
X200660Y304800D01*
X173687Y273353D02*
Y281637D01*
X194392Y302342D02*
X198202D01*
X173687Y281637D02*
X194392Y302342D01*
X173687Y273353D02*
X222250Y224790D01*
X136899Y95511D02*
Y110751D01*
X84598Y129540D02*
X118110D01*
X136899Y110751D01*
X163830Y93980D02*
Y147721D01*
X196449Y180340D01*
X199390D01*
Y181871D02*
X212351D01*
X136899Y95511D02*
X138430Y93980D01*
X78740Y135398D02*
X84598Y129540D01*
X78740Y135398D02*
Y171503D01*
X212351Y181871D02*
X222250Y191770D01*
Y224790D01*
X78740Y171503D02*
X86046Y178809D01*
X101029D01*
X119380Y197160D01*
Y220980D01*
X77470Y295910D02*
X84829Y303269D01*
X77470Y262890D02*
X119380Y220980D01*
X97529Y303269D02*
X99060Y304800D01*
X77470Y262890D02*
Y295910D01*
X84829Y303269D02*
X97529D01*
D11*
X223520Y154940D02*
X260350Y191770D01*
X96520Y43180D02*
X217420D01*
X260350Y86110D01*
X200660Y279400D02*
X245705D01*
X260350Y86110D02*
Y191770D01*
Y264755D01*
X245705Y279400D02*
X260350Y264755D01*
X48260Y171450D02*
X82550Y205740D01*
X48260Y91440D02*
X64135Y75565D01*
X48260Y91440D02*
Y171450D01*
Y300990D02*
X77470Y330200D01*
X48260Y171450D02*
Y300990D01*
X199390Y154940D02*
X223520D01*
X64135Y75565D02*
X96520Y43180D01*
X94615Y75565D02*
X113030Y93980D01*
X64135Y75565D02*
X94615D01*
X82550Y205740D02*
X99060D01*
X77470Y330200D02*
X99060D01*
D12*
X138430Y93980D02*
D03*
X163830D02*
D03*
X113030D02*
D03*
D13*
X189230D02*
D03*
D14*
X275590Y370840D02*
D03*
X29210D02*
D03*
Y29210D02*
D03*
X275590D02*
D03*
D15*
X200660Y330200D02*
D03*
X99060Y279400D02*
D03*
X199390Y205740D02*
D03*
X99060Y154940D02*
D03*
D16*
X200660Y304800D02*
D03*
Y279400D02*
D03*
X99060Y304800D02*
D03*
Y330200D02*
D03*
X199390Y180340D02*
D03*
Y154940D02*
D03*
X99060Y180340D02*
D03*
Y205740D02*
D03*
M02*
