G04*
G04 #@! TF.GenerationSoftware,Altium Limited,Altium Designer,21.0.9 (235)*
G04*
G04 Layer_Color=16711935*
%FSLAX44Y44*%
%MOMM*%
G71*
G04*
G04 #@! TF.SameCoordinates,E919236A-FA18-421A-BADD-4263196A2B94*
G04*
G04*
G04 #@! TF.FilePolarity,Negative*
G04*
G01*
G75*
%ADD27O,2.7032X2.0032*%
%ADD28R,2.7032X2.2032*%
%ADD29C,2.2352*%
%ADD30R,2.2352X2.2352*%
%ADD31C,2.0032*%
G04:AMPARAMS|DCode=32|XSize=2.0032mm|YSize=2.0032mm|CornerRadius=0.3266mm|HoleSize=0mm|Usage=FLASHONLY|Rotation=270.000|XOffset=0mm|YOffset=0mm|HoleType=Round|Shape=RoundedRectangle|*
%AMROUNDEDRECTD32*
21,1,2.0032,1.3500,0,0,270.0*
21,1,1.3500,2.0032,0,0,270.0*
1,1,0.6532,-0.6750,-0.6750*
1,1,0.6532,-0.6750,0.6750*
1,1,0.6532,0.6750,0.6750*
1,1,0.6532,0.6750,-0.6750*
%
%ADD32ROUNDEDRECTD32*%
%ADD33O,2.9032X2.0032*%
%ADD34O,2.0032X2.7032*%
%ADD35R,2.2032X2.7032*%
%ADD36R,2.2352X2.2352*%
%ADD37R,2.0782X2.0782*%
%ADD38C,2.0782*%
%ADD39C,1.4782*%
%ADD40R,1.4782X1.4782*%
%ADD41C,3.2032*%
%ADD42C,1.4732*%
D27*
X537210Y1090930D02*
D03*
Y1065530D02*
D03*
Y1040130D02*
D03*
Y989330D02*
D03*
Y1014730D02*
D03*
X252730Y1090930D02*
D03*
Y1065530D02*
D03*
Y1040130D02*
D03*
Y989330D02*
D03*
Y1014730D02*
D03*
X158750Y1090930D02*
D03*
Y1065530D02*
D03*
Y1040130D02*
D03*
Y989330D02*
D03*
Y1014730D02*
D03*
X63500Y1090930D02*
D03*
Y1065530D02*
D03*
Y1040130D02*
D03*
Y989330D02*
D03*
Y1014730D02*
D03*
X441960Y1090930D02*
D03*
Y1065530D02*
D03*
Y1040130D02*
D03*
Y989330D02*
D03*
Y1014730D02*
D03*
X346710Y1090930D02*
D03*
Y1065530D02*
D03*
Y1040130D02*
D03*
Y989330D02*
D03*
Y1014730D02*
D03*
X537210Y734060D02*
D03*
Y708660D02*
D03*
Y759460D02*
D03*
Y784860D02*
D03*
Y810260D02*
D03*
Y835660D02*
D03*
Y861060D02*
D03*
D28*
Y963930D02*
D03*
X252730D02*
D03*
X158750D02*
D03*
X63500D02*
D03*
X441960D02*
D03*
X346710D02*
D03*
X537210Y683260D02*
D03*
D29*
X64770Y708660D02*
D03*
X91440Y229870D02*
D03*
D30*
X64770Y683260D02*
D03*
D31*
X159890Y302260D02*
D03*
Y530460D02*
D03*
Y403460D02*
D03*
Y378060D02*
D03*
Y352660D02*
D03*
Y327260D02*
D03*
Y428860D02*
D03*
Y454260D02*
D03*
Y479660D02*
D03*
Y505060D02*
D03*
Y555860D02*
D03*
Y581260D02*
D03*
Y606660D02*
D03*
Y632060D02*
D03*
X421640Y302260D02*
D03*
Y530460D02*
D03*
Y403460D02*
D03*
Y378060D02*
D03*
Y352660D02*
D03*
Y327260D02*
D03*
Y428860D02*
D03*
Y454260D02*
D03*
Y479660D02*
D03*
Y505060D02*
D03*
Y555860D02*
D03*
Y581260D02*
D03*
Y606660D02*
D03*
Y632060D02*
D03*
X102870Y756920D02*
D03*
Y858520D02*
D03*
X250190Y857250D02*
D03*
Y755650D02*
D03*
X302260Y381000D02*
D03*
X200660D02*
D03*
X302260Y447040D02*
D03*
X200660D02*
D03*
X49530Y502920D02*
D03*
X74930D02*
D03*
X162560Y858520D02*
D03*
Y756920D02*
D03*
X207010Y755650D02*
D03*
Y857250D02*
D03*
X49530D02*
D03*
Y755650D02*
D03*
X85090Y563881D02*
D03*
X59690Y563879D02*
D03*
D32*
X159890Y657460D02*
D03*
X421640D02*
D03*
D33*
X289560Y783590D02*
D03*
Y758190D02*
D03*
Y732790D02*
D03*
D34*
X87630Y120650D02*
D03*
X113030D02*
D03*
X163830D02*
D03*
X138430D02*
D03*
X431800Y128270D02*
D03*
X482600D02*
D03*
X457200D02*
D03*
D35*
X189230Y120650D02*
D03*
X508000Y128270D02*
D03*
D36*
X116840Y229870D02*
D03*
D37*
X104140Y322580D02*
D03*
D38*
X78740D02*
D03*
X53340D02*
D03*
D39*
X354800Y854710D02*
D03*
D40*
X304800D02*
D03*
D41*
X561340Y1164590D02*
D03*
Y35560D02*
D03*
X35560D02*
D03*
Y1164590D02*
D03*
D42*
X218440Y321310D02*
D03*
X222119Y374519D02*
D03*
X566420Y758190D02*
D03*
X567690Y835660D02*
D03*
X140970Y759460D02*
D03*
X142240Y861060D02*
D03*
M02*
