G04*
G04 #@! TF.GenerationSoftware,Altium Limited,Altium Designer,21.0.9 (235)*
G04*
G04 Layer_Physical_Order=2*
G04 Layer_Color=16711680*
%FSLAX44Y44*%
%MOMM*%
G71*
G04*
G04 #@! TF.SameCoordinates,E919236A-FA18-421A-BADD-4263196A2B94*
G04*
G04*
G04 #@! TF.FilePolarity,Positive*
G04*
G01*
G75*
%ADD10C,1.0000*%
%ADD11O,2.5000X1.8000*%
%ADD12R,2.5000X2.0000*%
%ADD13C,2.0320*%
%ADD14R,2.0320X2.0320*%
%ADD15C,1.8000*%
G04:AMPARAMS|DCode=16|XSize=1.8mm|YSize=1.8mm|CornerRadius=0.225mm|HoleSize=0mm|Usage=FLASHONLY|Rotation=270.000|XOffset=0mm|YOffset=0mm|HoleType=Round|Shape=RoundedRectangle|*
%AMROUNDEDRECTD16*
21,1,1.8000,1.3500,0,0,270.0*
21,1,1.3500,1.8000,0,0,270.0*
1,1,0.4500,-0.6750,-0.6750*
1,1,0.4500,-0.6750,0.6750*
1,1,0.4500,0.6750,0.6750*
1,1,0.4500,0.6750,-0.6750*
%
%ADD16ROUNDEDRECTD16*%
%ADD17O,2.7000X1.8000*%
%ADD18O,1.8000X2.5000*%
%ADD19R,2.0000X2.5000*%
%ADD20R,2.0320X2.0320*%
%ADD21R,1.8750X1.8750*%
%ADD22C,1.8750*%
%ADD23C,1.2750*%
%ADD24R,1.2750X1.2750*%
%ADD25C,3.0000*%
%ADD26C,1.2700*%
D10*
X276860Y340360D02*
Y423402D01*
X300498Y447040D02*
X302260D01*
X276860Y423402D02*
X300498Y447040D01*
X276860Y340360D02*
X302260Y314960D01*
X252730Y426720D02*
X261860Y417590D01*
Y313450D02*
Y417590D01*
Y313450D02*
X400050Y175260D01*
X302260Y314960D02*
Y381000D01*
Y314960D02*
X353060Y264160D01*
X220110Y399650D02*
X246380Y373380D01*
Y298450D02*
Y373380D01*
Y298450D02*
X379730Y165100D01*
X192520Y333020D02*
Y344190D01*
X161760Y302260D02*
X192520Y333020D01*
X159890Y302260D02*
X161760D01*
X192520Y344190D02*
X222119Y373788D01*
X218440Y220615D02*
X229870Y209185D01*
X218440Y220615D02*
Y321310D01*
X229870Y109220D02*
Y209185D01*
X182010Y399650D02*
X220110D01*
X222119Y373788D02*
Y374519D01*
X118220Y85090D02*
X205740D01*
X229870Y109220D01*
X159890Y428860D02*
X161421Y427329D01*
X179731D01*
X180340Y426720D01*
X179731Y401929D02*
X182010Y399650D01*
X159890Y403460D02*
X161421Y401929D01*
X179731D01*
X80414Y324254D02*
Y334414D01*
X118110Y372110D02*
Y680720D01*
X80414Y334414D02*
X118110Y372110D01*
X78740Y322580D02*
X80414Y324254D01*
X78740Y320580D02*
Y322580D01*
X33020Y590549D02*
X59690Y563879D01*
X33020Y738699D02*
X49530Y755209D01*
X33020Y590549D02*
Y738699D01*
X49530Y755209D02*
Y755650D01*
X410210Y1120729D02*
X503911D01*
X310562D02*
X410210D01*
X33020Y302260D02*
X53340Y322580D01*
X33020Y205630D02*
X113030Y125620D01*
X49530Y501999D02*
Y502920D01*
X33020Y302260D02*
Y485489D01*
X17780Y826770D02*
X48113Y857103D01*
X17780Y194000D02*
X87630Y124150D01*
X33020Y485489D02*
X49530Y501999D01*
X33020Y205630D02*
Y302260D01*
X17780Y194000D02*
Y826770D01*
X552711Y1038599D02*
X574710Y1016600D01*
Y940752D02*
Y1016600D01*
X499110Y865152D02*
X574710Y940752D01*
X542180Y1014730D02*
X559710Y997200D01*
Y946965D02*
Y997200D01*
X484110Y871366D02*
X559710Y946965D01*
X484110Y753964D02*
Y871366D01*
X499110Y753000D02*
Y865152D01*
X441960Y1014730D02*
X542180D01*
X566420Y668020D02*
Y758190D01*
X458470Y560070D02*
X566420Y668020D01*
X537210Y835660D02*
X567690D01*
X469110Y760177D02*
Y895830D01*
X529710Y958930D02*
X534710Y963930D01*
X529710Y956430D02*
Y958930D01*
X469110Y895830D02*
X529710Y956430D01*
X534710Y963930D02*
X537210D01*
X454110Y766530D02*
Y954280D01*
X444460Y963930D02*
X454110Y954280D01*
X252730Y963930D02*
X275590Y941070D01*
X332928D02*
X333065Y940933D01*
X275590Y941070D02*
X332928D01*
X333065Y940933D02*
X384947D01*
X424110Y901770D01*
X254085Y925933D02*
X378734D01*
X409110Y895557D01*
X219898Y960120D02*
X254085Y925933D01*
X375404Y908050D02*
X394110Y889344D01*
X215007Y942340D02*
X249297Y908050D01*
X375404D01*
X158750Y963930D02*
X162560Y960120D01*
X219898D01*
X143698Y942340D02*
X215007D01*
X122108Y963930D02*
X143698Y942340D01*
X503911Y1120729D02*
X533710Y1090930D01*
X410210Y1120140D02*
X439420Y1090930D01*
X441960D01*
X222036Y1120729D02*
X310562D01*
X341045Y1090930D02*
X346710D01*
X337045Y1094930D02*
X341045Y1090930D01*
X336360Y1094930D02*
X337045D01*
X310562Y1120729D02*
X336360Y1094930D01*
X125141Y1120729D02*
X222036D01*
X245230Y1097095D02*
Y1097160D01*
X222036Y1120354D02*
X245230Y1097160D01*
Y1097095D02*
X251395Y1090930D01*
X252730D01*
X33701Y1120729D02*
X125141D01*
X154940Y1090930D02*
X158750D01*
X125141Y1120729D02*
X154940Y1090930D01*
X17780Y937260D02*
Y1104807D01*
X33701Y1120729D01*
X33701D02*
X56000Y1098430D01*
Y1097095D02*
Y1098430D01*
X62165Y1090930D02*
X63500D01*
X56000Y1097095D02*
X62165Y1090930D01*
X17780Y937260D02*
X49530Y905510D01*
X87630Y115680D02*
X118220Y85090D01*
X87630Y115680D02*
Y120650D01*
X59690Y261620D02*
Y301530D01*
Y261620D02*
X91440Y229870D01*
X59690Y301530D02*
X78740Y320580D01*
X148590Y783590D02*
X256917D01*
X102870Y829310D02*
Y858520D01*
Y829310D02*
X148590Y783590D01*
X162560Y756920D02*
X177800Y741680D01*
X140970Y703580D02*
Y759460D01*
X118110Y680720D02*
X140970Y703580D01*
X101600Y755650D02*
X102870Y756920D01*
X80010Y755650D02*
X101600D01*
X66211Y741851D02*
X80010Y755650D01*
X142240Y861060D02*
X160020D01*
X162560Y858520D01*
Y883920D02*
X186690Y859790D01*
Y845820D02*
Y859790D01*
X162560Y858520D02*
Y883920D01*
X140970Y905510D02*
X162560Y883920D01*
X248659Y855719D02*
X250190Y857250D01*
X224790Y831850D02*
X248659Y855719D01*
X303791D01*
X49530Y905510D02*
X140970D01*
X200660Y831850D02*
X224790D01*
X186690Y845820D02*
X200660Y831850D01*
X458470Y212090D02*
Y560070D01*
X431800Y185420D02*
X458470Y212090D01*
X441960Y963930D02*
X444460D01*
X303791Y855719D02*
X304800Y854710D01*
X256917Y783590D02*
X275917Y802590D01*
X295530Y758190D02*
X313060Y775720D01*
X275917Y802590D02*
X301930D01*
X313060Y791460D01*
Y775720D02*
Y791460D01*
X137160Y674370D02*
X177800Y715010D01*
Y741680D01*
Y715010D02*
X205755Y742964D01*
Y754395D02*
X207010Y755650D01*
X205755Y742964D02*
Y754395D01*
X137160Y355600D02*
Y674370D01*
X104140Y322580D02*
X137160Y355600D01*
X159890Y657460D02*
X163890Y661460D01*
Y669350D01*
X248659Y754119D01*
X66211Y710101D02*
Y741851D01*
X64770Y708660D02*
X66211Y710101D01*
X289560Y758190D02*
X295530D01*
X276599Y782059D02*
X288029D01*
X289560Y783590D01*
X248659Y754119D02*
X276599Y782059D01*
X248659Y754119D02*
Y754119D01*
X423171Y633591D02*
X440551D01*
X514710Y707750D02*
Y741930D01*
X440551Y633591D02*
X514710Y707750D01*
X421640Y632060D02*
X423171Y633591D01*
X421640Y657460D02*
X499110Y734930D01*
Y753000D01*
X389890Y961390D02*
X439110Y912170D01*
X349250Y961390D02*
X389890D01*
X439110Y772743D02*
Y912170D01*
X409110Y785170D02*
Y895557D01*
X394110Y794160D02*
Y889344D01*
X424110Y778956D02*
Y901770D01*
X335280Y690126D02*
X424110Y778956D01*
X350520Y684153D02*
X439110Y772743D01*
X320280Y696340D02*
X409110Y785170D01*
X402640Y672494D02*
X484110Y753964D01*
X384810Y675877D02*
X469110Y760177D01*
X368300Y680720D02*
X454110Y766530D01*
X300990Y701040D02*
X394110Y794160D01*
X514710Y741930D02*
X532240Y759460D01*
X514710Y767330D02*
Y767330D01*
X500380Y753000D02*
X514710Y767330D01*
Y767330D02*
X532240Y784860D01*
X537210D01*
X346710Y1014730D02*
X441960D01*
X252730D02*
X346710D01*
X158750D02*
X252730D01*
X63500D02*
X158750D01*
X63500Y1040130D02*
X158750D01*
X252730D01*
X346710D01*
X441960D01*
X537210D01*
X533710Y1090930D02*
X537210D01*
X419475Y403460D02*
X421640D01*
X414230Y407460D02*
X415475D01*
X419475Y403460D01*
X300990Y520700D02*
X414230Y407460D01*
X320280Y528750D02*
X420170Y428860D01*
X320280Y528750D02*
Y696340D01*
X300990Y520700D02*
Y701040D01*
X384810Y565820D02*
Y675877D01*
X350520Y549310D02*
Y684153D01*
X368300Y556930D02*
Y680720D01*
X335280Y539150D02*
Y690126D01*
X402640Y638717D02*
Y672494D01*
X384810Y565820D02*
X420170Y530460D01*
X420841Y632859D02*
X421640Y632060D01*
X402640Y638717D02*
X408498Y632859D01*
X420841D01*
X532240Y759460D02*
X537210D01*
X63500Y963930D02*
X122108D01*
X420170Y428860D02*
X421640D01*
X335280Y539150D02*
X420170Y454260D01*
X350520Y549310D02*
X420170Y479660D01*
X368300Y556930D02*
X420170Y505060D01*
Y454260D02*
X421640D01*
X346710Y963930D02*
X349250Y961390D01*
X420170Y479660D02*
X421640D01*
X420170Y505060D02*
X421640D01*
X420170Y530460D02*
X421640D01*
X113030Y120650D02*
X138430D01*
X113030D02*
Y125620D01*
X87630Y120650D02*
Y124150D01*
X537210Y1040130D02*
X538741Y1038599D01*
X552711D01*
X392430Y224790D02*
X431800Y185420D01*
X353060Y264160D02*
X392430Y224790D01*
Y273050D02*
X421640Y302260D01*
X392430Y224790D02*
Y273050D01*
X431800Y128270D02*
Y185420D01*
X379730Y111760D02*
Y165100D01*
Y111760D02*
X405130Y86360D01*
X400050Y115570D02*
Y175260D01*
Y115570D02*
X409850Y105770D01*
X482600Y123300D02*
Y128270D01*
X445660Y86360D02*
X482600Y123300D01*
X405130Y86360D02*
X445660D01*
X180340Y426720D02*
X252730D01*
X457200Y123300D02*
Y128270D01*
X439670Y105770D02*
X457200Y123300D01*
X409850Y105770D02*
X439670D01*
X200660Y447040D02*
X200660D01*
X180340Y426720D02*
X200660Y447040D01*
X182010Y399650D02*
X200660Y381000D01*
D11*
X537210Y1090930D02*
D03*
Y1065530D02*
D03*
Y1040130D02*
D03*
Y989330D02*
D03*
Y1014730D02*
D03*
X252730Y1090930D02*
D03*
Y1065530D02*
D03*
Y1040130D02*
D03*
Y989330D02*
D03*
Y1014730D02*
D03*
X158750Y1090930D02*
D03*
Y1065530D02*
D03*
Y1040130D02*
D03*
Y989330D02*
D03*
Y1014730D02*
D03*
X63500Y1090930D02*
D03*
Y1065530D02*
D03*
Y1040130D02*
D03*
Y989330D02*
D03*
Y1014730D02*
D03*
X441960Y1090930D02*
D03*
Y1065530D02*
D03*
Y1040130D02*
D03*
Y989330D02*
D03*
Y1014730D02*
D03*
X346710Y1090930D02*
D03*
Y1065530D02*
D03*
Y1040130D02*
D03*
Y989330D02*
D03*
Y1014730D02*
D03*
X537210Y734060D02*
D03*
Y708660D02*
D03*
Y759460D02*
D03*
Y784860D02*
D03*
Y810260D02*
D03*
Y835660D02*
D03*
Y861060D02*
D03*
D12*
Y963930D02*
D03*
X252730D02*
D03*
X158750D02*
D03*
X63500D02*
D03*
X441960D02*
D03*
X346710D02*
D03*
X537210Y683260D02*
D03*
D13*
X64770Y708660D02*
D03*
X91440Y229870D02*
D03*
D14*
X64770Y683260D02*
D03*
D15*
X159890Y302260D02*
D03*
Y530460D02*
D03*
Y403460D02*
D03*
Y378060D02*
D03*
Y352660D02*
D03*
Y327260D02*
D03*
Y428860D02*
D03*
Y454260D02*
D03*
Y479660D02*
D03*
Y505060D02*
D03*
Y555860D02*
D03*
Y581260D02*
D03*
Y606660D02*
D03*
Y632060D02*
D03*
X421640Y302260D02*
D03*
Y530460D02*
D03*
Y403460D02*
D03*
Y378060D02*
D03*
Y352660D02*
D03*
Y327260D02*
D03*
Y428860D02*
D03*
Y454260D02*
D03*
Y479660D02*
D03*
Y505060D02*
D03*
Y555860D02*
D03*
Y581260D02*
D03*
Y606660D02*
D03*
Y632060D02*
D03*
X102870Y756920D02*
D03*
Y858520D02*
D03*
X250190Y857250D02*
D03*
Y755650D02*
D03*
X302260Y381000D02*
D03*
X200660D02*
D03*
X302260Y447040D02*
D03*
X200660D02*
D03*
X49530Y502920D02*
D03*
X74930D02*
D03*
X162560Y858520D02*
D03*
Y756920D02*
D03*
X207010Y755650D02*
D03*
Y857250D02*
D03*
X49530D02*
D03*
Y755650D02*
D03*
X85090Y563881D02*
D03*
X59690Y563879D02*
D03*
D16*
X159890Y657460D02*
D03*
X421640D02*
D03*
D17*
X289560Y783590D02*
D03*
Y758190D02*
D03*
Y732790D02*
D03*
D18*
X87630Y120650D02*
D03*
X113030D02*
D03*
X163830D02*
D03*
X138430D02*
D03*
X431800Y128270D02*
D03*
X482600D02*
D03*
X457200D02*
D03*
D19*
X189230Y120650D02*
D03*
X508000Y128270D02*
D03*
D20*
X116840Y229870D02*
D03*
D21*
X104140Y322580D02*
D03*
D22*
X78740D02*
D03*
X53340D02*
D03*
D23*
X354800Y854710D02*
D03*
D24*
X304800D02*
D03*
D25*
X561340Y1164590D02*
D03*
Y35560D02*
D03*
X35560D02*
D03*
Y1164590D02*
D03*
D26*
X218440Y321310D02*
D03*
X222119Y374519D02*
D03*
X566420Y758190D02*
D03*
X567690Y835660D02*
D03*
X140970Y759460D02*
D03*
X142240Y861060D02*
D03*
M02*
