M48
;Layer_Color=9474304
;FILE_FORMAT=4:4
METRIC,LZ
;TYPE=PLATED
T1F00S00C0.7112
T2F00S00C0.8500
T3F00S00C0.9000
T4F00S00C1.0000
T5F00S00C1.1000
T6F00S00C1.2500
T7F00S00C3.0000
%
T01
X0021844Y0032131
X00222119Y00374519
X0014097Y0075946
X0014224Y0086106
X0056769Y0083566
X0056642Y0075819
T02
X003048Y0085471
X003548
T03
X0020066Y00381
Y0044704
X0030226
Y00381
X0007493Y0050292
X0004953
X0005969Y00563879
X0008509Y00563881
X0010287Y0075692
X0004953Y0075565
Y0085725
X0010287Y0085852
X0016256
X0020701Y0085725
X0025019
Y0075565
X0020701
X0016256Y0075692
T04
X0015989Y0030226
Y0032726
Y0035266
Y0037806
Y0040346
Y0042886
Y0045426
Y0047966
Y0050506
Y0053046
X0042164
Y0050506
Y0047966
Y0045426
Y0042886
Y0040346
Y0037806
Y0035266
Y0032726
Y0030226
Y0055586
Y0058126
Y0060666
Y0063206
Y0065746
X0028956Y0073279
Y0075819
Y0078359
X0015989Y0065746
Y0063206
Y0060666
Y0058126
Y0055586
T05
X0008763Y0012065
X0011303
X0013843
X0016383
X0018923
X004318Y0012827
X004572
X004826
X00508
X0011684Y0022987
X0009144
X0006477Y0068326
Y0070866
X0053721
Y0073406
Y0075946
Y0078486
Y0081026
Y0083566
Y0086106
Y0068326
Y0096393
Y0098933
Y0101473
Y0104013
Y0106553
Y0109093
X0044196
Y0106553
Y0104013
Y0101473
Y0098933
Y0096393
X0034671
Y0098933
Y0101473
Y0104013
Y0106553
Y0109093
X0025273
Y0106553
Y0104013
Y0101473
Y0098933
Y0096393
X0015875
Y0098933
Y0101473
Y0104013
Y0106553
Y0109093
X000635
Y0106553
Y0104013
Y0101473
Y0098933
Y0096393
T06
X0005334Y0032258
X0007874
X0010414
T07
X0003556Y0003556
X0056134
Y0116459
X0003556
M30
