G04*
G04 #@! TF.GenerationSoftware,Altium Limited,Altium Designer,20.0.10 (225)*
G04*
G04 Layer_Color=2752767*
%FSLAX44Y44*%
%MOMM*%
G71*
G01*
G75*
%ADD42C,0.0508*%
%ADD43C,0.0677*%
D42*
X428628Y663048D02*
Y667112D01*
X432692D01*
Y663048D01*
X428628D01*
Y637648D02*
Y641712D01*
X432692D01*
Y637648D01*
X428628D01*
Y612248D02*
Y616312D01*
X432692D01*
Y612248D01*
X428628D01*
Y586848D02*
Y590912D01*
X432692D01*
Y586848D01*
X428628D01*
Y561448D02*
Y565512D01*
X432692D01*
Y561448D01*
X428628D01*
Y510648D02*
Y514712D01*
X432692D01*
Y510648D01*
X428628D01*
Y485248D02*
Y489312D01*
X432692D01*
Y485248D01*
X428628D01*
Y459848D02*
Y463912D01*
X432692D01*
Y459848D01*
X428628D01*
Y434448D02*
Y438512D01*
X432692D01*
Y434448D01*
X428628D01*
Y332848D02*
Y336912D01*
X432692D01*
Y332848D01*
X428628D01*
Y358248D02*
Y362312D01*
X432692D01*
Y358248D01*
X428628D01*
Y383648D02*
Y387712D01*
X432692D01*
Y383648D01*
X428628D01*
Y409048D02*
Y413112D01*
X432692D01*
Y409048D01*
X428628D01*
Y536048D02*
Y540112D01*
X432692D01*
Y536048D01*
X428628D01*
Y307848D02*
Y311912D01*
X432692D01*
Y307848D01*
X428628D01*
X166878Y663048D02*
Y667112D01*
X170942D01*
Y663048D01*
X166878D01*
Y637648D02*
Y641712D01*
X170942D01*
Y637648D01*
X166878D01*
Y612248D02*
Y616312D01*
X170942D01*
Y612248D01*
X166878D01*
Y586848D02*
Y590912D01*
X170942D01*
Y586848D01*
X166878D01*
Y561448D02*
Y565512D01*
X170942D01*
Y561448D01*
X166878D01*
Y510648D02*
Y514712D01*
X170942D01*
Y510648D01*
X166878D01*
Y485248D02*
Y489312D01*
X170942D01*
Y485248D01*
X166878D01*
Y459848D02*
Y463912D01*
X170942D01*
Y459848D01*
X166878D01*
Y434448D02*
Y438512D01*
X170942D01*
Y434448D01*
X166878D01*
Y332848D02*
Y336912D01*
X170942D01*
Y332848D01*
X166878D01*
Y358248D02*
Y362312D01*
X170942D01*
Y358248D01*
X166878D01*
Y383648D02*
Y387712D01*
X170942D01*
Y383648D01*
X166878D01*
Y409048D02*
Y413112D01*
X170942D01*
Y409048D01*
X166878D01*
Y536048D02*
Y540112D01*
X170942D01*
Y536048D01*
X166878D01*
Y307848D02*
Y311912D01*
X170942D01*
Y307848D01*
X166878D01*
X203200Y1034288D02*
X201168Y1038352D01*
X205232D01*
X203200Y1034288D01*
Y1059688D02*
X201168Y1063752D01*
X205232D01*
X203200Y1059688D01*
Y1085088D02*
X201168Y1089152D01*
X205232D01*
X203200Y1085088D01*
X104140D02*
X102108Y1089152D01*
X106172D01*
X104140Y1085088D01*
Y1059688D02*
X102108Y1063752D01*
X106172D01*
X104140Y1059688D01*
X406400Y1090168D02*
X404368Y1094232D01*
X408432D01*
X406400Y1090168D01*
Y1013968D02*
X404368Y1018032D01*
X408432D01*
X406400Y1013968D01*
Y1039368D02*
X404368Y1043432D01*
X408432D01*
X406400Y1039368D01*
Y1064768D02*
X404368Y1068832D01*
X408432D01*
X406400Y1064768D01*
X508000Y1085088D02*
X505968Y1089152D01*
X510032D01*
X508000Y1085088D01*
Y1059688D02*
X505968Y1063752D01*
X510032D01*
X508000Y1059688D01*
X304800Y1034288D02*
X302768Y1038352D01*
X306832D01*
X304800Y1034288D01*
Y1059688D02*
X302768Y1063752D01*
X306832D01*
X304800Y1059688D01*
Y1085088D02*
X302768Y1089152D01*
X306832D01*
X304800Y1085088D01*
X370840Y875538D02*
X371856Y876554D01*
X372872D01*
X371856Y877570D01*
X372872Y878586D01*
X371856D01*
X370840Y879602D01*
X369824Y878586D01*
X368808D01*
X369824Y877570D01*
X368808Y876554D01*
X369824D01*
X370840Y875538D01*
Y773938D02*
X371856Y774954D01*
X372872D01*
X371856Y775970D01*
X372872Y776986D01*
X371856D01*
X370840Y778002D01*
X369824Y776986D01*
X368808D01*
X369824Y775970D01*
X368808Y774954D01*
X369824D01*
X370840Y773938D01*
X218440Y875538D02*
X219456Y876554D01*
X220472D01*
X219456Y877570D01*
X220472Y878586D01*
X219456D01*
X218440Y879602D01*
X217424Y878586D01*
X216408D01*
X217424Y877570D01*
X216408Y876554D01*
X217424D01*
X218440Y875538D01*
Y773938D02*
X219456Y774954D01*
X220472D01*
X219456Y775970D01*
X220472Y776986D01*
X219456D01*
X218440Y778002D01*
X217424Y776986D01*
X216408D01*
X217424Y775970D01*
X216408Y774954D01*
X217424D01*
X218440Y773938D01*
X295910D02*
X296926Y774954D01*
X297942D01*
X296926Y775970D01*
X297942Y776986D01*
X296926D01*
X295910Y778002D01*
X294894Y776986D01*
X293878D01*
X294894Y775970D01*
X293878Y774954D01*
X294894D01*
X295910Y773938D01*
Y875538D02*
X296926Y876554D01*
X297942D01*
X296926Y877570D01*
X297942Y878586D01*
X296926D01*
X295910Y879602D01*
X294894Y878586D01*
X293878D01*
X294894Y877570D01*
X293878Y876554D01*
X294894D01*
X295910Y875538D01*
X73660Y131318D02*
X71628Y135382D01*
X75692D01*
X73660Y131318D01*
X99060D02*
X97028Y135382D01*
X101092D01*
X99060Y131318D01*
X175260D02*
X173228Y135382D01*
X177292D01*
X175260Y131318D01*
X149860D02*
X147828Y135382D01*
X151892D01*
X149860Y131318D01*
X124460D02*
X122428Y135382D01*
X126492D01*
X124460Y131318D01*
X523240Y875538D02*
X524256Y876554D01*
X525272D01*
X524256Y877570D01*
X525272Y878586D01*
X524256D01*
X523240Y879602D01*
X522224Y878586D01*
X521208D01*
X522224Y877570D01*
X521208Y876554D01*
X522224D01*
X523240Y875538D01*
Y773938D02*
X524256Y774954D01*
X525272D01*
X524256Y775970D01*
X525272Y776986D01*
X524256D01*
X523240Y778002D01*
X522224Y776986D01*
X521208D01*
X522224Y775970D01*
X521208Y774954D01*
X522224D01*
X523240Y773938D01*
X447040Y875538D02*
X448056Y876554D01*
X449072D01*
X448056Y877570D01*
X449072Y878586D01*
X448056D01*
X447040Y879602D01*
X446024Y878586D01*
X445008D01*
X446024Y877570D01*
X445008Y876554D01*
X446024D01*
X447040Y875538D01*
Y773938D02*
X448056Y774954D01*
X449072D01*
X448056Y775970D01*
X449072Y776986D01*
X448056D01*
X447040Y778002D01*
X446024Y776986D01*
X445008D01*
X446024Y775970D01*
X445008Y774954D01*
X446024D01*
X447040Y773938D01*
X441960Y131318D02*
X439928Y135382D01*
X443992D01*
X441960Y131318D01*
X518160D02*
X516128Y135382D01*
X520192D01*
X518160Y131318D01*
X492760D02*
X490728Y135382D01*
X494792D01*
X492760Y131318D01*
X467360D02*
X465328Y135382D01*
X469392D01*
X467360Y131318D01*
X79248Y833628D02*
Y837692D01*
X83312D01*
Y833628D01*
X79248D01*
Y808228D02*
Y812292D01*
X83312D01*
Y808228D01*
X79248D01*
Y782828D02*
Y786892D01*
X83312D01*
Y782828D01*
X79248D01*
X77470Y235458D02*
X75438Y239522D01*
X79502D01*
X77470Y235458D01*
X102870D02*
X100838Y239522D01*
X104902D01*
X102870Y235458D01*
X142240Y875538D02*
X143256Y876554D01*
X144272D01*
X143256Y877570D01*
X144272Y878586D01*
X143256D01*
X142240Y879602D01*
X141224Y878586D01*
X140208D01*
X141224Y877570D01*
X140208Y876554D01*
X141224D01*
X142240Y875538D01*
Y773938D02*
X143256Y774954D01*
X144272D01*
X143256Y775970D01*
X144272Y776986D01*
X143256D01*
X142240Y778002D01*
X141224Y776986D01*
X140208D01*
X141224Y775970D01*
X140208Y774954D01*
X141224D01*
X142240Y773938D01*
X492760Y235458D02*
X490728Y239522D01*
X494792D01*
X492760Y235458D01*
X518160D02*
X516128Y239522D01*
X520192D01*
X518160Y235458D01*
X91440Y530098D02*
X92456Y531114D01*
X93472D01*
X92456Y532130D01*
X93472Y533146D01*
X92456D01*
X91440Y534162D01*
X90424Y533146D01*
X89408D01*
X90424Y532130D01*
X89408Y531114D01*
X90424D01*
X91440Y530098D01*
X91438Y555498D02*
X92454Y556514D01*
X93470D01*
X92454Y557530D01*
X93470Y558546D01*
X92454D01*
X91438Y559562D01*
X90422Y558546D01*
X89406D01*
X90422Y557530D01*
X89406Y556514D01*
X90422D01*
X91438Y555498D01*
X368808Y433578D02*
X369824Y435610D01*
X368808Y437642D01*
X370840Y436626D01*
X372872Y437642D01*
X371856Y435610D01*
X372872Y433578D01*
X370840Y434594D01*
X368808Y433578D01*
X371348Y330708D02*
X372364Y332740D01*
X371348Y334772D01*
X373380Y333756D01*
X375412Y334772D01*
X374396Y332740D01*
X375412Y330708D01*
X373380Y331724D01*
X371348Y330708D01*
X235458Y662178D02*
X236474Y664210D01*
X235458Y666242D01*
X237490Y665226D01*
X239522Y666242D01*
X238506Y664210D01*
X239522Y662178D01*
X237490Y663194D01*
X235458Y662178D01*
X427228Y1128268D02*
X428244Y1130300D01*
X427228Y1132332D01*
X429260Y1131316D01*
X431292Y1132332D01*
X430276Y1130300D01*
X431292Y1128268D01*
X429260Y1129284D01*
X427228Y1128268D01*
X338328D02*
X339344Y1130300D01*
X338328Y1132332D01*
X340360Y1131316D01*
X342392Y1132332D01*
X341376Y1130300D01*
X342392Y1128268D01*
X340360Y1129284D01*
X338328Y1128268D01*
X561848Y107188D02*
X562864Y109220D01*
X561848Y111252D01*
X563880Y110236D01*
X565912Y111252D01*
X564896Y109220D01*
X565912Y107188D01*
X563880Y108204D01*
X561848Y107188D01*
Y178308D02*
X562864Y180340D01*
X561848Y182372D01*
X563880Y181356D01*
X565912Y182372D01*
X564896Y180340D01*
X565912Y178308D01*
X563880Y179324D01*
X561848Y178308D01*
X363728Y659638D02*
X364744Y661670D01*
X363728Y663702D01*
X365760Y662686D01*
X367792Y663702D01*
X366776Y661670D01*
X367792Y659638D01*
X365760Y660654D01*
X363728Y659638D01*
D43*
X43942Y1164590D02*
G03*
X43942Y1164590I-2032J0D01*
G01*
Y35560D02*
G03*
X43942Y35560I-2032J0D01*
G01*
X569722D02*
G03*
X569722Y35560I-2032J0D01*
G01*
Y1164590D02*
G03*
X569722Y1164590I-2032J0D01*
G01*
M02*
