G04*
G04 GERBER (RE)GENERATED BY FLATCAM v8.994 - www.flatcam.org - Version Date: 2020/11/7*
G04 Filename: Placa de sensores.GBL*
G04 Created on : Wednesday, 10 February 2021 at 14:04*
G04*
G04 #@! TF.GenerationSoftware,Altium Limited,Altium Designer,21.0.9 (235)*
G04*
G04 Layer_Physical_Order=2*
G04 Layer_Color=16711680*
%FSLAX44Y44*%
%MOMM*%
G71*
G04*
G04 #@! TF.SameCoordinates,9D76D942-02B4-4ECB-B237-1E8E5DD44076*
G04*
G04*
G04 #@! TF.FilePolarity,Positive*
G04*
G01*
G75*
%ADD10C,1.0000*%
%ADD11O,2.5000X1.8000*%
%ADD12R,2.5000X2.0000*%
%ADD13C,2.0320*%
%ADD14R,2.0320X2.0320*%
%ADD15C,1.8000*%
G04:AMPARAMS|DCode=16|XSize=1.8mm|YSize=1.8mm|CornerRadius=0.225mm|HoleSize=0mm|Usage=FLASHONLY|Rotation=270.000|XOffset=0mm|YOffset=0mm|HoleType=Round|Shape=RoundedRectangle|*
%AMROUNDEDRECTD16*
21,1,1.8000,1.3500,0,0,270.0*
21,1,1.3500,1.8000,0,0,270.0*
1,1,0.4500,-0.6750,-0.6750*
1,1,0.4500,-0.6750,0.6750*
1,1,0.4500,0.6750,0.6750*
1,1,0.4500,0.6750,-0.6750*
%
%ADD16ROUNDEDRECTD16*%
%ADD17O,2.7000X1.8000*%
%ADD18O,1.8000X2.5000*%
%ADD19R,2.0000X2.5000*%
%ADD20R,2.0320X2.0320*%
%ADD21R,1.8750X1.8750*%
%ADD22C,1.8750*%
%ADD23C,1.2750*%
%ADD24R,1.2750X1.2750*%
%ADD25C,3.0000*%
%ADD26C,1.2700*%
G36*
X594360Y5080D02*
X596900Y2540D01*
X594360Y0D01*
X-1640D01*
X-2537Y900D01*
X1270Y1200150D01*
X594360D01*
Y5080D01*
D02*
G37*
%LPC*%
G36*
X561340Y1184687D02*
X557419Y1184301D01*
X553649Y1183157D01*
X550175Y1181300D01*
X547129Y1178801D01*
X544630Y1175755D01*
X542773Y1172281D01*
X541629Y1168511D01*
X541243Y1164590D01*
X541629Y1160669D01*
X542773Y1156899D01*
X544630Y1153425D01*
X547129Y1150379D01*
X550175Y1147880D01*
X553649Y1146023D01*
X557419Y1144879D01*
X561340Y1144493D01*
X565261Y1144879D01*
X569031Y1146023D01*
X572505Y1147880D01*
X575551Y1150379D01*
X578050Y1153425D01*
X579907Y1156899D01*
X581051Y1160669D01*
X581437Y1164590D01*
X581051Y1168511D01*
X579907Y1172281D01*
X578050Y1175755D01*
X575551Y1178801D01*
X572505Y1181300D01*
X569031Y1183157D01*
X565261Y1184301D01*
X561340Y1184687D01*
D02*
G37*
G36*
X35560D02*
X31639Y1184301D01*
X27869Y1183157D01*
X24395Y1181300D01*
X21349Y1178801D01*
X18850Y1175755D01*
X16993Y1172281D01*
X15849Y1168511D01*
X15463Y1164590D01*
X15849Y1160669D01*
X16993Y1156899D01*
X18850Y1153425D01*
X21349Y1150379D01*
X24395Y1147880D01*
X27869Y1146023D01*
X31639Y1144879D01*
X35560Y1144493D01*
X39481Y1144879D01*
X43251Y1146023D01*
X46725Y1147880D01*
X49771Y1150379D01*
X52270Y1153425D01*
X54127Y1156899D01*
X55271Y1160669D01*
X55657Y1164590D01*
X55271Y1168511D01*
X54127Y1172281D01*
X52270Y1175755D01*
X49771Y1178801D01*
X46725Y1181300D01*
X43251Y1183157D01*
X39481Y1184301D01*
X35560Y1184687D01*
D02*
G37*
G36*
X503911Y1130815D02*
X33701D01*
X31091Y1130471D01*
X28658Y1129464D01*
X26569Y1127861D01*
X10648Y1111939D01*
X9045Y1109850D01*
X8037Y1107418D01*
X7694Y1104807D01*
Y937260D01*
X8037Y934650D01*
X9045Y932217D01*
X10648Y930128D01*
X42398Y898378D01*
X44487Y896775D01*
X46919Y895767D01*
X49530Y895424D01*
X136792D01*
X152474Y879742D01*
Y871146D01*
X147549D01*
X145203Y872118D01*
X142240Y872508D01*
X139277Y872118D01*
X136516Y870974D01*
X134145Y869155D01*
X132326Y866784D01*
X131182Y864023D01*
X130792Y861060D01*
X131182Y858097D01*
X132326Y855336D01*
X134145Y852965D01*
X136516Y851146D01*
X139277Y850002D01*
X142240Y849612D01*
X145203Y850002D01*
X147549Y850974D01*
X150704D01*
X152575Y848535D01*
X155500Y846291D01*
X158905Y844880D01*
X162560Y844399D01*
X166215Y844880D01*
X169620Y846291D01*
X172545Y848535D01*
X174789Y851460D01*
X175334Y852775D01*
X176604Y852522D01*
Y845820D01*
X176947Y843210D01*
X177955Y840777D01*
X179558Y838688D01*
X193528Y824718D01*
X195617Y823115D01*
X198050Y822107D01*
X200660Y821764D01*
X224790D01*
X227400Y822107D01*
X229833Y823115D01*
X231922Y824718D01*
X250355Y843151D01*
X253845Y843610D01*
X257250Y845021D01*
X258048Y845633D01*
X293425D01*
Y843335D01*
X316175D01*
Y866085D01*
X293425D01*
Y865806D01*
X261272D01*
X260175Y867235D01*
X257250Y869479D01*
X253845Y870890D01*
X250190Y871371D01*
X246535Y870890D01*
X243130Y869479D01*
X240205Y867235D01*
X237961Y864310D01*
X236550Y860905D01*
X236091Y857415D01*
X220612Y841936D01*
X204838D01*
X196776Y849998D01*
Y859790D01*
X196433Y862401D01*
X195425Y864833D01*
X193822Y866922D01*
X169692Y891052D01*
X148102Y912642D01*
X146013Y914245D01*
X143581Y915253D01*
X140970Y915596D01*
X53708D01*
X27866Y941438D01*
Y1100630D01*
X33701Y1106464D01*
X46270Y1093896D01*
X45879Y1090930D01*
X46360Y1087275D01*
X47771Y1083870D01*
X50015Y1080945D01*
X52940Y1078701D01*
X56345Y1077290D01*
X60000Y1076809D01*
X67000D01*
X70655Y1077290D01*
X74060Y1078701D01*
X76985Y1080945D01*
X79229Y1083870D01*
X80640Y1087275D01*
X81121Y1090930D01*
X80640Y1094585D01*
X79229Y1097990D01*
X76985Y1100915D01*
X74060Y1103159D01*
X70655Y1104570D01*
X67000Y1105051D01*
X63524D01*
X63132Y1105562D01*
X59225Y1109469D01*
X59711Y1110642D01*
X120964D01*
X141198Y1090408D01*
X141610Y1087275D01*
X143021Y1083870D01*
X145265Y1080945D01*
X148190Y1078701D01*
X151595Y1077290D01*
X155250Y1076809D01*
X162250D01*
X165905Y1077290D01*
X169310Y1078701D01*
X172235Y1080945D01*
X174479Y1083870D01*
X175890Y1087275D01*
X176371Y1090930D01*
X175890Y1094585D01*
X174479Y1097990D01*
X172235Y1100915D01*
X169310Y1103159D01*
X165905Y1104570D01*
X162250Y1105051D01*
X155250D01*
X155103Y1105031D01*
X150665Y1109469D01*
X151151Y1110642D01*
X217484D01*
X235352Y1092774D01*
X235109Y1090930D01*
X235590Y1087275D01*
X237001Y1083870D01*
X239245Y1080945D01*
X242170Y1078701D01*
X245575Y1077290D01*
X249230Y1076809D01*
X256230D01*
X259885Y1077290D01*
X263290Y1078701D01*
X266215Y1080945D01*
X268459Y1083870D01*
X269870Y1087275D01*
X270351Y1090930D01*
X269870Y1094585D01*
X268459Y1097990D01*
X266215Y1100915D01*
X263290Y1103159D01*
X259885Y1104570D01*
X256230Y1105051D01*
X251603D01*
X247185Y1109469D01*
X247671Y1110642D01*
X306384D01*
X329228Y1087798D01*
X329532Y1087564D01*
X329570Y1087275D01*
X330981Y1083870D01*
X333225Y1080945D01*
X336150Y1078701D01*
X339555Y1077290D01*
X343210Y1076809D01*
X350210D01*
X353865Y1077290D01*
X357270Y1078701D01*
X360195Y1080945D01*
X362439Y1083870D01*
X363850Y1087275D01*
X364331Y1090930D01*
X363850Y1094585D01*
X362439Y1097990D01*
X360195Y1100915D01*
X357270Y1103159D01*
X353865Y1104570D01*
X350210Y1105051D01*
X343210D01*
X340818Y1104736D01*
X336085Y1109469D01*
X336571Y1110642D01*
X405443D01*
X424434Y1091652D01*
X424339Y1090930D01*
X424820Y1087275D01*
X426231Y1083870D01*
X428475Y1080945D01*
X431400Y1078701D01*
X434805Y1077290D01*
X438460Y1076809D01*
X445460D01*
X449115Y1077290D01*
X452520Y1078701D01*
X455445Y1080945D01*
X457689Y1083870D01*
X459100Y1087275D01*
X459581Y1090930D01*
X459100Y1094585D01*
X457689Y1097990D01*
X455445Y1100915D01*
X452520Y1103159D01*
X449115Y1104570D01*
X445460Y1105051D01*
X439563D01*
X435145Y1109469D01*
X435631Y1110642D01*
X499734D01*
X519611Y1090765D01*
X520070Y1087275D01*
X521481Y1083870D01*
X523725Y1080945D01*
X526650Y1078701D01*
X530055Y1077290D01*
X533710Y1076809D01*
X540710D01*
X544365Y1077290D01*
X547770Y1078701D01*
X550695Y1080945D01*
X552939Y1083870D01*
X554350Y1087275D01*
X554831Y1090930D01*
X554350Y1094585D01*
X552939Y1097990D01*
X550695Y1100915D01*
X547770Y1103159D01*
X544365Y1104570D01*
X540710Y1105051D01*
X533853D01*
X511043Y1127861D01*
X508955Y1129464D01*
X506522Y1130471D01*
X503911Y1130815D01*
D02*
G37*
G36*
X540710Y1054251D02*
X533710D01*
X530055Y1053770D01*
X526650Y1052359D01*
X523857Y1050216D01*
X455313D01*
X452520Y1052359D01*
X449115Y1053770D01*
X445460Y1054251D01*
X438460D01*
X434805Y1053770D01*
X431400Y1052359D01*
X428607Y1050216D01*
X360063D01*
X357270Y1052359D01*
X353865Y1053770D01*
X350210Y1054251D01*
X343210D01*
X339555Y1053770D01*
X336150Y1052359D01*
X333357Y1050216D01*
X266083D01*
X263290Y1052359D01*
X259885Y1053770D01*
X256230Y1054251D01*
X249230D01*
X245575Y1053770D01*
X242170Y1052359D01*
X239377Y1050216D01*
X172103D01*
X169310Y1052359D01*
X165905Y1053770D01*
X162250Y1054251D01*
X155250D01*
X151595Y1053770D01*
X148190Y1052359D01*
X145397Y1050216D01*
X76853D01*
X74060Y1052359D01*
X70655Y1053770D01*
X67000Y1054251D01*
X60000D01*
X56345Y1053770D01*
X52940Y1052359D01*
X50015Y1050115D01*
X47771Y1047190D01*
X46360Y1043785D01*
X45879Y1040130D01*
X46360Y1036475D01*
X47771Y1033070D01*
X50015Y1030145D01*
X52573Y1028182D01*
X52676Y1027839D01*
Y1027021D01*
X52573Y1026678D01*
X50015Y1024715D01*
X47771Y1021790D01*
X46360Y1018385D01*
X45879Y1014730D01*
X46360Y1011075D01*
X47771Y1007670D01*
X50015Y1004745D01*
X52573Y1002782D01*
X52676Y1002439D01*
Y1001621D01*
X52573Y1001278D01*
X50015Y999315D01*
X47771Y996390D01*
X46360Y992985D01*
X45879Y989330D01*
X46360Y985675D01*
X47771Y982270D01*
X49359Y980200D01*
X48733Y978930D01*
X46000D01*
Y948930D01*
X81000D01*
Y953844D01*
X117930D01*
X136566Y935208D01*
X138655Y933605D01*
X141087Y932597D01*
X143698Y932254D01*
X210829D01*
X242165Y900918D01*
X244254Y899315D01*
X246686Y898307D01*
X249297Y897964D01*
X371226D01*
X384024Y885166D01*
Y798338D01*
X293858Y708172D01*
X292255Y706083D01*
X291247Y703651D01*
X290904Y701040D01*
Y520700D01*
X291247Y518089D01*
X292255Y515657D01*
X293858Y513568D01*
X407098Y400328D01*
X408103Y399556D01*
X409411Y396400D01*
X411655Y393475D01*
X414213Y391512D01*
X414316Y391169D01*
Y390351D01*
X414213Y390008D01*
X411655Y388045D01*
X409411Y385120D01*
X408000Y381715D01*
X407519Y378060D01*
X408000Y374405D01*
X409411Y371000D01*
X411655Y368075D01*
X414213Y366112D01*
X414316Y365769D01*
Y364951D01*
X414213Y364608D01*
X411655Y362645D01*
X409411Y359720D01*
X408000Y356315D01*
X407519Y352660D01*
X408000Y349005D01*
X409411Y345600D01*
X411655Y342675D01*
X414580Y340431D01*
X417985Y339020D01*
X421640Y338539D01*
X425295Y339020D01*
X428700Y340431D01*
X431625Y342675D01*
X433869Y345600D01*
X435280Y349005D01*
X435761Y352660D01*
X435280Y356315D01*
X433869Y359720D01*
X431625Y362645D01*
X429067Y364608D01*
X428964Y364951D01*
Y365769D01*
X429067Y366112D01*
X431625Y368075D01*
X433869Y371000D01*
X435280Y374405D01*
X435761Y378060D01*
X435280Y381715D01*
X433869Y385120D01*
X431625Y388045D01*
X429067Y390008D01*
X428964Y390351D01*
Y391169D01*
X429067Y391512D01*
X431625Y393475D01*
X433869Y396400D01*
X435280Y399805D01*
X435761Y403460D01*
X435280Y407115D01*
X433869Y410520D01*
X431625Y413445D01*
X429067Y415408D01*
X428964Y415751D01*
Y416569D01*
X429067Y416912D01*
X431625Y418875D01*
X433869Y421800D01*
X435280Y425205D01*
X435761Y428860D01*
X435280Y432515D01*
X433869Y435920D01*
X431625Y438845D01*
X429067Y440808D01*
X428964Y441151D01*
Y441969D01*
X429067Y442312D01*
X431625Y444275D01*
X433869Y447200D01*
X435280Y450605D01*
X435761Y454260D01*
X435280Y457915D01*
X433869Y461320D01*
X431625Y464245D01*
X429067Y466208D01*
X428964Y466551D01*
Y467369D01*
X429067Y467712D01*
X431625Y469675D01*
X433869Y472600D01*
X435280Y476005D01*
X435761Y479660D01*
X435280Y483315D01*
X433869Y486720D01*
X431625Y489645D01*
X429067Y491608D01*
X428964Y491951D01*
Y492769D01*
X429067Y493112D01*
X431625Y495075D01*
X433869Y498000D01*
X435280Y501405D01*
X435761Y505060D01*
X435280Y508715D01*
X433869Y512120D01*
X431625Y515045D01*
X429067Y517008D01*
X428964Y517351D01*
Y518169D01*
X429067Y518512D01*
X431625Y520475D01*
X433869Y523400D01*
X435280Y526805D01*
X435761Y530460D01*
X435280Y534115D01*
X433869Y537520D01*
X431625Y540445D01*
X429067Y542408D01*
X428964Y542751D01*
Y543569D01*
X429067Y543912D01*
X431625Y545875D01*
X433869Y548800D01*
X435280Y552205D01*
X435761Y555860D01*
X435280Y559515D01*
X433869Y562920D01*
X431625Y565845D01*
X429067Y567808D01*
X428964Y568151D01*
Y568969D01*
X429067Y569312D01*
X431625Y571275D01*
X433869Y574200D01*
X435280Y577605D01*
X435761Y581260D01*
X435280Y584915D01*
X433869Y588320D01*
X431625Y591245D01*
X429067Y593208D01*
X428964Y593551D01*
Y594369D01*
X429067Y594712D01*
X431625Y596675D01*
X433869Y599600D01*
X435280Y603005D01*
X435761Y606660D01*
X435280Y610315D01*
X433869Y613720D01*
X431625Y616645D01*
X429067Y618608D01*
X428964Y618951D01*
Y619769D01*
X429067Y620112D01*
X431625Y622075D01*
X432722Y623504D01*
X440551D01*
X443161Y623848D01*
X445594Y624856D01*
X447683Y626459D01*
X518440Y697216D01*
X519710Y696690D01*
Y668260D01*
X550737D01*
X551222Y667087D01*
X451338Y567202D01*
X449735Y565113D01*
X448727Y562681D01*
X448384Y560070D01*
Y216268D01*
X431800Y199684D01*
X402516Y228968D01*
Y268872D01*
X421805Y288161D01*
X425295Y288620D01*
X428700Y290031D01*
X431625Y292275D01*
X433869Y295200D01*
X435280Y298605D01*
X435761Y302260D01*
X435280Y305915D01*
X433869Y309320D01*
X431625Y312245D01*
X428700Y314489D01*
X425295Y315900D01*
X421640Y316381D01*
X417985Y315900D01*
X414580Y314489D01*
X411655Y312245D01*
X409411Y309320D01*
X408000Y305915D01*
X407541Y302425D01*
X385298Y280182D01*
X383695Y278093D01*
X382687Y275660D01*
X382344Y273050D01*
Y250800D01*
X381170Y250314D01*
X365686Y265798D01*
Y349250D01*
X365343Y351861D01*
X364335Y354293D01*
X362732Y356382D01*
X318899Y400215D01*
X318440Y403705D01*
X317029Y407110D01*
X314785Y410035D01*
X311860Y412279D01*
X308455Y413690D01*
X304800Y414171D01*
X301145Y413690D01*
X297740Y412279D01*
X294815Y410035D01*
X292571Y407110D01*
X291160Y403705D01*
X290679Y400050D01*
X291160Y396395D01*
X292571Y392990D01*
X294815Y390065D01*
X297740Y387821D01*
X301145Y386410D01*
X304635Y385951D01*
X345514Y345072D01*
Y287630D01*
X344340Y287144D01*
X314886Y316598D01*
Y324157D01*
X317029Y326950D01*
X318440Y330355D01*
X318921Y334010D01*
X318440Y337665D01*
X317029Y341070D01*
X314785Y343995D01*
X311860Y346239D01*
X308455Y347650D01*
X304800Y348131D01*
X301145Y347650D01*
X297740Y346239D01*
X294815Y343995D01*
X292571Y341070D01*
X291160Y337665D01*
X290679Y334010D01*
X291160Y330355D01*
X292571Y326950D01*
X294714Y324157D01*
Y312420D01*
X295057Y309809D01*
X296065Y307377D01*
X297668Y305288D01*
X345928Y257028D01*
X345928Y257028D01*
X385298Y217658D01*
X421714Y181242D01*
Y141623D01*
X419571Y138830D01*
X418160Y135425D01*
X417679Y131770D01*
Y124770D01*
X418160Y121115D01*
X419571Y117710D01*
X420119Y116995D01*
X419557Y115856D01*
X414028D01*
X410136Y119748D01*
Y175260D01*
X409793Y177871D01*
X408785Y180303D01*
X407182Y182392D01*
X286946Y302628D01*
Y358140D01*
X286603Y360751D01*
X285595Y363183D01*
X283992Y365272D01*
X262402Y386862D01*
X260313Y388465D01*
X257880Y389473D01*
X255270Y389816D01*
X214595D01*
X213969Y391086D01*
X215429Y392990D01*
X216840Y396395D01*
X217321Y400050D01*
X216840Y403705D01*
X215429Y407110D01*
X213185Y410035D01*
X210260Y412279D01*
X206855Y413690D01*
X203200Y414171D01*
X199545Y413690D01*
X196140Y412279D01*
X193215Y410035D01*
X190971Y407110D01*
X189560Y403705D01*
X189101Y400215D01*
X178702Y389816D01*
X167566D01*
X167316Y390008D01*
X167214Y390351D01*
Y391169D01*
X167316Y391512D01*
X169875Y393475D01*
X172119Y396400D01*
X173530Y399805D01*
X174011Y403460D01*
X173530Y407115D01*
X172119Y410520D01*
X169875Y413445D01*
X167316Y415408D01*
X167214Y415751D01*
Y416569D01*
X167316Y416912D01*
X169875Y418875D01*
X172119Y421800D01*
X173530Y425205D01*
X174011Y428860D01*
X173530Y432515D01*
X172119Y435920D01*
X169875Y438845D01*
X167316Y440808D01*
X167214Y441151D01*
Y441969D01*
X167316Y442312D01*
X169875Y444275D01*
X172119Y447200D01*
X173530Y450605D01*
X174011Y454260D01*
X173530Y457915D01*
X172119Y461320D01*
X169875Y464245D01*
X167316Y466208D01*
X167214Y466551D01*
Y467369D01*
X167316Y467712D01*
X169875Y469675D01*
X172119Y472600D01*
X173530Y476005D01*
X174011Y479660D01*
X173530Y483315D01*
X172119Y486720D01*
X169875Y489645D01*
X167316Y491608D01*
X167214Y491951D01*
Y492769D01*
X167316Y493112D01*
X169875Y495075D01*
X172119Y498000D01*
X173530Y501405D01*
X174011Y505060D01*
X173530Y508715D01*
X172119Y512120D01*
X169875Y515045D01*
X167316Y517008D01*
X167214Y517351D01*
Y518169D01*
X167316Y518512D01*
X169875Y520475D01*
X172119Y523400D01*
X173530Y526805D01*
X174011Y530460D01*
X173530Y534115D01*
X172119Y537520D01*
X169875Y540445D01*
X167316Y542408D01*
X167214Y542751D01*
Y543569D01*
X167316Y543912D01*
X169875Y545875D01*
X172119Y548800D01*
X173530Y552205D01*
X174011Y555860D01*
X173530Y559515D01*
X172119Y562920D01*
X169875Y565845D01*
X167316Y567808D01*
X167214Y568151D01*
Y568969D01*
X167316Y569312D01*
X169875Y571275D01*
X172119Y574200D01*
X173530Y577605D01*
X174011Y581260D01*
X173530Y584915D01*
X172119Y588320D01*
X169875Y591245D01*
X167316Y593208D01*
X167214Y593551D01*
Y594369D01*
X167316Y594712D01*
X169875Y596675D01*
X172119Y599600D01*
X173530Y603005D01*
X174011Y606660D01*
X173530Y610315D01*
X172119Y613720D01*
X169875Y616645D01*
X167316Y618608D01*
X167214Y618951D01*
Y619769D01*
X167316Y620112D01*
X169875Y622075D01*
X172119Y625000D01*
X173530Y628405D01*
X174011Y632060D01*
X173530Y635715D01*
X172119Y639120D01*
X169875Y642045D01*
X169212Y642553D01*
X169403Y644007D01*
X170296Y644377D01*
X171811Y645539D01*
X172973Y647054D01*
X173703Y648817D01*
X173953Y650710D01*
Y661280D01*
X173976Y661460D01*
Y665172D01*
X250355Y741551D01*
X253845Y742010D01*
X257250Y743421D01*
X260175Y745665D01*
X262419Y748590D01*
X263830Y751995D01*
X264289Y755485D01*
X270062Y761258D01*
X271265Y760665D01*
X270939Y758190D01*
X271420Y754535D01*
X272831Y751130D01*
X275075Y748205D01*
X278000Y745961D01*
X281405Y744550D01*
X285060Y744069D01*
X294060D01*
X297715Y744550D01*
X301120Y745961D01*
X304045Y748205D01*
X306289Y751130D01*
X307700Y754535D01*
X307936Y756332D01*
X320192Y768588D01*
X321795Y770677D01*
X322803Y773109D01*
X323146Y775720D01*
Y791460D01*
X322803Y794071D01*
X321795Y796503D01*
X320192Y798592D01*
X309062Y809722D01*
X306973Y811325D01*
X304541Y812333D01*
X301930Y812676D01*
X275917D01*
X273306Y812333D01*
X270874Y811325D01*
X268785Y809722D01*
X252739Y793676D01*
X152768D01*
X112956Y833488D01*
Y848667D01*
X115099Y851460D01*
X116510Y854865D01*
X116991Y858520D01*
X116510Y862175D01*
X115099Y865580D01*
X112855Y868505D01*
X109930Y870749D01*
X106525Y872160D01*
X102870Y872641D01*
X99215Y872160D01*
X95810Y870749D01*
X92885Y868505D01*
X90641Y865580D01*
X89230Y862175D01*
X88749Y858520D01*
X89230Y854865D01*
X90641Y851460D01*
X92784Y848667D01*
Y829310D01*
X93127Y826700D01*
X94135Y824267D01*
X95738Y822178D01*
X141458Y776458D01*
X143547Y774855D01*
X145979Y773847D01*
X148590Y773504D01*
X252120D01*
X252606Y772330D01*
X250025Y769749D01*
X246535Y769290D01*
X243130Y767879D01*
X240205Y765635D01*
X237961Y762710D01*
X236550Y759305D01*
X236091Y755815D01*
X156758Y676482D01*
X155155Y674393D01*
X154147Y671961D01*
X154090Y671523D01*
X153140D01*
X151247Y671273D01*
X149484Y670543D01*
X149094Y670244D01*
X148255Y671201D01*
X184932Y707878D01*
X212887Y735832D01*
X214489Y737921D01*
X215497Y740354D01*
X215841Y742964D01*
Y744780D01*
X216995Y745665D01*
X219239Y748590D01*
X220650Y751995D01*
X221131Y755650D01*
X220650Y759305D01*
X219239Y762710D01*
X216995Y765635D01*
X214070Y767879D01*
X210665Y769290D01*
X207010Y769771D01*
X203355Y769290D01*
X199950Y767879D01*
X197025Y765635D01*
X194781Y762710D01*
X193370Y759305D01*
X192889Y755650D01*
X193370Y751995D01*
X194781Y748590D01*
X195668Y747433D01*
Y747142D01*
X189060Y740534D01*
X187886Y741020D01*
Y741680D01*
X187543Y744290D01*
X186535Y746723D01*
X184932Y748812D01*
X176659Y757085D01*
X176200Y760575D01*
X174789Y763980D01*
X172545Y766905D01*
X169620Y769149D01*
X166215Y770560D01*
X162560Y771041D01*
X158905Y770560D01*
X155500Y769149D01*
X152575Y766905D01*
X151870Y765986D01*
X150269D01*
X149065Y767555D01*
X146694Y769374D01*
X143933Y770518D01*
X140970Y770908D01*
X138007Y770518D01*
X135246Y769374D01*
X132875Y767555D01*
X131056Y765184D01*
X129912Y762423D01*
X129522Y759460D01*
X129912Y756497D01*
X130884Y754151D01*
Y707758D01*
X110978Y687852D01*
X109375Y685763D01*
X108367Y683331D01*
X108024Y680720D01*
Y376288D01*
X73282Y341546D01*
X71679Y339457D01*
X70672Y337025D01*
X70328Y334414D01*
Y334244D01*
X68488Y332832D01*
X66840Y330686D01*
X65240D01*
X63592Y332832D01*
X60589Y335136D01*
X57093Y336585D01*
X53340Y337079D01*
X49587Y336585D01*
X46090Y335136D01*
X44245Y333721D01*
X43106Y334282D01*
Y481311D01*
X50756Y488961D01*
X53185Y489280D01*
X56590Y490691D01*
X59515Y492935D01*
X61759Y495860D01*
X63170Y499265D01*
X63651Y502920D01*
X63170Y506575D01*
X61759Y509980D01*
X59515Y512905D01*
X56590Y515149D01*
X53185Y516560D01*
X49530Y517041D01*
X45875Y516560D01*
X42470Y515149D01*
X39545Y512905D01*
X37301Y509980D01*
X35890Y506575D01*
X35409Y502920D01*
X35500Y502233D01*
X29040Y495773D01*
X27866Y496259D01*
Y579779D01*
X29040Y580266D01*
X45591Y563714D01*
X46050Y560224D01*
X47461Y556819D01*
X49705Y553894D01*
X52630Y551650D01*
X56035Y550240D01*
X59690Y549758D01*
X63345Y550240D01*
X66750Y551650D01*
X69675Y553894D01*
X71919Y556819D01*
X73330Y560224D01*
X73811Y563879D01*
X73330Y567534D01*
X71919Y570940D01*
X69675Y573864D01*
X66750Y576108D01*
X63345Y577519D01*
X59855Y577978D01*
X43106Y594727D01*
Y734521D01*
X50203Y741618D01*
X53185Y742010D01*
X55143Y742822D01*
X56150Y742048D01*
X56125Y741851D01*
Y721177D01*
X53998Y719432D01*
X52104Y717123D01*
X50696Y714490D01*
X49829Y711632D01*
X49537Y708660D01*
X49829Y705688D01*
X50696Y702830D01*
X52104Y700197D01*
X53998Y697888D01*
X56307Y695994D01*
X58940Y694586D01*
X61798Y693719D01*
X64770Y693427D01*
X67742Y693719D01*
X70600Y694586D01*
X73233Y695994D01*
X75542Y697888D01*
X77436Y700197D01*
X78844Y702830D01*
X79711Y705688D01*
X80003Y708660D01*
X79711Y711632D01*
X78844Y714490D01*
X77436Y717123D01*
X76297Y718511D01*
Y737673D01*
X84188Y745564D01*
X94672D01*
X95810Y744691D01*
X99215Y743280D01*
X102870Y742799D01*
X106525Y743280D01*
X109930Y744691D01*
X112855Y746935D01*
X115099Y749860D01*
X116510Y753265D01*
X116991Y756920D01*
X116510Y760575D01*
X115099Y763980D01*
X112855Y766905D01*
X109930Y769149D01*
X106525Y770560D01*
X102870Y771041D01*
X99215Y770560D01*
X95810Y769149D01*
X92885Y766905D01*
X91988Y765736D01*
X80010D01*
X77400Y765393D01*
X74967Y764385D01*
X72878Y762782D01*
X64730Y754634D01*
X63591Y755196D01*
X63651Y755650D01*
X63170Y759305D01*
X61759Y762710D01*
X59515Y765635D01*
X56590Y767879D01*
X53185Y769290D01*
X49530Y769771D01*
X45875Y769290D01*
X42470Y767879D01*
X39545Y765635D01*
X37301Y762710D01*
X35890Y759305D01*
X35409Y755650D01*
X35444Y755387D01*
X29040Y748983D01*
X27866Y749469D01*
Y822592D01*
X48534Y843260D01*
X49530Y843129D01*
X53185Y843610D01*
X56590Y845021D01*
X59515Y847265D01*
X61759Y850190D01*
X63170Y853595D01*
X63651Y857250D01*
X63170Y860905D01*
X61759Y864310D01*
X59515Y867235D01*
X56590Y869479D01*
X53185Y870890D01*
X49530Y871371D01*
X45875Y870890D01*
X42470Y869479D01*
X39545Y867235D01*
X37301Y864310D01*
X35890Y860905D01*
X35624Y858878D01*
X10648Y833902D01*
X9045Y831813D01*
X8037Y829380D01*
X7694Y826770D01*
Y194000D01*
X8037Y191390D01*
X9045Y188957D01*
X10648Y186868D01*
X73509Y124007D01*
Y117150D01*
X73990Y113495D01*
X75401Y110090D01*
X77645Y107165D01*
X80570Y104921D01*
X83975Y103510D01*
X85772Y103274D01*
X111088Y77958D01*
X113177Y76355D01*
X115610Y75347D01*
X118220Y75004D01*
X220980D01*
X223591Y75347D01*
X226023Y76355D01*
X228112Y77958D01*
X239542Y89388D01*
X241145Y91477D01*
X242153Y93910D01*
X242496Y96520D01*
Y218211D01*
X243468Y220557D01*
X243858Y223520D01*
X243468Y226483D01*
X242324Y229244D01*
X240505Y231615D01*
X238134Y233434D01*
X235373Y234578D01*
X232410Y234968D01*
X229447Y234578D01*
X226686Y233434D01*
X224315Y231615D01*
X222496Y229244D01*
X221352Y226483D01*
X220962Y223520D01*
X221352Y220557D01*
X222324Y218211D01*
Y100698D01*
X216802Y95176D01*
X122398D01*
X115384Y102190D01*
X115792Y103393D01*
X116685Y103510D01*
X120090Y104921D01*
X123015Y107165D01*
X124978Y109724D01*
X125321Y109826D01*
X126139D01*
X126482Y109724D01*
X128445Y107165D01*
X131370Y104921D01*
X134775Y103510D01*
X138430Y103029D01*
X142085Y103510D01*
X145490Y104921D01*
X148415Y107165D01*
X150659Y110090D01*
X152070Y113495D01*
X152551Y117150D01*
Y124150D01*
X152070Y127805D01*
X150659Y131210D01*
X148415Y134135D01*
X145490Y136379D01*
X142085Y137790D01*
X138430Y138271D01*
X134775Y137790D01*
X131370Y136379D01*
X128445Y134135D01*
X126482Y131576D01*
X126139Y131474D01*
X125321D01*
X124978Y131576D01*
X123015Y134135D01*
X120090Y136379D01*
X116685Y137790D01*
X114888Y138026D01*
X43106Y209808D01*
Y298082D01*
X48591Y303567D01*
X49794Y302974D01*
X49604Y301530D01*
Y261620D01*
X49947Y259009D01*
X50955Y256577D01*
X52558Y254488D01*
X76294Y230752D01*
X76207Y229870D01*
X76499Y226898D01*
X77366Y224040D01*
X78774Y221407D01*
X80668Y219098D01*
X82977Y217204D01*
X85610Y215796D01*
X88468Y214929D01*
X91440Y214637D01*
X94412Y214929D01*
X97270Y215796D01*
X99903Y217204D01*
X102212Y219098D01*
X104106Y221407D01*
X105514Y224040D01*
X106381Y226898D01*
X106673Y229870D01*
X106381Y232842D01*
X105514Y235700D01*
X104106Y238333D01*
X102212Y240642D01*
X99903Y242536D01*
X97270Y243944D01*
X94412Y244811D01*
X91440Y245103D01*
X90558Y245016D01*
X69776Y265798D01*
Y297352D01*
X80773Y308349D01*
X82493Y308575D01*
X85990Y310023D01*
X88495Y311946D01*
X89765Y311320D01*
Y308205D01*
X118515D01*
Y322691D01*
X144292Y348468D01*
X144931Y349300D01*
X146081Y349043D01*
X146270Y348959D01*
X147661Y345600D01*
X149905Y342675D01*
X152830Y340431D01*
X156235Y339020D01*
X159890Y338539D01*
X163545Y339020D01*
X166950Y340431D01*
X169743Y342574D01*
X180372D01*
X189101Y333845D01*
X189560Y330355D01*
X190971Y326950D01*
X193215Y324025D01*
X196140Y321781D01*
X199545Y320370D01*
X203200Y319889D01*
X206855Y320370D01*
X210260Y321781D01*
X213185Y324025D01*
X215429Y326950D01*
X216840Y330355D01*
X217321Y334010D01*
X216840Y337665D01*
X215429Y341070D01*
X215149Y341435D01*
X215711Y342574D01*
X236252D01*
X245184Y333642D01*
Y289560D01*
X245527Y286950D01*
X246535Y284517D01*
X248138Y282428D01*
X369644Y160922D01*
Y111760D01*
X369987Y109150D01*
X370995Y106717D01*
X372598Y104628D01*
X397998Y79228D01*
X400087Y77625D01*
X402519Y76617D01*
X405130Y76274D01*
X445660D01*
X448271Y76617D01*
X450703Y77625D01*
X452792Y79228D01*
X484458Y110894D01*
X486255Y111130D01*
X489660Y112541D01*
X492585Y114785D01*
X494829Y117710D01*
X496240Y121115D01*
X496721Y124770D01*
Y131770D01*
X496240Y135425D01*
X494829Y138830D01*
X492585Y141755D01*
X489660Y143999D01*
X486255Y145410D01*
X482600Y145891D01*
X478945Y145410D01*
X475540Y143999D01*
X472615Y141755D01*
X470652Y139197D01*
X470309Y139094D01*
X469491D01*
X469148Y139197D01*
X467185Y141755D01*
X464260Y143999D01*
X460855Y145410D01*
X457200Y145891D01*
X453545Y145410D01*
X450140Y143999D01*
X447215Y141755D01*
X445252Y139197D01*
X444909Y139094D01*
X444091D01*
X443748Y139197D01*
X441886Y141623D01*
Y181242D01*
X465602Y204958D01*
X467205Y207047D01*
X468213Y209480D01*
X468556Y212090D01*
Y555892D01*
X573552Y660888D01*
X575155Y662977D01*
X576163Y665409D01*
X576506Y668020D01*
Y752881D01*
X577478Y755227D01*
X577868Y758190D01*
X577478Y761153D01*
X576334Y763914D01*
X574515Y766285D01*
X572144Y768104D01*
X569383Y769248D01*
X566420Y769638D01*
X563457Y769248D01*
X560696Y768104D01*
X558325Y766285D01*
X556506Y763914D01*
X555762Y762118D01*
X554458Y762290D01*
X554350Y763115D01*
X552939Y766520D01*
X550695Y769445D01*
X548136Y771408D01*
X548034Y771751D01*
Y772569D01*
X548136Y772912D01*
X550695Y774875D01*
X552939Y777800D01*
X554350Y781205D01*
X554831Y784860D01*
X554350Y788515D01*
X552939Y791920D01*
X550695Y794845D01*
X547770Y797089D01*
X544365Y798500D01*
X540710Y798981D01*
X533710D01*
X530055Y798500D01*
X526650Y797089D01*
X523725Y794845D01*
X521481Y791920D01*
X520070Y788515D01*
X519834Y786718D01*
X510370Y777254D01*
X509196Y777740D01*
Y860975D01*
X581842Y933620D01*
X583445Y935709D01*
X584453Y938142D01*
X584796Y940752D01*
Y1016600D01*
X584453Y1019211D01*
X583445Y1021643D01*
X581842Y1023732D01*
X559843Y1045731D01*
X557754Y1047334D01*
X555321Y1048342D01*
X552711Y1048686D01*
X551792D01*
X550695Y1050115D01*
X547770Y1052359D01*
X544365Y1053770D01*
X540710Y1054251D01*
D02*
G37*
G36*
Y875181D02*
X533710D01*
X530055Y874700D01*
X526650Y873289D01*
X523725Y871045D01*
X521481Y868120D01*
X520070Y864715D01*
X519589Y861060D01*
X520070Y857405D01*
X521481Y854000D01*
X523725Y851075D01*
X526283Y849112D01*
X526386Y848769D01*
Y847951D01*
X526283Y847608D01*
X523725Y845645D01*
X521481Y842720D01*
X520070Y839315D01*
X519589Y835660D01*
X520070Y832005D01*
X521481Y828600D01*
X523725Y825675D01*
X526650Y823431D01*
X530055Y822020D01*
X533710Y821539D01*
X540710D01*
X544365Y822020D01*
X547770Y823431D01*
X550563Y825574D01*
X562381D01*
X564727Y824602D01*
X567690Y824212D01*
X570653Y824602D01*
X573414Y825746D01*
X575785Y827565D01*
X577604Y829936D01*
X578748Y832697D01*
X579138Y835660D01*
X578748Y838623D01*
X577604Y841384D01*
X575785Y843755D01*
X573414Y845574D01*
X570653Y846718D01*
X567690Y847108D01*
X564727Y846718D01*
X562381Y845746D01*
X550563D01*
X548136Y847608D01*
X548034Y847951D01*
Y848769D01*
X548136Y849112D01*
X550695Y851075D01*
X552939Y854000D01*
X554350Y857405D01*
X554831Y861060D01*
X554350Y864715D01*
X552939Y868120D01*
X550695Y871045D01*
X547770Y873289D01*
X544365Y874700D01*
X540710Y875181D01*
D02*
G37*
G36*
X159890Y316381D02*
X156235Y315900D01*
X152830Y314489D01*
X149905Y312245D01*
X147661Y309320D01*
X146250Y305915D01*
X145769Y302260D01*
X146250Y298605D01*
X147661Y295200D01*
X149905Y292275D01*
X152830Y290031D01*
X156235Y288620D01*
X159890Y288139D01*
X163545Y288620D01*
X166950Y290031D01*
X169743Y292174D01*
X227101D01*
X229447Y291202D01*
X232410Y290812D01*
X235373Y291202D01*
X238134Y292346D01*
X240505Y294165D01*
X242324Y296536D01*
X243468Y299297D01*
X243858Y302260D01*
X243468Y305223D01*
X242324Y307984D01*
X240505Y310355D01*
X238134Y312174D01*
X235373Y313318D01*
X232410Y313708D01*
X229447Y313318D01*
X227101Y312346D01*
X169743D01*
X166950Y314489D01*
X163545Y315900D01*
X159890Y316381D01*
D02*
G37*
G36*
X561340Y55657D02*
X557419Y55271D01*
X553649Y54127D01*
X550175Y52270D01*
X547129Y49771D01*
X544630Y46725D01*
X542773Y43251D01*
X541629Y39481D01*
X541243Y35560D01*
X541629Y31639D01*
X542773Y27869D01*
X544630Y24395D01*
X547129Y21349D01*
X550175Y18850D01*
X553649Y16993D01*
X557419Y15849D01*
X561340Y15463D01*
X565261Y15849D01*
X569031Y16993D01*
X572505Y18850D01*
X575551Y21349D01*
X578050Y24395D01*
X579907Y27869D01*
X581051Y31639D01*
X581437Y35560D01*
X581051Y39481D01*
X579907Y43251D01*
X578050Y46725D01*
X575551Y49771D01*
X572505Y52270D01*
X569031Y54127D01*
X565261Y55271D01*
X561340Y55657D01*
D02*
G37*
G36*
X35560D02*
X31639Y55271D01*
X27869Y54127D01*
X24395Y52270D01*
X21349Y49771D01*
X18850Y46725D01*
X16993Y43251D01*
X15849Y39481D01*
X15463Y35560D01*
X15849Y31639D01*
X16993Y27869D01*
X18850Y24395D01*
X21349Y21349D01*
X24395Y18850D01*
X27869Y16993D01*
X31639Y15849D01*
X35560Y15463D01*
X39481Y15849D01*
X43251Y16993D01*
X46725Y18850D01*
X49771Y21349D01*
X52270Y24395D01*
X54127Y27869D01*
X55271Y31639D01*
X55657Y35560D01*
X55271Y39481D01*
X54127Y43251D01*
X52270Y46725D01*
X49771Y49771D01*
X46725Y52270D01*
X43251Y54127D01*
X39481Y55271D01*
X35560Y55657D01*
D02*
G37*
%LPD*%
G36*
X526283Y1028182D02*
X526386Y1027839D01*
Y1027021D01*
X526283Y1026678D01*
X523857Y1024816D01*
X455313D01*
X452887Y1026678D01*
X452784Y1027021D01*
Y1027839D01*
X452887Y1028182D01*
X455313Y1030044D01*
X523857D01*
X526283Y1028182D01*
D02*
G37*
G36*
X431034D02*
X431136Y1027839D01*
Y1027021D01*
X431034Y1026678D01*
X428607Y1024816D01*
X360063D01*
X357636Y1026678D01*
X357534Y1027021D01*
Y1027839D01*
X357636Y1028182D01*
X360063Y1030044D01*
X428607D01*
X431034Y1028182D01*
D02*
G37*
G36*
X335784D02*
X335886Y1027839D01*
Y1027021D01*
X335784Y1026678D01*
X333357Y1024816D01*
X266083D01*
X263657Y1026678D01*
X263554Y1027021D01*
Y1027839D01*
X263657Y1028182D01*
X266083Y1030044D01*
X333357D01*
X335784Y1028182D01*
D02*
G37*
G36*
X241803D02*
X241906Y1027839D01*
Y1027021D01*
X241803Y1026678D01*
X239377Y1024816D01*
X172103D01*
X169676Y1026678D01*
X169574Y1027021D01*
Y1027839D01*
X169676Y1028182D01*
X172103Y1030044D01*
X239377D01*
X241803Y1028182D01*
D02*
G37*
G36*
X147823D02*
X147926Y1027839D01*
Y1027021D01*
X147823Y1026678D01*
X145397Y1024816D01*
X76853D01*
X74426Y1026678D01*
X74324Y1027021D01*
Y1027839D01*
X74426Y1028182D01*
X76853Y1030044D01*
X145397D01*
X147823Y1028182D01*
D02*
G37*
G36*
X241803Y1002782D02*
X241906Y1002439D01*
Y1001621D01*
X241803Y1001278D01*
X239245Y999315D01*
X237001Y996390D01*
X235590Y992985D01*
X235109Y989330D01*
X235590Y985675D01*
X237001Y982270D01*
X238589Y980200D01*
X237963Y978930D01*
X235230D01*
Y960711D01*
X234057Y960225D01*
X227030Y967252D01*
X224941Y968855D01*
X222508Y969863D01*
X219898Y970206D01*
X176250D01*
Y978930D01*
X173517D01*
X172891Y980200D01*
X174479Y982270D01*
X175890Y985675D01*
X176371Y989330D01*
X175890Y992985D01*
X174479Y996390D01*
X172235Y999315D01*
X169676Y1001278D01*
X169574Y1001621D01*
Y1002439D01*
X169676Y1002782D01*
X172103Y1004644D01*
X239377D01*
X241803Y1002782D01*
D02*
G37*
G36*
X147823D02*
X147926Y1002439D01*
Y1001621D01*
X147823Y1001278D01*
X145265Y999315D01*
X143021Y996390D01*
X141610Y992985D01*
X141129Y989330D01*
X141610Y985675D01*
X143021Y982270D01*
X144609Y980200D01*
X143983Y978930D01*
X141250D01*
Y960711D01*
X140077Y960225D01*
X129240Y971062D01*
X127151Y972665D01*
X124718Y973673D01*
X122108Y974016D01*
X81000D01*
Y978930D01*
X78267D01*
X77641Y980200D01*
X79229Y982270D01*
X80640Y985675D01*
X81121Y989330D01*
X80640Y992985D01*
X79229Y996390D01*
X76985Y999315D01*
X74426Y1001278D01*
X74324Y1001621D01*
Y1002439D01*
X74426Y1002782D01*
X76853Y1004644D01*
X145397D01*
X147823Y1002782D01*
D02*
G37*
G36*
X335784D02*
X335886Y1002439D01*
Y1001621D01*
X335784Y1001278D01*
X333225Y999315D01*
X330981Y996390D01*
X329570Y992985D01*
X329089Y989330D01*
X329570Y985675D01*
X330981Y982270D01*
X332569Y980200D01*
X331943Y978930D01*
X329210D01*
Y951156D01*
X279768D01*
X270230Y960694D01*
Y978930D01*
X267497D01*
X266871Y980200D01*
X268459Y982270D01*
X269870Y985675D01*
X270351Y989330D01*
X269870Y992985D01*
X268459Y996390D01*
X266215Y999315D01*
X263657Y1001278D01*
X263554Y1001621D01*
Y1002439D01*
X263657Y1002782D01*
X266083Y1004644D01*
X333357D01*
X335784Y1002782D01*
D02*
G37*
G36*
X431034D02*
X431136Y1002439D01*
Y1001621D01*
X431034Y1001278D01*
X428475Y999315D01*
X426231Y996390D01*
X424820Y992985D01*
X424339Y989330D01*
X424820Y985675D01*
X426231Y982270D01*
X427819Y980200D01*
X427193Y978930D01*
X424460D01*
Y948930D01*
X444024D01*
Y923180D01*
X442850Y922694D01*
X397022Y968522D01*
X394933Y970125D01*
X392500Y971133D01*
X389890Y971476D01*
X364210D01*
Y978930D01*
X361477D01*
X360851Y980200D01*
X362439Y982270D01*
X363850Y985675D01*
X364331Y989330D01*
X363850Y992985D01*
X362439Y996390D01*
X360195Y999315D01*
X357636Y1001278D01*
X357534Y1001621D01*
Y1002439D01*
X357636Y1002782D01*
X360063Y1004644D01*
X428607D01*
X431034Y1002782D01*
D02*
G37*
G36*
X526283D02*
X526386Y1002439D01*
Y1001621D01*
X526283Y1001278D01*
X523725Y999315D01*
X521481Y996390D01*
X520070Y992985D01*
X519589Y989330D01*
X520070Y985675D01*
X521481Y982270D01*
X523069Y980200D01*
X522443Y978930D01*
X519710D01*
Y960694D01*
X465370Y906354D01*
X464196Y906840D01*
Y954280D01*
X463853Y956890D01*
X462845Y959323D01*
X461242Y961412D01*
X459460Y963194D01*
Y978930D01*
X456727D01*
X456101Y980200D01*
X457689Y982270D01*
X459100Y985675D01*
X459581Y989330D01*
X459100Y992985D01*
X457689Y996390D01*
X455445Y999315D01*
X452887Y1001278D01*
X452784Y1001621D01*
Y1002439D01*
X452887Y1002782D01*
X455313Y1004644D01*
X523857D01*
X526283Y1002782D01*
D02*
G37*
G36*
X546237Y947757D02*
X480370Y881889D01*
X479196Y882375D01*
Y891652D01*
X536474Y948930D01*
X545751D01*
X546237Y947757D01*
D02*
G37*
G36*
X152575Y746935D02*
X155500Y744691D01*
X158905Y743280D01*
X162395Y742821D01*
X167714Y737502D01*
Y719188D01*
X152326Y703800D01*
X151056Y704326D01*
Y746939D01*
X152259Y747347D01*
X152575Y746935D01*
D02*
G37*
G36*
X555424Y755079D02*
X556334Y752881D01*
Y672935D01*
X555980Y672682D01*
X554710Y673334D01*
Y698260D01*
X551977D01*
X551351Y699530D01*
X552939Y701600D01*
X554350Y705005D01*
X554831Y708660D01*
X554350Y712315D01*
X552939Y715720D01*
X550695Y718645D01*
X548136Y720608D01*
X548034Y720951D01*
Y721769D01*
X548136Y722112D01*
X550695Y724075D01*
X552939Y727000D01*
X554350Y730405D01*
X554831Y734060D01*
X554350Y737715D01*
X552939Y741120D01*
X550695Y744045D01*
X548136Y746008D01*
X548034Y746351D01*
Y747169D01*
X548136Y747512D01*
X550695Y749475D01*
X552939Y752400D01*
X554088Y755174D01*
X554946Y755210D01*
X555424Y755079D01*
D02*
G37*
G36*
X489024Y742954D02*
Y739108D01*
X421438Y671523D01*
X417592D01*
X417106Y672696D01*
X487850Y743440D01*
X489024Y742954D01*
D02*
G37*
G36*
X504624Y724520D02*
Y711928D01*
X436373Y643677D01*
X433220D01*
X432789Y644947D01*
X433561Y645539D01*
X434723Y647054D01*
X435453Y648817D01*
X435703Y650710D01*
Y657258D01*
X503450Y725006D01*
X504624Y724520D01*
D02*
G37*
G36*
X401366Y625727D02*
X403455Y624124D01*
X405887Y623116D01*
X408498Y622773D01*
X411120D01*
X411655Y622075D01*
X414213Y620112D01*
X414316Y619769D01*
Y618951D01*
X414213Y618608D01*
X411655Y616645D01*
X409411Y613720D01*
X408000Y610315D01*
X407519Y606660D01*
X408000Y603005D01*
X409411Y599600D01*
X411655Y596675D01*
X414213Y594712D01*
X414316Y594369D01*
Y593551D01*
X414213Y593208D01*
X411655Y591245D01*
X409411Y588320D01*
X408000Y584915D01*
X407519Y581260D01*
X408000Y577605D01*
X409411Y574200D01*
X411655Y571275D01*
X414213Y569312D01*
X414316Y568969D01*
Y568151D01*
X414213Y567808D01*
X411655Y565845D01*
X409411Y562920D01*
X408000Y559515D01*
X407883Y558622D01*
X406680Y558214D01*
X394896Y569998D01*
Y630400D01*
X396166Y630926D01*
X401366Y625727D01*
D02*
G37*
G36*
X127074Y365279D02*
Y359778D01*
X104251Y336955D01*
X98878D01*
X98392Y338128D01*
X125242Y364978D01*
X125804Y365710D01*
X127074Y365279D01*
D02*
G37*
G36*
X266774Y353962D02*
Y298450D01*
X267117Y295840D01*
X268125Y293407D01*
X269728Y291318D01*
X389964Y171082D01*
Y169843D01*
X388694Y169591D01*
X388465Y170143D01*
X386862Y172232D01*
X265356Y293738D01*
Y337820D01*
X265013Y340430D01*
X264005Y342863D01*
X262402Y344952D01*
X247562Y359792D01*
X245473Y361395D01*
X243041Y362403D01*
X240430Y362746D01*
X169743D01*
X167316Y364608D01*
X167214Y364951D01*
Y365769D01*
X167316Y366112D01*
X169875Y368075D01*
X171079Y369644D01*
X251092D01*
X266774Y353962D01*
D02*
G37*
D10*
X80414Y324254D02*
Y334414D01*
X118110Y372110D02*
Y680720D01*
X80414Y334414D02*
X118110Y372110D01*
X78740Y322580D02*
X80414Y324254D01*
X78740Y320580D02*
Y322580D01*
X33020Y590549D02*
X59690Y563879D01*
X33020Y738699D02*
X49530Y755209D01*
X33020Y590549D02*
Y738699D01*
X49530Y755209D02*
Y755650D01*
X410210Y1120729D02*
X503911D01*
X310562D02*
X410210D01*
X33020Y302260D02*
X53340Y322580D01*
X33020Y205630D02*
X113030Y125620D01*
X49530Y501999D02*
Y502920D01*
X33020Y302260D02*
Y485489D01*
X17780Y826770D02*
X48113Y857103D01*
X17780Y194000D02*
X87630Y124150D01*
X33020Y485489D02*
X49530Y501999D01*
X33020Y205630D02*
Y302260D01*
X17780Y194000D02*
Y826770D01*
X552711Y1038599D02*
X574710Y1016600D01*
Y940752D02*
Y1016600D01*
X499110Y865152D02*
X574710Y940752D01*
X542180Y1014730D02*
X559710Y997200D01*
Y946965D02*
Y997200D01*
X484110Y871366D02*
X559710Y946965D01*
X484110Y753964D02*
Y871366D01*
X499110Y753000D02*
Y865152D01*
X441960Y1014730D02*
X542180D01*
X566420Y668020D02*
Y758190D01*
X458470Y560070D02*
X566420Y668020D01*
X537210Y835660D02*
X567690D01*
X469110Y760177D02*
Y895830D01*
X529710Y958930D02*
X534710Y963930D01*
X529710Y956430D02*
Y958930D01*
X469110Y895830D02*
X529710Y956430D01*
X534710Y963930D02*
X537210D01*
X454110Y766530D02*
Y954280D01*
X444460Y963930D02*
X454110Y954280D01*
X252730Y963930D02*
X275590Y941070D01*
X332928D02*
X333065Y940933D01*
X275590Y941070D02*
X332928D01*
X333065Y940933D02*
X384947D01*
X424110Y901770D01*
X254085Y925933D02*
X378734D01*
X409110Y895557D01*
X219898Y960120D02*
X254085Y925933D01*
X375404Y908050D02*
X394110Y889344D01*
X215007Y942340D02*
X249297Y908050D01*
X375404D01*
X158750Y963930D02*
X162560Y960120D01*
X219898D01*
X143698Y942340D02*
X215007D01*
X122108Y963930D02*
X143698Y942340D01*
X503911Y1120729D02*
X533710Y1090930D01*
X410210Y1120140D02*
X439420Y1090930D01*
X441960D01*
X222036Y1120729D02*
X310562D01*
X341045Y1090930D02*
X346710D01*
X337045Y1094930D02*
X341045Y1090930D01*
X336360Y1094930D02*
X337045D01*
X310562Y1120729D02*
X336360Y1094930D01*
X125141Y1120729D02*
X222036D01*
X245230Y1097095D02*
Y1097160D01*
X222036Y1120354D02*
X245230Y1097160D01*
Y1097095D02*
X251395Y1090930D01*
X252730D01*
X33701Y1120729D02*
X125141D01*
X154940Y1090930D02*
X158750D01*
X125141Y1120729D02*
X154940Y1090930D01*
X17780Y937260D02*
Y1104807D01*
X33701Y1120729D01*
X33701D02*
X56000Y1098430D01*
Y1097095D02*
Y1098430D01*
X62165Y1090930D02*
X63500D01*
X56000Y1097095D02*
X62165Y1090930D01*
X17780Y937260D02*
X49530Y905510D01*
X232410Y96520D02*
Y223520D01*
X220980Y85090D02*
X232410Y96520D01*
X159890Y302260D02*
X232410D01*
X118220Y85090D02*
X220980D01*
X87630Y115680D02*
X118220Y85090D01*
X87630Y115680D02*
Y120650D01*
X59690Y261620D02*
Y301530D01*
Y261620D02*
X91440Y229870D01*
X59690Y301530D02*
X78740Y320580D01*
X148590Y783590D02*
X256917D01*
X102870Y829310D02*
Y858520D01*
Y829310D02*
X148590Y783590D01*
X162560Y756920D02*
X177800Y741680D01*
X140970Y703580D02*
Y759460D01*
X118110Y680720D02*
X140970Y703580D01*
X101600Y755650D02*
X102870Y756920D01*
X80010Y755650D02*
X101600D01*
X66211Y741851D02*
X80010Y755650D01*
X142240Y861060D02*
X160020D01*
X162560Y858520D01*
Y883920D02*
X186690Y859790D01*
Y845820D02*
Y859790D01*
X162560Y858520D02*
Y883920D01*
X140970Y905510D02*
X162560Y883920D01*
X248659Y855719D02*
X250190Y857250D01*
X224790Y831850D02*
X248659Y855719D01*
X303791D01*
X49530Y905510D02*
X140970D01*
X200660Y831850D02*
X224790D01*
X186690Y845820D02*
X200660Y831850D01*
X458470Y212090D02*
Y560070D01*
X431800Y185420D02*
X458470Y212090D01*
X441960Y963930D02*
X444460D01*
X303791Y855719D02*
X304800Y854710D01*
X256917Y783590D02*
X275917Y802590D01*
X295530Y758190D02*
X313060Y775720D01*
X275917Y802590D02*
X301930D01*
X313060Y791460D01*
Y775720D02*
Y791460D01*
X137160Y674370D02*
X177800Y715010D01*
Y741680D01*
Y715010D02*
X205755Y742964D01*
Y754395D02*
X207010Y755650D01*
X205755Y742964D02*
Y754395D01*
X137160Y355600D02*
Y674370D01*
X104140Y322580D02*
X137160Y355600D01*
X159890Y657460D02*
X163890Y661460D01*
Y669350D01*
X248659Y754119D01*
X66211Y710101D02*
Y741851D01*
X64770Y708660D02*
X66211Y710101D01*
X289560Y758190D02*
X295530D01*
X276599Y782059D02*
X288029D01*
X289560Y783590D01*
X248659Y754119D02*
X276599Y782059D01*
X248659Y754119D02*
Y754119D01*
X423171Y633591D02*
X440551D01*
X514710Y707750D02*
Y741930D01*
X440551Y633591D02*
X514710Y707750D01*
X421640Y632060D02*
X423171Y633591D01*
X421640Y657460D02*
X499110Y734930D01*
Y753000D01*
X389890Y961390D02*
X439110Y912170D01*
X349250Y961390D02*
X389890D01*
X439110Y772743D02*
Y912170D01*
X409110Y785170D02*
Y895557D01*
X394110Y794160D02*
Y889344D01*
X424110Y778956D02*
Y901770D01*
X335280Y690126D02*
X424110Y778956D01*
X350520Y684153D02*
X439110Y772743D01*
X320280Y696340D02*
X409110Y785170D01*
X402640Y672494D02*
X484110Y753964D01*
X384810Y675877D02*
X469110Y760177D01*
X368300Y680720D02*
X454110Y766530D01*
X300990Y701040D02*
X394110Y794160D01*
X514710Y741930D02*
X532240Y759460D01*
X514710Y767330D02*
Y767330D01*
X500380Y753000D02*
X514710Y767330D01*
Y767330D02*
X532240Y784860D01*
X537210D01*
X346710Y1014730D02*
X441960D01*
X252730D02*
X346710D01*
X158750D02*
X252730D01*
X63500D02*
X158750D01*
X63500Y1040130D02*
X158750D01*
X252730D01*
X346710D01*
X441960D01*
X537210D01*
X533710Y1090930D02*
X537210D01*
X419475Y403460D02*
X421640D01*
X414230Y407460D02*
X415475D01*
X419475Y403460D01*
X300990Y520700D02*
X414230Y407460D01*
X320280Y528750D02*
X420170Y428860D01*
X320280Y528750D02*
Y696340D01*
X300990Y520700D02*
Y701040D01*
X384810Y565820D02*
Y675877D01*
X350520Y549310D02*
Y684153D01*
X368300Y556930D02*
Y680720D01*
X335280Y539150D02*
Y690126D01*
X402640Y638717D02*
Y672494D01*
X384810Y565820D02*
X420170Y530460D01*
X420841Y632859D02*
X421640Y632060D01*
X402640Y638717D02*
X408498Y632859D01*
X420841D01*
X532240Y759460D02*
X537210D01*
X63500Y963930D02*
X122108D01*
X420170Y428860D02*
X421640D01*
X335280Y539150D02*
X420170Y454260D01*
X350520Y549310D02*
X420170Y479660D01*
X368300Y556930D02*
X420170Y505060D01*
Y454260D02*
X421640D01*
X346710Y963930D02*
X349250Y961390D01*
X420170Y479660D02*
X421640D01*
X420170Y505060D02*
X421640D01*
X420170Y530460D02*
X421640D01*
X113030Y120650D02*
X138430D01*
X113030D02*
Y125620D01*
X87630Y120650D02*
Y124150D01*
X537210Y1040130D02*
X538741Y1038599D01*
X552711D01*
X355600Y265193D02*
Y349250D01*
X304800Y400050D02*
X355600Y349250D01*
X392430Y224790D02*
X431800Y185420D01*
X353060Y264160D02*
X392430Y224790D01*
Y273050D02*
X421640Y302260D01*
X392430Y224790D02*
Y273050D01*
X304800Y312420D02*
X353060Y264160D01*
X431800Y128270D02*
Y185420D01*
X304800Y312420D02*
Y334010D01*
X184550Y352660D02*
X240430D01*
X255270Y289560D02*
Y337820D01*
X240430Y352660D02*
X255270Y337820D01*
Y289560D02*
X379730Y165100D01*
Y111760D02*
Y165100D01*
Y111760D02*
X405130Y86360D01*
X400050Y115570D02*
Y175260D01*
Y115570D02*
X409850Y105770D01*
X276860Y298450D02*
X400050Y175260D01*
X276860Y298450D02*
Y358140D01*
X255270Y379730D02*
X276860Y358140D01*
X482600Y123300D02*
Y128270D01*
X445660Y86360D02*
X482600Y123300D01*
X405130Y86360D02*
X445660D01*
X182880Y379730D02*
X255270D01*
X457200Y123300D02*
Y128270D01*
X439670Y105770D02*
X457200Y123300D01*
X409850Y105770D02*
X439670D01*
X167217Y379730D02*
X182880D01*
X203200Y400050D02*
X203200D01*
X182880Y379730D02*
X203200Y400050D01*
X159890Y378060D02*
X161421Y379591D01*
X167078D01*
X167217Y379730D01*
X184550Y352660D02*
X203200Y334010D01*
X159890Y352660D02*
X184550D01*
D11*
X537210Y1090930D02*
D03*
Y1065530D02*
D03*
Y1040130D02*
D03*
Y989330D02*
D03*
Y1014730D02*
D03*
X252730Y1090930D02*
D03*
Y1065530D02*
D03*
Y1040130D02*
D03*
Y989330D02*
D03*
Y1014730D02*
D03*
X158750Y1090930D02*
D03*
Y1065530D02*
D03*
Y1040130D02*
D03*
Y989330D02*
D03*
Y1014730D02*
D03*
X63500Y1090930D02*
D03*
Y1065530D02*
D03*
Y1040130D02*
D03*
Y989330D02*
D03*
Y1014730D02*
D03*
X441960Y1090930D02*
D03*
Y1065530D02*
D03*
Y1040130D02*
D03*
Y989330D02*
D03*
Y1014730D02*
D03*
X346710Y1090930D02*
D03*
Y1065530D02*
D03*
Y1040130D02*
D03*
Y989330D02*
D03*
Y1014730D02*
D03*
X537210Y734060D02*
D03*
Y708660D02*
D03*
Y759460D02*
D03*
Y784860D02*
D03*
Y810260D02*
D03*
Y835660D02*
D03*
Y861060D02*
D03*
D12*
Y963930D02*
D03*
X252730D02*
D03*
X158750D02*
D03*
X63500D02*
D03*
X441960D02*
D03*
X346710D02*
D03*
X537210Y683260D02*
D03*
D13*
X64770Y708660D02*
D03*
X91440Y229870D02*
D03*
D14*
X64770Y683260D02*
D03*
D15*
X159890Y302260D02*
D03*
Y530460D02*
D03*
Y403460D02*
D03*
Y378060D02*
D03*
Y352660D02*
D03*
Y327260D02*
D03*
Y428860D02*
D03*
Y454260D02*
D03*
Y479660D02*
D03*
Y505060D02*
D03*
Y555860D02*
D03*
Y581260D02*
D03*
Y606660D02*
D03*
Y632060D02*
D03*
X421640Y302260D02*
D03*
Y530460D02*
D03*
Y403460D02*
D03*
Y378060D02*
D03*
Y352660D02*
D03*
Y327260D02*
D03*
Y428860D02*
D03*
Y454260D02*
D03*
Y479660D02*
D03*
Y505060D02*
D03*
Y555860D02*
D03*
Y581260D02*
D03*
Y606660D02*
D03*
Y632060D02*
D03*
X102870Y756920D02*
D03*
Y858520D02*
D03*
X250190Y857250D02*
D03*
Y755650D02*
D03*
X304800Y334010D02*
D03*
X203200D02*
D03*
X304800Y400050D02*
D03*
X203200D02*
D03*
X49530Y502920D02*
D03*
X74930D02*
D03*
X162560Y858520D02*
D03*
Y756920D02*
D03*
X207010Y755650D02*
D03*
Y857250D02*
D03*
X49530D02*
D03*
Y755650D02*
D03*
X85090Y563881D02*
D03*
X59690Y563879D02*
D03*
D16*
X159890Y657460D02*
D03*
X421640D02*
D03*
D17*
X289560Y783590D02*
D03*
Y758190D02*
D03*
Y732790D02*
D03*
D18*
X87630Y120650D02*
D03*
X113030D02*
D03*
X163830D02*
D03*
X138430D02*
D03*
X431800Y128270D02*
D03*
X482600D02*
D03*
X457200D02*
D03*
D19*
X189230Y120650D02*
D03*
X508000Y128270D02*
D03*
D20*
X116840Y229870D02*
D03*
D21*
X104140Y322580D02*
D03*
D22*
X78740D02*
D03*
X53340D02*
D03*
D23*
X354800Y854710D02*
D03*
D24*
X304800D02*
D03*
D25*
X561340Y1164590D02*
D03*
Y35560D02*
D03*
X35560D02*
D03*
Y1164590D02*
D03*
D26*
X566420Y758190D02*
D03*
X567690Y835660D02*
D03*
X232410Y223520D02*
D03*
Y302260D02*
D03*
X140970Y759460D02*
D03*
X142240Y861060D02*
D03*
M02*
