M48
;Layer_Color=9474304
;FILE_FORMAT=4:4
METRIC,LZ
;TYPE=PLATED
T1F00S00C0.7500
T2F00S00C0.8500
T3F00S00C0.9000
T4F00S00C1.0000
T5F00S00C1.1000
T6F00S00C3.0000
%
T01
X0017399Y0095885
X0028575Y009398
X0032893Y0093726
X0011938Y0095885
T02
X004707Y0058166
X005207
X0051943Y006985
X0046943
T03
X0010414Y0053721
X0010541Y00593871
Y00695471
X0013843Y0080391
Y0090551
X004445
Y0080391
X0039878Y0063373
Y0055626
X0029718
Y0063373
T04
X001637Y0030266
Y0035306
Y0037846
Y0040386
Y0042926
Y0045466
Y0048006
Y0050546
Y0053086
X0042545
Y0050546
Y0048006
Y0045466
Y0042926
Y0040386
Y0037846
Y0035306
Y0030266
Y0055626
Y0058166
Y0060706
Y0063246
Y0065786
X0040513Y0078994
X0037973
X0035433
X0032893
X0027813
X0025273
X0022733
X0020193
X0017653
Y0090269
X0020193
X0022733
X0025273
X0027813
X0032893
X0035433
X0037973
X0040513
X0048133Y0085471
Y0082931
X001637Y0065786
Y0063246
Y0060706
Y0058166
Y0055626
T05
X0006985Y0012954
X0009525
X0012065
X0014605
X0017145
X0043561
X0046101
X0048641
X0051181
X0051435Y0023368
X0048895
X0042545Y0032766
X001637
X0009779Y0022987
X0007239
X0007874Y00537208
X0007493Y008763
Y009017
X0030353Y0090269
Y0078994
X0048133Y0080391
Y0104267
Y0106807
Y0109347
X00381
Y0106807
Y0104267
X0027686
Y0106807
Y0109347
X0017399Y0109601
Y0107061
Y0104521
Y0101981
X0007366Y0104267
Y0106807
Y0109347
T06
X0003556Y0003556
X0056769
X0056642Y0116967
X0003556Y0117094
M30
